<?xml version="1.0" standalone="no"?>
<!DOCTYPE svg PUBLIC "-//W3C//DTD SVG 1.1//EN" "http://www.w3.org/Graphics/SVG/1.1/DTD/svg11.dtd" >
<svg xmlns="http://www.w3.org/2000/svg">
<metadata></metadata>
<defs>
<font id="lemonade_icgbold" horiz-adv-x="445" >
<font-face units-per-em="1000" ascent="800" descent="-200" />
<missing-glyph horiz-adv-x="211" />
<glyph unicode="&#xd;" horiz-adv-x="211" />
<glyph unicode=" "  horiz-adv-x="211" />
<glyph unicode="&#x09;" horiz-adv-x="211" />
<glyph unicode="&#xa0;" horiz-adv-x="211" />
<glyph unicode="!" horiz-adv-x="192" d="M73 86q20 0 35.5 -13t15.5 -33q0 -24 -18.5 -39t-43.5 -15q-42 0 -42 52q0 21 15.5 34.5t37.5 13.5zM72 115q-16 1 -25.5 15.5t-7.5 30.5q12 125 37 319q4 27 11 87q2 34 9 102q5 33 25 33q40 0 48 -34q3 -8 -1 -21q-5 -18 -6 -22q-4 -37 -13 -119q-3 -29 -37 -251 q-3 -16 -1 -47q2 -36 2 -46q-1 -21 -12.5 -35t-28.5 -12z" />
<glyph unicode="&#x22;" horiz-adv-x="315" d="M134 641q0 -92 -16 -176q-3 -15 -31 -7q-12 4 -18 9q-9 11 -10 35.5t-4 70.5q-3 42 -3 66q0 17 13 31t31 14q38 0 38 -43zM258 656q0 -102 -12 -163q-4 -21 -27 -21q-4 0 -7 1q-33 9 -29 44q4 31 1 72q-4 56 -4 67q0 17 11 30t29 13q38 0 38 -43z" />
<glyph unicode="#" horiz-adv-x="394" d="M178 643q0 -5 4 -31q3 -16 -3 -28l53 9q0 9 -1.5 26t-1.5 27v28q4 13 26 13q13 0 21.5 -11.5t8.5 -27.5v-44q5 0 15 2t16 1q33 -2 33 -25q0 -14 -14 -25q-9 -6 -44 -6v-50q29 9 40 2t12 -18q3 -17 -10 -32q-7 -8 -22 -9q-20 -2 -22 -3q0 -7 3 -28q3 -17 2 -29 q-4 -37 -29 -39q-13 0 -23.5 9.5t-10.5 21.5q0 10 1.5 25t1.5 25l-55 -7q-1 -20 2 -65q3 -15 -6 -28.5t-23 -13.5q-30 0 -32 43.5t-1 48.5q-11 -4 -34 -2q-25 3 -27 25q-3 22 17 32q10 5 27.5 6t22.5 3l4 47q-9 -2 -33 -11q-19 -7 -32 -7q-27 0 -28 29q-1 36 36 36 q16 0 54 9q0 11 -4 33t-4 36q0 33 26 33q34 0 34 -30zM229 538l-47 -6l-3 -57l52 10z" />
<glyph unicode="$" horiz-adv-x="438" d="M192 -129q-16 0 -31 16t-15 35q0 8 11.5 28t13.5 34q1 17 0 33l-16 1q-55 4 -92.5 44.5t-34.5 94.5q2 31 19 57.5t39 25.5q36 -1 38 -38q1 -11 -17 -21.5t-19 -20.5q0 -16 9.5 -38.5t24 -32.5t37.5 -8l14 1l18 220l-12 5q-80 37 -99 56q-25 26 -25 88q0 71 36 131t94 81 l20 8l2 72q1 36 30 38q14 1 24 -9.5t11 -25.5l3 -64l17 -1q53 -3 86 -52q30 -45 26 -104q-3 -40 -17 -71q-17 -36 -41 -36q-12 0 -23 9t-11 19q0 16 20 46.5t17 51.5q-3 33 -21 56q-21 26 -49 20l-11 -2l-15 -286q90 -50 90 -166q0 -52 -21 -82t-81 -60l-10 -5 q-1 -24 -7 -83q-10 -67 -32 -65zM241 94q38 19 41 66q3 38 -26 80zM189 363l10 239q-31 -12 -55 -48q-31 -46 -31 -109q0 -56 76 -82z" />
<glyph unicode="%" horiz-adv-x="511" d="M482 108q0 -11 -2 -22q-14 -79 -84 -79q-11 0 -23 2q-94 17 -94 120q0 15 3 31q6 36 31 56.5t59 20.5q48 0 79 -39.5t31 -89.5zM122 647q44 0 79 -40t35 -90q0 -95 -93 -95q-56 0 -88 41q-28 37 -28 92q0 41 27.5 66.5t67.5 25.5zM375 663q-8 -55 -43 -168 q-44 -142 -58 -202q-26 -104 -66 -287q-5 -28 -40 -28q-36 0 -33 25q2 22 13 52q15 39 18 52q14 59 45 190q11 48 37 129q24 75 37 132q7 45 14 91q12 50 43 50q13 0 23.5 -11.5t9.5 -24.5zM102 544q0 -24 14 -43t33 -19q21 0 24 32q-1 -2 -4 22q-5 -1 -11 7 q-10 13 -11.5 14t-11.5 18q-7 11 -16 10q-17 -1 -17 -41zM353 124q0 -50 36 -57q20 -3 29 28q0 7 1 22q-6 -1 -10.5 7.5t-8.5 15.5q-2 2 -9 21q-5 12 -14 13q-24 1 -24 -50z" />
<glyph unicode="&#x26;" horiz-adv-x="498" d="M400 129q5 -3 13 -10q17 -14 34 -29t17 -34q0 -17 -14.5 -28t-32.5 -11q-14 0 -25 15q-17 25 -19 27l-16 15l-9 -6q-27 -26 -55 -52q-46 -39 -97 -39q-70 0 -120.5 51.5t-50.5 123.5q0 46 31 97q2 2 70 98l11 15l-8 10q-72 93 -72 210q0 49 33.5 82t84.5 33 q177 0 177 -130q0 -40 -24 -75q-27 -32 -53 -65l-53 -66q17 -23 70 -93q21 -27 67 -90l24 20q4 28 33 28q28 0 33 -40q3 -18 -12 -32q-1 -1 -37 -25zM177 312l-60 -92q-14 -21 -18 -30q-8 -17 -8 -34q-2 -45 29.5 -78t75.5 -33q38 0 105 73l13 14q-47 59 -137 180zM188 425 q33 41 66 83t33 63q0 22 -38 45t-66 23t-45 -27t-16 -61q1 -51 22 -92l29 -55z" />
<glyph unicode="'" horiz-adv-x="200" d="M142 635q0 -92 -16 -176q-3 -15 -30 -7q-9 1 -18 2.5t-11.5 7t-1.5 15.5q2 17 2 19q1 29 -1 72q-2 48 -2 67q0 17 11 30t29 13q38 0 38 -43z" />
<glyph unicode="(" horiz-adv-x="273" d="M248 658q0 -10 -7 -17q-62 -59 -100 -148q-41 -95 -41 -199q0 -26 3 -52q8 -74 27.5 -126t62.5 -110q5 -7 36 -28q22 -15 20 -34q-3 -46 -43 -46q-14 0 -28 14q-1 1 -23 28q-45 54 -79 133q-38 86 -44 161q-3 23 -3 48q0 117 45 234q40 105 95 165q16 17 41 17 q16 0 27 -12t11 -28z" />
<glyph unicode=")" horiz-adv-x="292" d="M20 -84q0 12 8 19q77 59 124 159q51 108 49 226q-1 74 -16.5 127t-52.5 115q-5 8 -34 32q-20 17 -17 35q7 38 38 43q18 2 33 -13q3 -3 24 -34q39 -57 67 -139q30 -89 30 -164q0 -128 -58 -258q-51 -113 -119 -176q-15 -13 -37 -13q-21 0 -30 14t-9 27z" />
<glyph unicode="*" horiz-adv-x="334" d="M108 401q-19 7 -19 28q0 6 3 10q14 28 46 73q-19 4 -22 4q-7 0 -20.5 -3t-23.5 -2q-34 1 -34 32q0 34 26 34h50q-2 3 -21 20q-13 12 -12 24q2 36 37 37q22 1 34 -16t22 -41q7 16 24 59q7 19 43 19q28 0 28 -27q0 -15 -16 -34q-11 -12 -22 -23q19 5 30 4q43 -4 43 -28 q0 -31 -32 -31q-41 0 -56 -2q12 -20 43 -43q25 -19 25 -32q0 -14 -12 -24t-29 -10q-20 0 -38 22q-7 12 -26 42q0 -1 -10 -39q-5 -21 -15 -35q-15 -21 -30 -21q-7 0 -16 3z" />
<glyph unicode="+" horiz-adv-x="429" d="M241 327q-3 -22 -2 -45q2 -39 2 -43q36 -4 48 -2q13 2 42 11q23 7 41 7q12 0 21 -10.5t9 -22.5q0 -29 -33 -39q-14 -4 -72 -9q-19 -2 -59 -6q-2 -14 -5 -46q-6 -74 -6 -109q0 -41 -38 -41q-36 0 -36 46q0 18 7 44q8 30 9 45q4 35 4 61q-26 -2 -80 -16q-22 -9 -36 -9 q-22 0 -26 23q-2 8 -2 15q0 21 17 27q6 2 34.5 6.5t93.5 12.5q0 23 -3 51q-5 37 -6 56t10.5 35.5t32.5 16.5q36 0 36 -34q0 -8 -3 -25z" />
<glyph unicode="," horiz-adv-x="154" d="M131 32q2 -37 -18 -68q-23 -32 -57 -32q-36 0 -36 24q0 15 25 18q19 1 17 18q-40 4 -40 52q0 22 18 36t41 14q45 0 50 -62z" />
<glyph unicode="-" horiz-adv-x="407" d="M29 229q0 31 59 43q12 2 28 -2q21 -4 29 -4q37 0 94 9.5t83 9.5q62 0 62 -44q0 -45 -56 -45q-8 0 -22 1t-21 1q-33 0 -68 -4.5t-69 -4.5q-6 0 -24.5 -1t-29.5 -1q-65 0 -65 42z" />
<glyph unicode="." horiz-adv-x="164" d="M129 60q0 -26 -16 -45.5t-40 -19.5q-18 0 -28.5 17t-10.5 40q-1 27 17.5 48.5t44.5 21.5q33 0 33 -62z" />
<glyph unicode="/" horiz-adv-x="303" d="M277 642q-23 -54 -45 -147q-20 -86 -40 -173q-7 -25 -42 -144q-23 -79 -37 -153q-7 -36 -10 -41q-9 -22 -34 -22q-35 0 -35 31q0 8 3 20q14 71 43 162q33 105 46 160q8 31 69 325q3 16 16.5 27.5t30.5 10.5q38 -3 38 -39q0 -8 -3 -17z" />
<glyph unicode="0" horiz-adv-x="484" d="M452 313q-5 -155 -31 -224q-43 -112 -156 -112q-122 0 -181 96q-48 78 -48 205q0 153 56 263q67 130 186 130q103 0 145 -94q30 -68 30 -200q0 -26 -1 -64zM106 275q0 -92 40 -157q44 -74 122 -74q46 0 82 43q34 40 34 83q0 9 -1.5 16.5t-13.5 18t-12 19.5q0 24 14.5 65 t14.5 68q0 24 -10.5 62.5t-9.5 63.5q0 5 3 16q2 9 0 16q-4 26 -37 54.5t-67 28.5q-68 0 -117 -124q-42 -104 -42 -199z" />
<glyph unicode="1" horiz-adv-x="484" d="M281 618q-1 -70 2 -230q7 -143 -8 -332q13 0 34 2t33 2q38 0 38 -23q0 -28 -20 -37q-2 -1 -41 -8q-14 2 -44 2q-10 -7 -34 -15q-10 -1 -23 4.5t-21 5.5q-14 1 -33 -2q-22 -4 -31 -4q-27 0 -27 28q0 19 14 28q2 1 28 10q8 3 20 3q19 0 43 -6q4 71 10 211q3 87 1 104 q-6 64 -6 132q2 135 2 128q-7 -2 -36 -12q-20 -7 -36 -6q-30 1 -31 30q-1 24 19 30q24 2 75 16q19 17 44 17q16 0 26 -10q15 -13 15 -34q0 -20 -13 -34z" />
<glyph unicode="2" horiz-adv-x="484" d="M364 15q-8 -2 -82 -9q-25 -2 -66.5 -17.5t-114.5 -22.5q-24 -2 -26 26q-2 21 15 48q17 22 33 45q11 17 34 42q26 29 34 39q96 131 124.5 200t28.5 140q0 137 -78 136q-35 0 -74.5 -37.5t-43.5 -73.5q-1 -14 6.5 -35t8.5 -32q6 -58 -38 -64q-22 -3 -31 26q-4 14 -8 57 q-7 82 40.5 145t125.5 70q57 5 105.5 -31.5t53.5 -89.5q1 -21 1 -38q0 -39 -11 -72.5t-9 -58.5q4 -10 9 -36q0 -17 -15 -33q-24 -24 -27 -28q-34 -52 -112 -167q-23 -30 -71 -98q53 16 171 37q76 7 79 -31q3 -28 -18.5 -31.5t-43.5 -5.5z" />
<glyph unicode="3" horiz-adv-x="484" d="M268 694q61 -5 102 -48.5t41 -103.5q0 -98 -65 -156q-25 -23 -28 -25q-17 -14 -35 -22q23 -11 59 -48q55 -56 56 -116q1 -79 -57.5 -134t-138.5 -55q-56 0 -98 30q-46 32 -46 82q0 32 24 58.5t54 26.5q11 0 19.5 -8t8.5 -19q0 -15 -24 -32t-22 -32q3 -25 29 -34 q15 -6 52 -9q52 -3 90.5 35t38.5 91q0 68 -85 126q-6 5 -19 5q-3 0 -10 -1h-10q-22 0 -22 21q0 25 32 43q29 15 59 30q74 53 74 144q0 39 -24 62.5t-61 27.5q-36 3 -67 -15q-34 -19 -34 -47q0 -80 -32 -74q-29 6 -29 51q0 64 51.5 107.5t116.5 38.5z" />
<glyph unicode="4" horiz-adv-x="484" d="M171 498q-12 -85 -20 -152q18 10 58 26q17 5 55 12q17 78 33 157q17 76 39 127q16 39 44 39t28 -25q0 -7 -3 -14q-18 -46 -52 -151q-9 -33 -26 -108q5 3 20 14q10 6 17 6q26 0 33 -28t-30 -48q0 -1 -38 -9q-3 -19 -10 -61q-7 -48 -7 -101q0 -19 3 -84q1 -52 0 -86 q-2 -50 -40 -50q-41 0 -34 52q19 134 19 305q-41 -9 -84 -32q-5 -2 -22 -18q-12 -11 -25 -11q-22 0 -36 19t-12 42q3 36 13 89q11 57 14 90q12 126 11 164q-1 13 10 24.5t24 11.5q41 0 41 -54q0 -25 -9 -72q-13 -63 -14 -74z" />
<glyph unicode="5" horiz-adv-x="484" d="M148 46q36 -2 89 1q40 14 67.5 71t21.5 117q-6 67 -115 67q-40 0 -67 -10q-31 -12 -47 10q-5 7 -5 15q0 6 4.5 19t5.5 19l44 270q-19 9 -18 34q2 20 36 28q10 5 24 2q20 -4 25 -4q26 1 96 11q32 10 96 23q11 1 22 -7t12 -19q4 -49 -110 -57l-117 -9l-45 -263l40 -2 q87 -4 118 -20q52 -27 62 -110q2 -17 2 -34q0 -95 -57 -158q-61 -65 -153 -58q-64 5 -92 15q-47 16 -45 54q4 49 33 46q21 -2 39.5 -27t33.5 -24z" />
<glyph unicode="6" horiz-adv-x="484" d="M231 418q93 0 149 -72q52 -67 52 -163q0 -100 -43 -149q-53 -59 -178 -59q-33 0 -69 63q-32 57 -47 128q-6 28 -20 91q-12 0 -20.5 9t-8.5 20q0 26 27 38q0 23 -2 57.5t-2 48.5q0 49 16 94q30 83 61 122q44 55 108 55t119 -55q51 -53 51 -105q0 -36 -1 -40 q-6 -21 -35 -21q-46 0 -46 65q0 50 -21 70q-17 17 -55 17q-52 0 -82 -48q-16 -26 -38 -100q-14 -50 -10 -101q35 24 39 25q20 10 56 10zM159 189q12 -46 24 -93q22 -61 61 -61q42 0 81.5 45.5t39.5 96.5q0 66 -37.5 119t-92.5 53t-93 -42q0 -54 17 -118z" />
<glyph unicode="7" horiz-adv-x="484" d="M411 662q-5 -27 -32 -107q-32 -94 -44 -139q-18 -68 -72 -322q-3 -22 -11 -72q-13 -64 -52 -63q-32 1 -27 55q3 42 19 103l128 501l-88 -32l-48 -18t-45 -9q-60 0 -60 42q0 21 23 27.5t86 16.5q53 10 95 26q3 1 42 19q25 12 40 12q17 0 30 -11q18 -16 16 -29z" />
<glyph unicode="8" horiz-adv-x="484" d="M404 561q0 -63 -63 -158l-19 -28l22 -23q39 -41 54 -69q20 -36 22 -82q3 -91 -71 -154q-70 -60 -166 -60q-48 0 -84 45t-36 101q0 110 133 220l24 20l-21 23q-68 75 -68 135q0 66 47 115.5t113 49.5q49 0 83 -48q30 -42 30 -87zM189 536q-1 -44 54 -91l22 -19l19 22 q23 27 41.5 69t18.5 67q0 22 -21 33t-48 11q-36 0 -60.5 -27t-25.5 -65zM238 303q-109 -98 -109 -160q0 -40 6 -57q10 -27 42 -37q12 -3 23 -3q18 0 56 16q71 31 91 76v24q1 4 7 28.5t6 32.5q-1 7 -7.5 15.5t-12.5 17.5l-19 29q-11 17 -22 24q-18 14 -39 14z" />
<glyph unicode="9" horiz-adv-x="484" d="M422 571q-10 -76 -20 -151q-14 -94 -35 -176q-4 -18 -21 -61q-28 -74 -57 -128q-50 -97 -82 -97q-30 0 -30 23q0 15 17 46q15 25 30 51q31 60 44 95q12 30 64 181l-19 -9q-44 -19 -89 -17q-162 10 -162 156q0 84 61 147q56 60 122 60q48 0 103 -62l21 -23q3 1 17 6 q8 3 15 1q10 -4 16.5 -18t4.5 -24zM125 478q0 -45 19 -67t65 -22q60 0 101 30t41 69q0 45 -41.5 94.5t-76.5 49.5q-37 0 -72.5 -52.5t-35.5 -101.5z" />
<glyph unicode=":" horiz-adv-x="170" d="M134 60q0 -26 -16.5 -45.5t-40.5 -19.5q-18 0 -28 17t-11 40q-1 27 17.5 48.5t44.5 21.5q34 0 34 -62zM137 272q0 -27 -16 -46.5t-41 -19.5q-18 0 -29 19q-9 16 -10 38q-1 28 17.5 49.5t44.5 21.5q34 0 34 -62z" />
<glyph unicode=";" horiz-adv-x="170" d="M140 32q3 -37 -18.5 -68.5t-56.5 -31.5q-36 0 -36 24q0 15 26 18q18 1 17 18q-40 4 -40 52q0 22 17.5 36t41.5 14q45 0 49 -62zM133 272q0 -27 -16.5 -46.5t-40.5 -19.5q-18 0 -29 19q-9 16 -10 38q-1 28 17.5 49.5t44.5 21.5q34 0 34 -62z" />
<glyph unicode="&#x3c;" horiz-adv-x="350" d="M237 313q-15 -15 -57 -72q-33 -44 -63 -88q10 -8 34 -24q18 -11 132 -69q34 -17 34 -38q0 -16 -12 -27t-27 -10q-33 4 -75 32t-82 56q-30 15 -60 29q-33 17 -33 44q0 16 15 29q23 19 26 24q16 25 51 78q22 26 68 86q39 53 74 53q11 0 20 -9.5t9 -20.5q0 -35 -21 -51 q-16 -11 -33 -22z" />
<glyph unicode="=" horiz-adv-x="423" d="M34 244q0 31 59 42q11 3 29.5 -1t26.5 -4q37 0 94 9.5t83 9.5q62 0 62 -44q0 -45 -56 -45q-8 0 -22 1t-21 1q-33 0 -68 -4.5t-68 -4.5q-6 0 -25 -1t-30 -1q-64 0 -64 42zM377 117q0 -30 -56 -40q-11 -2 -27 1q-19 4 -28 4q-34 0 -88 -9t-79 -9q-59 0 -59 42q0 43 54 43 q7 0 20.5 -1t19.5 -1q32 0 65 4.5t64 4.5q6 0 23.5 1t28.5 1q62 0 62 -41z" />
<glyph unicode="&#x3e;" horiz-adv-x="356" d="M111 93q14 14 56 71q33 44 64 89q-11 7 -34 23q-19 11 -133 69q-33 17 -33 38q0 16 12 27.5t26 9.5q33 -4 77 -31l80 -56q31 -15 62 -31t31 -43q0 -15 -15 -28q-23 -20 -26 -25q-15 -24 -51 -78q-21 -25 -68 -86q-39 -53 -74 -53q-11 0 -19.5 9.5t-8.5 20.5q0 35 20 51 q17 12 34 23z" />
<glyph unicode="?" horiz-adv-x="369" d="M334 523q1 -45 -18 -96q-15 -37 -59 -69q-20 -14 -77 -45q-40 -21 -44 -33q-2 -5 -2 -11q0 6 10 -35q5 -19 20.5 -46t20.5 -46q12 -39 -8 -53q-9 -6 -21 -6q-25 0 -33 20q-15 40 -27 88q-3 11 -18 47q-12 28 -12 46q0 15 7 29q15 31 54 45q26 10 52 19q98 72 98 159 q0 38 -13 64q-15 33 -43 33q-37 0 -77 -17t-40 -36q0 -14 9 -36t9 -37q0 -22 -4 -30q-8 -14 -33 -14q-54 0 -54 112q0 59 58 94q50 30 119 30q72 0 102 -56q21 -40 24 -120zM186 76q19 0 33 -11.5t16 -29.5q1 -21 -10.5 -35t-30.5 -17q-20 -2 -36.5 10.5t-17.5 32.5t13 35 t33 15z" />
<glyph unicode="@" horiz-adv-x="587" d="M380 99q0 -38 -53 -38q-9 0 -31 1t-35 1q-107 0 -168 81q-54 73 -52 181q2 103 81.5 182t180.5 79q88 0 165 -55q85 -62 85 -148q0 -82 -52 -152q-45 -62 -102 -62q-12 0 -20 4q-17 7 -48 27q-31 -27 -76 -27q-43 0 -70.5 29t-26.5 70q2 81 47.5 138t112.5 57 q12 0 55 -19q16 13 33 9q23 -6 23 -36q0 -9 -12 -37q-15 -34 -19 -49q-19 -70 -19 -89q0 -27 22 -27q28 0 56.5 53t24.5 103q-5 67 -49 108t-117 41q-84 0 -148 -65.5t-63 -145.5q1 -84 37 -134q43 -58 127 -59q35 1 69 1q42 -2 42 -22zM303 408q-36 -1 -65 -50q1 -5 1 -17 q-3 -9 -10.5 -17t-9.5 -12q-9 -24 -8 -34q0 -23 19 -35.5t44 -10.5q46 3 52 65v19q1 7 7 18.5t6 19.5q0 56 -36 54z" />
<glyph unicode="A" horiz-adv-x="527" d="M467 -30q-31 0 -39.5 35t-24.5 84q-21 58 -28 85q-11 33 -32 109q-4 14 -10 44q-152 0 -70 1q-41 0 -68 -9q-11 -31 -27 -93q-20 -78 -29 -109q-13 -45 -46 -139q-9 -21 -29 -21q-15 0 -26.5 9.5t-11.5 24.5q0 11 12 41q8 21 17 43q13 38 29 102t30 104l10 32 q-4 0 -13 -2t-13 -2q-20 0 -22 33q-2 25 28 40q20 10 42 2q29 78 48 142q11 39 31 126q-28 24 -24 47q5 32 35 36q29 3 46 -48q22 -67 57 -170q14 -38 44 -121h28q7 1 12 1q20 0 26 -26q6 -22 -13 -37q-15 -12 -33 -9q6 -33 24 -106q10 -27 43 -106q24 -58 28 -81 q5 -39 -8 -53q-8 -9 -23 -9zM263 521q-16 -44 -45 -134h44q-5 0 52 4q-18 43 -51 130z" />
<glyph unicode="B" horiz-adv-x="457" d="M146 691l19 1q126 7 193 -52q63 -53 62 -146q0 -83 -79 -149l-13 -10l12 -15q45 -57 61 -89q22 -44 22 -92q0 -71 -45 -112q-50 -45 -143 -40q-20 2 -89 4q-3 -7 -11 -17q-22 -20 -35 -20q-27 0 -34 43q-1 6 0 16q2 12 2 16q-6 3 -17 11q-25 17 -25 33q0 27 21 31 q-5 -1 19 -1l3 175q-11 13 -11 28q0 6 5 15t6 12l-2 261q-23 12 -21 40q2 19 21 31q0 8 2 20q8 27 33 30q36 4 44 -24zM141 355q12 3 37 8q17 0 56 4q53 12 83 49t29 87q0 45 -29 77q-26 29 -54 34q-9 0 -29 2q-7 4 -21 10q-1 0 -36 -3l-35 -3zM137 74q20 -22 100 -20 q52 1 75 12q32 16 42 62q2 13 -8 50q-33 122 -113 131q-34 4 -72 -9l-21 -7z" />
<glyph unicode="C" horiz-adv-x="568" d="M473 534q-11 0 -19 8.5t-15 17.5q-14 21 -28 41q-19 20 -74 20q-89 0 -162.5 -97.5t-73.5 -211.5q0 -124 30 -183q34 -69 113 -69q181 0 225 195q8 34 32 34q36 0 36 -29q0 -102 -78 -182q-85 -89 -212 -89q-133 0 -181 107q-29 66 -32 220q-3 146 82 257q90 115 225 115 q106 0 160 -88q13 -22 13 -38q0 -28 -41 -28z" />
<glyph unicode="D" horiz-adv-x="530" d="M141 692q7 0 26 -1q12 -1 80 -20q138 -40 198 -135q43 -69 43 -162q0 -106 -38 -193q-42 -94 -121 -143q-59 -37 -189 -44l-20 -1q-10 -17 -33 -16q-30 1 -30 54q-21 3 -21 26q0 18 26 28q0 146 3 266q4 30 9 87q1 49 7 156v31q-8 0 -19 6q-20 10 -20 27q0 11 12 17 t23 10q8 10 10 12q7 6 19 7q22 2 35 -12zM149 624q0 15 -9 -187q-5 -51 -11 -165v-72q0 -3 -4 -89q-1 -34 18 -44q10 -5 52 -5q49 0 101 36q120 83 120 258q0 71 -21 122q-39 92 -174 133q-22 6 -58 11q-2 0 -6.5 1t-7.5 1z" />
<glyph unicode="E" horiz-adv-x="438" d="M381 634h-53q-19 -4 -61 -11q-33 -6 -109 -20q-12 -110 -12 -203q32 0 91 -3q20 -1 60 -7q36 -6 57 -6q16 0 29.5 -10.5t12.5 -26.5q-1 -13 -12.5 -22.5t-25.5 -9.5q-28 0 -84 11q-50 9 -85 7q-14 0 -45 -7q-9 -27 -16 -114q3 -41 -1 -128q-2 -6 -7 -18q46 -4 109 -3 q24 1 61.5 8t57.5 7q47 0 49 -31q1 -16 -12 -28t-28 -12q-13 0 -39 1h-42q-84 0 -125 -2q-13 -3 -39 -10q-2 -31 -30 -31q-13 0 -23 9.5t-10 22.5q-18 4 -22 26q-2 13 9 27q9 11 18 14l23 267q-22 9 -22 33q0 21 28 34l2 195q-22 8 -22 29q0 26 29 40q-3 12 -3 16 q2 29 22 29q15 0 26 -13q17 -22 19 -23q31 4 100 17q34 10 68.5 19t60.5 7q33 -4 39 -31q4 -17 -10 -32t-33 -17z" />
<glyph unicode="F" horiz-adv-x="413" d="M358 625q-16 1 -53 0q-19 -3 -61 -10q-45 -8 -107 -8q-8 -74 -10 -114q-2 -52 -2 -98q34 -1 90 -1q23 0 60 3.5t56 3.5q17 0 29.5 -10.5t12.5 -26.5q-1 -14 -12.5 -23t-25.5 -9q-20 0 -57 1q-33 1 -51 1q-28 -1 -56 -5q-16 0 -48 -8q-10 -27 -16 -115q3 -38 -1 -122 q1 -27 -7 -86q-6 -24 -37 -24q-29 0 -34 23q-2 14 0 33q4 31 5 34q5 94 23 261q-22 5 -22 34q0 20 28 34l2 204q-22 8 -22 29q0 26 29 40q-2 10 -2 16q4 22 30 22q32 0 36 -29q75 0 98 5q33 9 68 18.5t61 6.5q33 -3 39 -30q4 -18 -10 -32.5t-33 -17.5z" />
<glyph unicode="G" horiz-adv-x="701" d="M512 553q-10 0 -28 20q-21 24 -26 26l-52 26q-30 11 -85 9q-98 -4 -161 -94t-60 -227q3 -119 48 -185.5t127 -66.5q98 0 158 59q44 43 75 132l-40 -14q-58 -25 -77 -32q-9 -3 -18 -3q-27 0 -39 25q-7 14 0 32t23 22l140 42q116 33 150 32q11 -1 21 -13t10 -25 q0 -11 -7 -18q-14 -12 -50 -19l-36 -7q-15 -108 -94 -192q-91 -95 -215 -95q-129 0 -194 107q-54 88 -54 228q0 153 81 264q88 120 220 112q92 -5 110 -9q64 -12 95 -49q18 -23 18 -51q0 -36 -40 -36z" />
<glyph unicode="H" horiz-adv-x="540" d="M508 69l-2 -54q-6 -29 -38 -34q-33 -5 -37 36q-3 29 -3 61q0 28 3.5 86t3.5 91q0 21 -1 42l-2 42h-107q-10 0 -48 1q-33 2 -55 1q-42 -1 -91 -4l-3 -32q-3 -47 -3 -254q0 -71 -40 -71q-20 0 -31 21t-8 45q15 122 15 158q0 60 -8 121q-32 6 -30 41q2 32 32 35q0 47 -1 151 q0 13 1 39q3 31 3 42q1 36 7 51q9 21 33 19q39 -2 39 -52q0 -14 -4 -42q-4 -31 -5 -42q-5 -90 -4 -159q31 -4 75 -1q62 5 80 5q67 0 157 -4q0 39 -1 92.5t-1 90.5q0 54 6 77q12 39 46 39q31 0 31 -40q0 10 -8 -68q-8 -85 -8 -198q7 -8 15 -28q1 -24 -15 -36q10 -96 7 -268z " />
<glyph unicode="I" horiz-adv-x="360" d="M22 652q0 24 15 28q1 1 29 1q78 1 89 0q9 18 30 20q25 3 39 -14q28 -1 59 0q22 1 39.5 -9t15.5 -30t-44 -31q-19 -5 -66 6q-12 -103 -12 -109q0 -59 6 -152.5t6 -153.5v-140q5 1 26 8q14 4 25 2q50 -9 50 -37t-40 -37q-6 -1 -50 7q-3 -2 -22 -17q-12 -9 -24 -9 q-23 0 -39 15q-34 -17 -79 -17q-44 0 -47 32q-1 17 14.5 28t34.5 11q57 0 78 2q3 45 8 146q1 31 1 62q0 43 -3.5 123.5t-3.5 132.5v107q-38 -11 -76 -12q-31 -1 -40 2q-19 6 -19 35z" />
<glyph unicode="J" horiz-adv-x="470" d="M395 632q-2 -1 -32 -1q-20 0 -30 -9.5t-13 -94.5l-4 -156q2 -64 -5 -191q-13 -85 -49 -137q-43 -63 -111 -63q-46 0 -87.5 40t-41.5 82q0 47 41 96.5t64 40.5q26 -9 27 -41q0 -21 -29.5 -49.5t-29.5 -42.5q0 -53 57 -53q56 0 77 95q13 55 17 126q3 68 6 137q3 60 10 197 l-23 -3q-54 -7 -78 -7q-12 0 -20.5 11.5t-6.5 25.5q3 27 31 27q9 0 29 -3q17 -3 30 -2q14 4 47 14q-4 12 3 23t20 12q27 4 30 -22l22 5q18 6 35.5 11.5t33.5 3.5q30 -4 30 -24q0 -25 -14 -36q-10 -8 -36 -12z" />
<glyph unicode="K" horiz-adv-x="423" d="M121 567q-2 -24 -6 -146l19 14q-4 5 -4 11q0 13 12.5 22t25.5 9t17 -10q16 22 48 72q38 66 62 126q9 23 37 21q13 0 23 -9t9 -21q-3 -43 -72 -147q-36 -53 -80 -94q23 -43 71 -142q19 -44 60 -109q38 -62 58 -112q2 -5 2 -11q0 -13 -10 -23.5t-24 -10.5q-31 2 -73 81 q-24 42 -70 151q-14 33 -34 68q-37 64 -37 66q-8 -9 -23 -21q-7 -6 -20 -15q1 -38 4 -121q0 -25 4 -99q2 -55 2 -94q0 -45 -30 -45q-44 0 -44 40q0 30 1.5 68.5t1.5 62.5q0 32 1 81t1 81q-12 0 -21.5 8t-9.5 19t13 23q10 9 21 18q2 145 2 192q0 18 -1 48v48q0 45 34 49 q39 4 39 -55q0 -17 -4 -47q-4 -39 -5 -47z" />
<glyph unicode="L" horiz-adv-x="517" d="M436 -9q-37 5 -128 26q-78 19 -133 23q-11 1 -24 -1q-19 -3 -25 -3q-3 -45 -44 -45q-21 0 -21 29q-15 -1 -26.5 9.5t-11.5 25.5q0 14 17 23q15 6 29 11q25 144 24 288q-1 65 -13 151q-8 62 -17 124q-2 19 11.5 37t32.5 16q26 -2 36 -43q2 -9 0 -22q-3 -15 -2 -23 q0 -1 12 -130q7 -73 7 -134q0 -56 -8 -123q-11 -98 -13 -124q46 -8 152 -24q45 -3 151 -17q63 -11 53 -45q-9 -32 -38 -32q-6 0 -21 3z" />
<glyph unicode="M" horiz-adv-x="672" d="M207 597q8 -9 18 -32q1 -9 6 -28q8 -25 26 -61q22 -44 29 -62q25 -66 80 -212q27 82 60 170q56 146 98 228q0 21 2 65q5 48 42 50q44 2 49 -46q1 -12 -6 -26q-12 -20 -12.5 -26t-2.5 -23q-3 -8 -10 -26q0 -3 1 -9t1 -10q12 -80 34 -264q10 -72 22 -247q2 -63 -30 -63 q-18 0 -36 30q-16 26 -14 43q7 53 7 91q0 42 -9 84q-2 9 -9 27q-7 14 -7 25q0 5 3.5 15t4.5 15q1 13 -4 37q-8 37 -9 42q-3 20 -8 61q-8 -14 -25 -49q-41 -91 -72 -192q-12 -32 -37 -105q12 -16 10 -39q-3 -37 -35 -42q-31 -5 -49 31q-1 12 -5 38q-10 64 -39 142 q-27 69 -55 137l-45 115l-28 -160q-4 -22 -25 -112q-13 -61 -17 -111q0 -21 -2.5 -69t-37.5 -48q-17 0 -29.5 12t-14.5 29q0 10 5 21q6 15 7 19l53 264q15 67 30 133q15 70 15 136q0 6 -11 34t-11 44q0 40 25 45q33 6 50 -41q4 -11 17 -80z" />
<glyph unicode="N" horiz-adv-x="508" d="M440 709q17 0 29 -16t13 -36q1 -21 -7.5 -51t-9 -48.5t-6 -50.5t-4.5 -50q1 -62 -10 -153q-12 -97 -12 -152q0 -17 -6 -41.5t-6 -41.5q20 -25 21 -51q-2 -42 -21 -47q-7 -2 -14 -2q-35 0 -46 28q-13 32 -44 105q-13 29 -28.5 82t-29.5 83q-3 8 -78 187q-13 -71 -37 -202 q-9 -41 -27 -152q-1 -29 -2 -57q-2 -38 -14 -54q-16 -20 -35 -18q-14 0 -24.5 14.5t-8.5 30.5q-1 7 7.5 18.5t8.5 12.5q1 57 14 119q20 95 23 114q10 80 33 248q8 20 17 57q-13 25 -27 50q-10 21 -10 35q0 41 29 41q9 0 18 -7q6 -6 12 -11q7 6 26 13q26 2 30 -22 q10 -34 -12 -102q17 -42 56 -137q32 -88 105 -270q0 47 12.5 122.5t11.5 123.5q0 40 8 103.5t8 96.5q0 16 -1 32q-4 56 38 56z" />
<glyph unicode="O" horiz-adv-x="628" d="M573 527q11 -34 18 -158q6 -120 -60 -235q-54 -93 -109 -125q-47 -26 -113 -28q-54 -1 -136 40q-25 12 -50 25.5t-38 38.5q-3 8 -10.5 22t-20.5 45q-26 64 -26 126q0 147 78 269q98 154 249 154q68 0 133 -56.5t85 -117.5zM96 312q-1 -19 -1 -44q0 -62 30.5 -113 t86.5 -73q12 -5 28 -5q7 0 19 1t17 1q19 0 27.5 -8t15.5 -30q36 2 52 11q70 38 116 153q40 101 40 199q0 65 -30 127q-23 44 -69 72q-45 25 -92 25q-91 0 -167 -113q-67 -101 -73 -203z" />
<glyph unicode="P" horiz-adv-x="502" d="M125 701q4 -7 13 -22l14 3q54 13 84 13q81 0 153 -55q77 -59 76 -138q-1 -94 -66 -144q-47 -36 -151 -60l-67 -16l-5 -94q-2 -37 -2 -68q0 -12 2 -43q1 -24 0 -43q-4 -60 -43 -60q-38 0 -38 51q0 25 5.5 75.5t5.5 76.5q0 22 2 52q2 35 3 52q-32 4 -30 39q2 26 31 32 q1 55 -8 113q-8 33 -26 106q-15 -10 -32 -8q-30 5 -30 32q0 21 24 37q1 0 22 8q-11 18 -8 38q5 37 35 39q21 1 36 -16zM182 353l26 2q80 6 132 41q62 42 56 106q-5 58 -55 92q-46 32 -109 31q-20 0 -60 -12l-25 -8q23 -115 35 -252z" />
<glyph unicode="Q" horiz-adv-x="641" d="M357 684q9 -4 20.5 -16t18.5 -15q10 -6 62 -25q38 -15 63 -35q43 -36 59 -65q22 -38 22 -100q0 -195 -81 -323l-22 -34l22 -12q6 -2 25 -19q11 -9 22 -17q12 -11 12 -23q0 -43 -35 -43q-19 0 -38 13.5t-36 26.5l-35 22q-64 -35 -133 -35q-128 0 -203 90q-68 82 -68 208 q0 142 78 275q86 146 196 140q28 -2 51 -13zM164 523q-66 -138 -66 -263q0 -83 56.5 -143.5t136.5 -60.5q48 0 66 12l-38 31q-19 15 -19 41q0 39 33 39q21 0 49 -25l44 -39l21 20q16 14 36 53q39 75 41 184q0 11 1.5 33.5t1.5 32.5q0 47 -21.5 79t-64.5 47q-2 1 -75 19 q-18 3 -53 15q-8 4 -16 8.5t-12 12.5q-34 -1 -67.5 -28t-53.5 -68z" />
<glyph unicode="R" horiz-adv-x="505" d="M313 294q22 -69 44 -124.5t44 -109.5q3 -9 27 -58q15 -32 15 -47t-12 -26.5t-27 -11.5q-11 0 -21 8.5t-12 19.5q1 8 -3 23q-11 22 -30 71q-26 71 -34 89q-21 44 -62 144q0 3 -4 11h-16l-69 -4l-21 -91q-8 -32 -14 -67q-3 -26 -14 -85q-14 -58 -52 -52q-31 5 -31 42 q0 15 5 30q20 60 57 235q-23 6 -23 33q0 36 37 36q12 65 12 113q0 21 -4 54.5t-4 53.5q-16 -6 -33 -1q-24 8 -24 25q-6 26 31 43q3 0 11 2.5t12 2.5q-8 20 -2 39q10 31 42 31q20 0 33 -21q8 -14 8 -24l15 1q47 3 84 -3q73 -13 132 -71q63 -61 63 -133q0 -13 -2 -26 q-24 -125 -158 -152zM289 355q107 24 113 104q5 58 -38 100q-40 39 -102 49q-14 3 -30 1q-23 -3 -31 -3l-25 -3v-126q0 -17 -10 -129l27 -2h25q0 8 -3 16q0 20 25 20q32 0 49 -27z" />
<glyph unicode="S" horiz-adv-x="457" d="M346 487q-6 10 -8 37t-10 41q-32 58 -71 58q-34 0 -78 -50q-47 -54 -42 -106q5 -60 109 -142q58 -45 78 -67q33 -37 34 -75q1 -85 -48 -141.5t-127 -56.5q-74 0 -118 41q-42 38 -42 97q0 9 1 18q11 96 47 96q17 0 33.5 -16.5t14.5 -34.5q-2 -17 -13 -34t-9 -31 q3 -28 27 -44.5t56 -18.5q44 -2 73.5 32t24.5 82q-4 29 -27 55q-9 10 -50 44q-65 53 -95 88q-46 54 -46 101q0 85 70 163q67 74 126 73q103 -2 152 -131q2 -5 16 -26q10 -15 9 -28q-2 -19 -14.5 -33.5t-31.5 -14.5q-27 0 -41 24z" />
<glyph unicode="T" horiz-adv-x="581" d="M471 614q-16 0 -40.5 2.5t-39.5 2.5q-16 0 -42 -1h-41q0 -4 1 -11v-10q0 -10 -2.5 -25l-3.5 -21q-2 -31 0 -69q2 -56 2 -68q0 -27 3 -99q1 -56 0 -99q0 -19 -4 -64q-4 -36 -2 -64q0 -6 5 -25q3 -14 1 -25q-9 -54 -40 -54q-18 0 -30.5 12.5t-14.5 30.5q0 7 3.5 18t4.5 15 q2 24 4 51q11 169 7 289q0 13 -2 40q-2 23 -2 40t3 52q2 29 1 51q-1 10 -3 32q-25 -1 -127 -10q-52 -4 -43 -4q-18 0 -33 12t-14 29q2 36 52 36q13 0 34 -4.5t35 -4.5q21 0 48 3q35 4 48 5q7 28 38 26q8 0 15 -7l13 -13q50 -4 101 -1q15 1 44 6q26 5 44 5q58 0 55 -36 q-3 -43 -78 -43z" />
<glyph unicode="U" horiz-adv-x="467" d="M383 695q15 0 27 -11t11 -25q-2 -58 3 -164q5 -123 5 -181q0 -208 -88 -289q-47 -43 -106 -41q-87 3 -137 43q-59 48 -64 160q-5 97 21 196q13 43 36 141q4 26 14 84q6 35 13 61q8 32 46 32q39 0 42 -26q1 -8 -4 -17q-7 -13 -8 -16q-28 -86 -37 -121q-17 -60 -28 -125 q-15 -97 -21 -188q-8 -147 126 -147q61 0 97 77q29 63 25 125q0 50 -2 162q-1 28 -6 102q-5 65 -5 102q0 32 4 43q9 23 36 23z" />
<glyph unicode="V" horiz-adv-x="524" d="M61 699q30 4 43 -34q12 -33 19 -91q1 -44 4 -133q3 -44 18 -147q13 -87 30 -150q21 51 72 162q10 20 42 70q24 39 31 64q10 38 32 82q13 18 37 59q8 21 26 63q15 37 43 37q13 0 24 -11t11 -24q0 -10 -13 -32q-9 -15 -18 -31q-37 -78 -123 -255q-56 -112 -140 -269 q5 -11 7 -50q2 -30 -28 -34q-16 -3 -29 6q-21 -12 -39 2.5t-9 39.5q6 11 20 35q-37 176 -50 309l-12 122q-8 67 -20 120q-9 38 -9 52q0 34 31 38z" />
<glyph unicode="W" horiz-adv-x="720" d="M689 654q-3 -31 -18 -96q-30 -87 -71 -254q-24 -98 -51 -212q9 -24 7 -47q-7 -60 -40 -60q-40 0 -45 51q-2 11 3 25q8 20 9 24q-6 11 -17 35q-22 52 -67 215q-11 41 -46 179q-5 -33 -14 -103q-3 -22 -31 -343q9 -19 6 -43q-6 -41 -34 -46q-33 -6 -54 50q-1 4 -6 36 q-12 37 -39 117q-37 104 -118 343q-1 4 -19 47q-11 25 -10 44q0 17 11 29.5t28 12.5q26 0 41 -31q5 -10 25 -88q16 -62 39.5 -146.5t76.5 -230.5q7 136 26 312q5 44 18 138q9 52 55 61q26 5 43 -40l22 -82q15 -58 49 -189q15 -45 46 -147q10 54 35 176q17 52 49 171 q1 5 7 55q4 31 17 51q8 14 17 27t22 13q36 0 28 -54z" />
<glyph unicode="X" horiz-adv-x="568" d="M542 663q2 -15 -9.5 -28.5t-21.5 -26.5q-19 -29 -52 -63q-38 -40 -54 -62l-66 -89l52 -121q17 -36 54 -116q2 -4 26 -49q14 -27 21 -54q5 -23 5 -38q0 -34 -24 -38q-28 -5 -45 19q-31 44 -44 103q-8 38 -11 49q-7 23 -18 46l-61 124l-28 -36q-36 -48 -128 -198 q-5 -8 -8 -24t-7 -24q-31 -60 -55 -60q-14 0 -24 12q-14 16 -9 54q4 38 28 73t48 68q20 33 59.5 79.5t60.5 78.5l31 51l-42 65q-14 22 -103 154q-23 33 -23 43q0 35 33 39q24 3 42 -21q25 -32 72 -110l61 -101l67 86q31 44 105 130q25 25 43 21q20 -5 25 -36z" />
<glyph unicode="Y" horiz-adv-x="549" d="M224 -14q-10 11 -5 56q3 23 4 296q-10 24 -31 55q-9 12 -77 124q-11 22 -41 69q-13 12 -26 23q-19 17 -19 35q0 28 3 35q6 17 29 19t36.5 -10t35.5 -46q15 -23 29 -55q19 -43 26 -56q28 -53 77 -126q21 37 72 123q57 97 99 157q20 29 50 28q15 -1 21 -7q1 -2 6 -15t5 -23 q0 -14 -12 -27q-18 -20 -20 -22q-43 -63 -87 -126q-55 -80 -79 -136q-5 -13 -7 -33q-2 -28 -6 -43q1 -87 -1 -218q0 -1 3.5 -15t3.5 -25q0 -10 -3.5 -18.5t-7.5 -18.5q-6 -6 -35 -12q-6 -3 -22.5 2.5t-20.5 9.5z" />
<glyph unicode="Z" horiz-adv-x="511" d="M446 559q-46 -77 -148 -252q-36 -58 -114 -196q53 -20 67 -23q30 -9 75 -12q24 0 47 -1q28 0 44 -10q29 -16 29 -17q15 -11 13 -27q-5 -36 -32 -36q-9 0 -19 4q-32 14 -76 17q-54 4 -78 10q-4 1 -32 3q-19 2 -29 10q-3 3 -36 23q-5 -31 -40 -31q-12 0 -20 6 q-22 17 -13 45q-12 0 -35 7q-27 16 -23 42q3 19 26 25q9 3 67 -12q49 89 120 213q45 75 146 242l-22 10q-47 20 -136 28q-31 3 -66 1q-34 -3 -67 -5q-20 -1 -30.5 8.5t-9.5 29.5q0 29 26 33q7 1 54 1q43 0 150 -10q38 -2 129 -18q59 -14 63 -49q1 -15 -9.5 -30t-20.5 -29z " />
<glyph unicode="[" horiz-adv-x="309" d="M158 667q-32 0 -50 12q-11 -19 -1 -86q1 -2 25 -250q3 -69 12 -226q1 -27 1.5 -56t5.5 -36q2 -3 16 -6q12 -3 31 6.5t30 8.5q53 -8 58 -45q4 -26 -29 -36q-15 -4 -63 -8q-20 -1 -32 -1q-51 0 -74 32q-16 23 -17 75q0 40 1 80q0 59 -8 195q-5 26 -13 83q-2 33 -6 106 q-10 143 -9 148q1 20 3.5 40.5t16.5 30.5q8 6 19 7q7 1 20 1q16 -1 23 -1q28 1 58 0q46 -2 46 -42q0 -30 -64 -32z" />
<glyph unicode="\" horiz-adv-x="306" d="M69 704q17 2 30.5 -9.5t17.5 -28.5q19 -100 68 -325q13 -55 46 -159q29 -92 44 -163q2 -12 2 -20q0 -31 -35 -31q-24 0 -34 22q-2 5 -9 42q-14 73 -37 152q-35 119 -42 144q-20 87 -40 173q-22 94 -45 147q-4 9 -4 17q0 36 38 39z" />
<glyph unicode="]" horiz-adv-x="274" d="M37 693q-3 40 44 42q30 1 58 0q7 -1 21 0t21 0q11 -1 20 -8q14 -9 18 -29.5t6 -40.5q6 -42 8 -125q0 -42 -4 -127q-2 -26 -7 -83q-2 -42 1 -98q5 -66 4 -98q0 -18 3.5 -52t3.5 -49q0 -34 -13 -53q-20 -32 -72 -32q-11 0 -31 1q-48 4 -64 8q-33 10 -31 36q4 37 54 44 q12 2 31.5 -7.5t31.5 -6.5q7 1 17 6q3 7 2 37q-1 27 -1.5 55t-4.5 113q-2 63 0 113q4 61 13 195q2 23 -4 79q-6 53 -9 60q-18 -13 -50 -12q-64 1 -66 32z" />
<glyph unicode="^" horiz-adv-x="527" d="M317 668q16 -16 33 -32q18 -21 18 -37q0 -17 -13 -28.5t-32 -11.5q-24 0 -29 15.5t-9 29.5q-10 19 -22 33q-13 -12 -27 -34q-9 -16 -19.5 -32t-30.5 -16q-38 0 -35 40q0 12 20 31q18 16 35 33q3 3 38 44q18 21 25 21t19 -17q18 -27 29 -39z" />
<glyph unicode="_" horiz-adv-x="447" d="M-12 -89q0 15 10 19q6 3 19 3q112 -5 204 -5q147 0 210 3q36 1 34 -26q-1 -17 -11 -21q-4 -2 -20 -2q-45 0 -107 2q-72 2 -108 2q-66 -2 -201 0q-9 1 -19 1q-10 4 -11 24z" />
<glyph unicode="`" horiz-adv-x="471" d="M238 704q61 -28 87 -48q6 -6 6 -18t-4 -19q-7 -23 -29 -19q-11 2 -36 17q-28 16 -45 21q-64 18 -76 34q-7 12 -7 25q0 14 10 29t24 15q12 0 34 -14q29 -20 36 -23z" />
<glyph unicode="a" horiz-adv-x="543" d="M460 458q15 1 29.5 -6t13.5 -18q0 -11 -8.5 -40t-8.5 -48q0 -18 6.5 -44.5t7.5 -43.5q1 -28 -6.5 -68t-7.5 -65q0 -23 10 -100q2 -17 -5.5 -34t-23.5 -17q-30 -2 -39 29q-2 8 -2 34q-35 -17 -69 -34q-43 -17 -106 -17q-64 5 -109 24q-108 45 -108 154q0 118 56 198 q60 86 161 86q103 1 172 -75q0 8 -1 23t-1 22q1 10 5 20q8 18 34 20zM404 322q-30 16 -55 17t-34 5q-18 8 -22 43q-28 2 -52 -3q-126 -24 -136 -202q-4 -74 42 -104q32 -22 104 -26q61 -5 109.5 32.5t58.5 97.5q3 19 0 54q0 71 1 47q-1 24 -16 39z" />
<glyph unicode="b" horiz-adv-x="540" d="M501 168q0 -82 -61 -130.5t-161 -48.5q-94 0 -163 36q1 -17 -10 -30t-28 -13q-35 0 -35 56q0 17 4 47.5t4 50.5q0 29 -4 67q-5 45 -6 66q-2 54 2 139.5t2 136.5q-1 25 -7 49q-11 41 -14 58q-2 13 10 24t26 10q22 -1 29 -31.5t16 -96.5q1 -21 -1 -47q-2 -33 -2 -48 q0 -7 -1.5 -26.5t-0.5 -27.5q1 -12 7 -16t15 -4q10 0 51 15.5t75 16.5q104 4 177 -66q76 -73 76 -187zM262 345q-10 -9 -38 -9q-10 0 -32 1.5t-33 1.5q-24 0 -36.5 -7t-11.5 -31l2 -82q-1 -16 2 -50q9 -59 35 -83q35 -32 123 -32q158 0 158 114q0 80 -55 140q-48 53 -97 56 q-10 -4 -13 -11t-4 -8z" />
<glyph unicode="c" horiz-adv-x="492" d="M431 263q-34 0 -45 25q-9 22 -19 45q-36 45 -108 46q-73 0 -116.5 -54t-43.5 -140q0 -58 34 -93q36 -38 104 -38q46 0 69.5 15.5t38 58.5t42.5 43q17 0 31 -14t14 -31q0 -59 -71 -103q-61 -39 -124 -39q-104 0 -159 60q-49 54 -49 143q0 109 57 179q62 78 171 78 q70 0 130 -30q76 -38 76 -101q0 -50 -32 -50z" />
<glyph unicode="d" horiz-adv-x="533" d="M473 686q42 -4 35 -33q-12 -55 -19 -120q-3 -37 -3 -75q0 -32 3.5 -91.5t3.5 -93.5q0 -27 -1 -54q-5 -32 -11 -103l-4 -89v-30q-3 -15 -28 -15q-15 0 -26 13t-7 28q-71 -42 -154 -38q-105 6 -160 39q-74 44 -74 142q0 102 68.5 177.5t167.5 75.5q22 0 125 -25q9 -2 37 -2 v132q0 25 4 57q6 46 7 55q4 45 36 50zM85 166q0 -62 59 -95q50 -27 124 -27q156 0 158 148l2 115q1 18 -16 28t-37 10q-39 0 -60 -8.5t-28 -8.5q-15 1 -17 9q1 -3 1 19q0 15 -19 15q-61 0 -114 -65t-53 -140z" />
<glyph unicode="e" horiz-adv-x="470" d="M254 459q71 0 117 -63q43 -57 47 -136q1 -16 -8 -30t-24 -14q-11 0 -29.5 3t-29.5 3q-29 1 -67 -2q-49 -4 -67 -4q-87 -2 -91 -2l-2 -30q-3 -45 45.5 -94t101.5 -49q66 0 114 72q25 37 48 33q16 -2 26.5 -14.5t7.5 -27.5q-8 -51 -72.5 -90.5t-131.5 -39.5 q-81 0 -147 66.5t-66 154.5q0 96 65 177q68 87 163 87zM117 281q47 -4 107 -2q33 4 108 10l-3 24q-2 32 -29 56.5t-55 24.5q-42 0 -82.5 -34.5t-45.5 -78.5z" />
<glyph unicode="f" horiz-adv-x="375" d="M243 761q45 0 76.5 -45.5t31.5 -99.5q0 -33 -13 -57q-15 -28 -41 -28q-15 0 -26 11t-12 26q-1 11 13.5 23t14.5 22q0 20 -15.5 48t-31.5 31q-27 4 -60 -33.5t-37 -74.5q-10 -87 12 -158q14 -48 14 -63l65 22q16 8 53 19q27 4 29 3q18 -5 22 -28q3 -19 -11 -33t-34 -18 q-34 -7 -124 -27l2 -55q0 -46 6 -126q6 -91 19 -155q1 -6 1 -11q0 -37 -36 -37q-52 0 -47 61q1 19 1 38q0 29 -5.5 84.5t-5.5 92.5v50q-1 9 -9 37q-2 0 -20 -7q-11 -3 -21 -1q-35 6 -35 28q0 11 22 28q28 23 57 23l-13 91q-6 32 -12 64.5t-4 61.5q5 71 55 130q53 63 119 63z " />
<glyph unicode="g" horiz-adv-x="521" d="M487 422q-6 -21 -23 -93q11 -36 11 -70q0 -12 -3 -28.5t-4 -25.5q-9 -147 9 -200q9 -28 9 -29q0 -2 -1 -63q-1 -85 -65 -145q-67 -63 -168 -63q-149 0 -152 90q-2 49 18 96q19 44 47 42q30 -3 36 -31q3 -15 -18 -46t-21 -47q0 -20 20.5 -32t52.5 -10q108 8 150 60 q33 41 33 111q0 33 -7 80l-8 47l-18 -12q-82 -58 -167 -58q-78 0 -135.5 53t-57.5 129q0 106 60 185q64 84 160 84q44 0 83 -12q44 -16 87 -32q17 51 56 47q8 0 13.5 -9t2.5 -18zM403 329q-11 22 -51 24q-49 3 -57 7.5t-16 20.5q-25 2 -37 1q-68 -5 -110 -69 q-38 -58 -38 -132q0 -112 130 -112q46 0 89 18q59 23 77.5 68.5t18.5 131.5q0 31 -6 42z" />
<glyph unicode="h" horiz-adv-x="451" d="M248 455q140 -6 165 -182q2 -15 2 -51v-135q0 -90 -38 -90q-46 0 -46 57q0 10 2 33q8 115 7 144q-2 72 -15 105q-20 52 -74 52q-70 0 -103 -19q-26 -15 -33 -46q0 -2 -6 -59q-2 -23 -2 -48q0 -23 4 -78q4 -50 3 -84q-1 -29 -12 -49q-12 -25 -35 -23q-18 2 -30.5 16.5 t-11.5 32.5q8 70 16 141.5t7 127.5q0 9 -8 23t-8 23q0 8 7 19.5t7 18.5q1 54 -3.5 135.5t-4.5 121.5q0 32 11 56q14 30 37 24q36 -8 36 -53q0 -23 -6 -69q-6 -42 -4 -72q2 -43 16 -103q51 33 120 31z" />
<glyph unicode="i" horiz-adv-x="189" d="M55 598q0 17 11.5 30.5t27.5 13.5q21 0 40 -15t17 -35q-3 -22 -11 -30q-12 -10 -41 -10q-18 0 -31 14t-13 32zM133 415q1 -23 1 -51q0 -29 -4 -127q-3 -79 -1 -123q1 -10 7.5 -26.5t6.5 -27.5q-1 -75 -49 -78q-16 -1 -28 14t-11 30q2 20 5 65q1 29 0 66q-1 52 -1 68v178 q4 63 45 60q21 -1 26 -17q1 -4 3 -31z" />
<glyph unicode="j" horiz-adv-x="224" d="M203 564q0 -19 -15.5 -34.5t-35.5 -15.5q-52 -2 -57 41q-3 23 16 40t44 16q20 -2 34 -15t14 -32zM188 396q-1 -15 -14 -135l-42 -373q-1 -15 -7 -50q-18 -65 -44 -89q-35 -32 -114 -32q-41 0 -62.5 22.5t-19.5 56.5q2 23 -2 52q-4 35 -4 48q0 14 2.5 29.5t16 27t29.5 9.5 q18 -2 34 -42q13 -32 0 -76q-4 -15 -4 -27q0 -29 25 -28q41 3 60 50q12 30 20 94l38 315q2 14 4 46q0 12 -3 31.5t-3 28.5q0 30 15 61q18 37 44 37q16 0 24.5 -18.5t6.5 -37.5z" />
<glyph unicode="k" horiz-adv-x="438" d="M135 657q7 -17 7 -55q0 -62 -6 -62q-1 1 -1 9q0 -46 1 -103q2 -80 2 -102l38 10q2 27 28 31q7 1 14 -1q11 -4 15 -5q12 13 38 41q13 18 44 57q10 16 20.5 33.5t26.5 16.5q18 0 30.5 -13.5t12.5 -31.5q0 -17 -21 -43.5t-76 -81.5l-41 -41l45 -76q18 -32 36 -77 q23 -58 33 -79q3 -6 14.5 -15.5t13.5 -16.5t2 -13q0 -21 -14.5 -37.5t-34.5 -17.5q-29 -1 -38 44q3 9 0 29q-15 36 -55 114l-68 120q-22 -7 -67 -19q-5 -57 -6 -98q4 -48 7 -161q-1 -24 -5 -32q-8 -17 -33 -17q-42 0 -44 42q-2 22 2 47q4 33 5 45q3 81 2 164q-14 1 -23 12.5 t-8 25.5q0 17 37 32v47l-4 208q-2 29 -6 95q-2 56 42 57q37 1 37 -38q0 -8 -1 -22.5t-1 -21.5z" />
<glyph unicode="l" horiz-adv-x="161" d="M127 637q0 -35 -8 -107.5t-7 -109.5l3 -181q0 -17 2 -54q1 -32 1 -56q0 -45 -1 -111q-1 -36 -29 -36q-39 0 -42 51q0 26 -1 87q-3 106 -3 93v207q0 41 3 131q-1 29 7 102q11 49 41 49q34 0 34 -65z" />
<glyph unicode="m" horiz-adv-x="565" d="M141 408q27 16 54 31.5t57 15.5q59 0 83 -71q15 29 30 41q19 15 52 15q53 0 85.5 -44.5t31.5 -100.5q-1 -44 -13 -95q0 -14 -1 -45q-1 -17 -13 -48q-10 -26 -8 -47q4 -36 4 -27q0 -19 -13 -32.5t-31 -13.5q-35 0 -40 30q-3 13 0 27t6 28.5t13 39t13 41.5q1 7 4 66 q5 100 5 93q0 17 -11.5 35t-23.5 18q-22 0 -44 -37q-9 -15 -15 -60q2 -25 0 -82q-3 -13 -8 -42q-3 -33 -12 -105q-7 -45 -43 -45q-17 0 -29.5 12.5t-10.5 28.5q11 39 29 130q1 28 5 91q-21 11 -21 43q0 9 6 18q10 15 11 16q-14 16 -28 31.5t-25 13.5q-21 -4 -59 -25l-46 -27 q-4 -20 -10 -65q-9 -109 -9 -164v-80q-2 -21 -16 -36.5t-33 -13.5q-16 2 -28 16t-10 30q8 25 22 84q5 32 5 130q0 26 -2 70q-20 8 -20 29q0 34 31 37q-9 21 -4 41t10 26q8 11 28 11q37 0 42 -33z" />
<glyph unicode="n" horiz-adv-x="442" d="M107 404q52 53 135 53q69 0 114 -39q11 -10 29 -41q15 -25 19 -53q3 -16 0 -37q-4 -31 -4 -39q-4 -124 0 -176q0 -4 4 -22q2 -11 0 -21q-8 -35 -38 -40q-22 -3 -33 23q-5 13 -11 51q-2 16 4 39.5t7 36.5l2 143q0 -5 -2 38q0 10 -5 29q-5 12 -19 30q-23 18 -57 18 q-20 0 -69 -22q-24 -11 -48 -38q-10 -6 -26 -23q-6 -15 -7 -34q1 -18 1 -36l-4 -215q1 -15 -2 -44q-8 -21 -32 -21q-29 0 -34 23q-3 9 0 23q3 19 3 26l2 303q0 22 2 69q3 36 31 36q15 0 27.5 -12.5t10.5 -27.5z" />
<glyph unicode="o" horiz-adv-x="568" d="M368 440q4 -1 56 -16q34 -9 54 -26q37 -32 53 -84q7 -26 7 -51q0 -27 -14 -82q-24 -97 -90 -149q-72 -57 -165 -57q-113 0 -174 59q-37 35 -52 79q-11 36 -14 98q-3 104 38 164q37 52 106 80q57 23 110 19q31 -3 46 -9q11 -5 39 -25zM356 379q-20 -5 -44 -2q-33 4 -55 29 q-20 -5 -59 -23q-37 -21 -64 -74q-28 -56 -28 -115q0 -64 47 -107.5t112 -44.5q90 -1 156 103q33 52 35 143q1 70 -100 91z" />
<glyph unicode="p" horiz-adv-x="524" d="M261 3q-35 2 -75.5 17.5t-50.5 15.5q-9 0 -15 -4t-7 -17q-1 -8 0 -26q2 -22 2 -30q0 -15 2 -49q2 -28 1 -49q-2 -31 -16 -99q-7 -33 -29 -35q-15 0 -27 11t-9 25q6 34 6 63q-1 52 -1 54l12 281q1 22 5 69q4 40 4 70q0 20 -3.5 52t-3.5 49q0 28 4 39q7 19 31 19 q17 0 28 -13.5t9 -30.5q69 37 164 37q96 0 148 -56.5t52 -146.5q0 -119 -66 -186q-62 -64 -165 -60zM292 59q52 0 89 50q40 54 40 140q0 136 -136 136q-87 0 -122 -33q-26 -25 -36 -87q-4 -27 -3 -88q2 -71 12 -82q11 -14 51 -14h19q12 1 18 1q34 0 44 -10q4 -4 24 -13z" />
<glyph unicode="q" horiz-adv-x="505" d="M32 263q0 87 54 137.5t151 50.5q92 0 159 -36q-2 17 9.5 30.5t28.5 13.5q34 0 34 -58q0 -18 -3.5 -50t-3.5 -51q0 -113 1 -140q2 -56 -2.5 -145t-2.5 -141q0 -6 3 -38q21 9 52 38l54 58q40 39 64 39q32 0 36 -15t4 -17q0 -18 -19 -37q-9 -8 -42 -28q-29 -18 -43 -34 q-29 -37 -63 -79q-20 -14 -55 -41q-13 -11 -26 -11q-17 0 -25.5 18t-8.5 33q0 19 13 31q0 -3 -4 69q-1 21 1 49q3 34 3 49q0 6 1 30q2 18 0 26q-1 13 -7 18q-20 -9 -41 -16q-50 -16 -95 -18q-99 -4 -163 70t-64 195zM245 82q8 8 29 8q11 0 35.5 -2.5t35.5 -2.5q26 0 35 10 q14 15 18 82q3 59 -1 87q-10 62 -35 87q-34 33 -119 33q-156 0 -156 -119q0 -83 50 -145q44 -56 91 -59q11 4 13 10t4 11z" />
<glyph unicode="r" horiz-adv-x="407" d="M285 343q-15 43 -42 43q-48 0 -88.5 -45t-39.5 -101l1 -178q0 -45 -2 -53q-8 -27 -42 -27q-29 0 -35 26q-1 5 -1 49v287q0 27 3 38q10 35 11 37q11 18 39 17q21 -1 27 -9q2 -4 5 -23q41 28 62 37q31 14 68 14q62 0 97 -65q30 -58 26 -131q-1 -17 -11.5 -30.5t-26.5 -13.5 q-42 0 -39.5 44.5t-11.5 83.5z" />
<glyph unicode="s" horiz-adv-x="442" d="M237 -23q-81 0 -138 36q-65 41 -65 112q0 17 10 30.5t25 13.5q30 0 39 -45q17 -79 126 -79q55 0 79 15t24 51q0 33 -28 73q-26 37 -52 47q-19 6 -52 9q-53 3 -60 4q-100 13 -105 96q-3 48 52 83q51 33 111 33q63 0 109 -22q53 -24 53 -67q0 -35 -38 -35q-17 0 -29 15 q-17 22 -26 28q-23 16 -69 16q-34 0 -61 -15q-30 -17 -30 -43q0 -21 77 -26q95 -6 115 -15q46 -22 74 -72.5t28 -110.5q0 -132 -169 -132z" />
<glyph unicode="t" horiz-adv-x="423" d="M255 659q0 -21 -7 -49q-8 -32 -9 -49v-73l68 -6q12 -1 29.5 3t27.5 3q26 0 34 -12q5 -8 4 -29q-1 -36 -47 -36q-9 0 -23.5 4t-24.5 4l-71 3q0 -35 -3 -91q1 -56 2 -153q-1 -19 6 -139q3 -46 -38 -48q-30 -2 -40 19q-5 12 -4 42q2 87 4 282v82l-76 -2q-22 -1 -39 9.5 t-17 30.5q0 38 64 33l71 -5q1 26 3 85q-1 28 4 92q6 36 44 40q36 3 38 -40z" />
<glyph unicode="u" horiz-adv-x="457" d="M398 461q0 -6 8 -208q20 -25 19 -35q-7 -29 -16 -95q0 -13 4 -33t4 -29q0 -12 -4 -23q-3 -16 -7.5 -31t-30.5 -16q-33 -2 -38 31q-53 -47 -144 -47q-97 0 -136 53q-30 41 -30 124q0 63 15 113q10 35 42 101q8 18 16.5 36t21.5 31q6 7 11.5 14t20.5 8q17 1 31.5 -12.5 t10.5 -28.5q-7 -29 -30 -61q-25 -35 -32 -55q-19 -51 -24 -72q-8 -34 -9 -82q-1 -52 8 -68q16 -30 80 -30q117 0 138 107q5 24 7 71q1 61 -10 177q0 4 -6 27q-3 15 0 27q13 47 44 44q33 -3 36 -38z" />
<glyph unicode="v" horiz-adv-x="461" d="M107 425q1 -1 28 -57l113 -233l91 221q3 8 5 30q2 19 10 29q20 26 42 25q17 -1 27.5 -16t10.5 -35q0 -11 -13 -32q-18 -32 -21 -39l-114 -263q6 -20 -2 -40q-15 -39 -48 -36q-30 3 -38 44q-1 7 0 17q2 12 2 17l-25 55l-99 212q-9 15 -25 49q-1 1 -17 23q-9 13 -7 25 q8 38 46 35q25 -2 34 -31z" />
<glyph unicode="w" horiz-adv-x="761" d="M109 414q17 -21 37 -64q36 -77 36 -78q22 -43 70 -136l72 192q9 17 20 54q2 21 15.5 37.5t31.5 16.5q27 -1 34 -32q5 -20 -6 -38q16 -28 57 -107q22 -41 66 -133q20 50 55 143q12 36 43 116q5 12 8 29q1 12 8 19q17 16 35 16q40 0 40 -45q0 -14 -6 -25q-27 -54 -76 -164 q-34 -79 -72 -168q6 -23 -7 -44.5t-37 -21.5q-30 0 -41 35q-6 17 0 35q-42 98 -108 224q-9 -20 -28 -63q-22 -49 -70 -158q3 -20 -3 -38q-13 -40 -44 -40q-36 0 -40 43q-1 6 -5 26q-4 15 -2 28q-45 97 -133 293q-36 10 -36 51q0 19 11.5 34t29.5 16q24 2 33 -17z" />
<glyph unicode="x" horiz-adv-x="467" d="M427 423q-6 -26 -46 -70q-54 -58 -69 -81l-26 -38l57 -74q23 -29 71 -99q19 -33 17 -46q-7 -36 -42 -36q-15 0 -41 32q-8 10 -14 27q-7 21 -12 29q-16 29 -31 49l-49 61l-82 -93l-36 -44q2 -30 -20 -48t-51 -13q-18 3 -21 27q-2 14 10 36q3 6 33 29q6 9 20 28 q21 24 64 79l39 58l-32 82q-9 12 -26 41l-14 26t-7 24q0 18 13 33.5t30 14.5t34 -40l55 -126q12 18 37 58q17 27 51 73q29 42 55 37q15 -3 25.5 -13t7.5 -23z" />
<glyph unicode="y" horiz-adv-x="454" d="M414 415q3 -22 2 -52q-2 -28 -3 -56q-1 -43 -9 -139q-2 -14 -8 -48q10 -14 10 -29q0 -9 -5 -17q-9 -14 -9 -15l-5 -46q0 -14 -4 -42q-38 -234 -234 -232q-59 0 -99.5 32t-40.5 80q0 36 13 64q17 36 50 34q17 0 20 -13q0 -12 1 -24q1 -11 -7.5 -25t-7.5 -24q4 -55 65 -57 q71 -1 122 51t51 124v36q-55 -43 -124 -38q-104 7 -138 71q-21 40 -22 139q-2 174 65 238q28 27 44 25q29 -5 31 -36q0 -18 -12 -28q-18 -14 -21 -20q-21 -39 -30 -120q-14 -126 9 -171q9 -19 61 -26q14 -2 28 -2q67 0 100 48q19 27 24 69l10 108q3 32 1 83q0 6 -4 25 q-4 14 -1 24q11 47 38 47q33 0 39 -38z" />
<glyph unicode="z" horiz-adv-x="407" d="M179 419q32 -2 73 5q30 5 60 11q20 3 37.5 -11t17.5 -34q0 -9 -5 -24q-6 -20 -7 -27q-2 -11 -24 -55q-24 -37 -74 -124q-16 -30 -51 -98q32 -3 57 0q8 1 30 8q17 5 30 4q25 -4 34 -7q16 -7 20 -23q7 -32 -53 -44q-28 -6 -55 -6q-16 0 -49.5 3.5t-55.5 3.5 q-1 -12 -11.5 -28t-14.5 -20q-8 -8 -21 -9q-42 -4 -42 43q-5 -1 -9 -1q-27 0 -33 28q-8 30 30 44q29 11 51 -6q8 11 25 36q10 17 30 48q15 21 44 69q24 48 44 103q6 16 17 48q-16 2 -50 4q-18 -2 -57 -2q-35 -1 -68 3q-48 7 -53 35q-3 21 8 34.5t32 13.5q15 0 45 -12t48 -13 z" />
<glyph unicode="{" horiz-adv-x="344" d="M298 617q-7 -3 -19 -1q-13 2 -19 1q-15 -2 -20 -4q-10 -4 -16 -12q-13 -19 -22 -95q0 -3 -2 -109q1 -21 -2 -68q-4 -20 -11 -30t-15 -20q1 -37 0 -75q-1 -29 -10 -76.5t-9 -75.5t11 -48q12 -23 35 -23q11 0 38 10t44 11q14 1 22.5 -11.5t8.5 -27.5q0 -27 -32 -39 q-17 -6 -62 -11q-53 -6 -90 32t-44 100q-5 49 2 99q4 17 10 48q1 13 -1 30q-1 22 -1 32q-5 -1 -35 8q-22 7 -26 9q-11 7 -11 23q0 21 44 28q17 2 32 4t24.5 12.5t11.5 25t4.5 31t1.5 53t2 54.5q3 27 7 69q2 16 10 52q26 74 97 73q64 -1 67 -31q4 -36 -25 -48z" />
<glyph unicode="|" horiz-adv-x="224" d="M104 697q30 0 41 -49q6 -26 7 -52v-48q3 -87 3 -128v-203v-119q-1 -65 -4 -162q-3 -50 -43 -50q-27 0 -28 36q0 28 4 108.5t4 98.5q0 21 -3 56.5t-3 56.5l3 178q1 37 -7.5 107.5t-8.5 105.5q0 64 35 64z" />
<glyph unicode="}" horiz-adv-x="372" d="M95 665q7 30 71 31q70 1 88 -72q-1 -16 1 -50q-1 -8 1.5 -31t2.5 -28q1 -12 -4 -47q-6 -44 -8 -69q-2 -39 9 -53q8 -10 23.5 -12.5t31.5 -4.5q41 -6 41 -28q0 -14 -14 -21q-3 -2 -27 -9q-31 -10 -36 -9q-5 -19 -10 -61q0 -7 2 -29q2 -25 2 -30q1 -41 -9 -84 q-15 -61 -56.5 -98.5t-94.5 -32.5q-88 9 -88 46q0 8 3 18q10 27 33 25q17 -2 43 -11.5t37 -9.5q22 0 38 23q13 19 17 46q3 29 0 73q-3 48 0 77q1 22 8 73q-7 10 -13 19.5t-7 30.5q-1 30 9.5 88t10.5 83q0 73 -14 95q-6 11 -34 15q-13 -3 -38 0q-21 10 -21 34q0 6 2 13z" />
<glyph unicode="~" horiz-adv-x="524" d="M299 440.5q8 -8.5 13 -14.5q13 9 23 25q3 10 13 28q14 16 30 16t28 -11t9 -25q-3 -15 -30 -50q-22 -28 -47 -45q-21 -14 -41 -5q-17 7 -27 21q-14 19 -27 39l-35 -25q-5 -18 -20.5 -29.5t-32.5 -8.5q-30 5 -30 33q0 8 15 27q10 7 32 24q8 13 31 36q30 21 43 20 q14 -2 22 -13.5t15.5 -22.5t15.5 -19.5z" />
<glyph unicode="&#xa1;" horiz-adv-x="230" d="M126 337q-20 0 -35.5 13t-15.5 33q0 24 18.5 39t43.5 15q42 0 42 -52q0 -21 -16 -34.5t-37 -13.5zM127 308q16 -1 25.5 -15t7.5 -31q-12 -125 -37 -319q-4 -27 -11 -87q-2 -34 -9 -102q-5 -33 -25 -33q-40 0 -49 34q-2 8 2 21q5 19 6 22q4 37 12 119q4 29 38 251 q3 17 1 47q-2 36 -2 46q1 21 12.5 35t28.5 12z" />
<glyph unicode="&#xa2;" horiz-adv-x="451" d="M312 578q-11 -23 -15 -61q55 -3 84 -26q44 -36 41 -80q-1 -21 -2 -41q-5 -20 -34 -21q-30 0 -32 38q-1 23 -2 28q-3 14 -11.5 23.5t-23 12t-28.5 4.5q-4 -24 -12 -76q-1 -35 -6 -114q-9 -36 -23 -116q16 13 33.5 26.5t32.5 13.5q16 0 29.5 -13.5t13.5 -29.5 q0 -25 -58 -54q-32 -17 -67 -15q9 -28 1 -55l-10 -36q-8 -17 -35 -14q-23 1 -25 19.5t-2 36.5q-2 29 5 44q-62 12 -101 50q-42 41 -41 96q2 70 46 145q40 69 93 110q14 10 54 23q11 21 14 43q6 31 8 39q5 17 11.5 34.5t22.5 18.5q15 0 28 -12.5t13 -27.5q0 -7 -2 -13z M128 325q-38 -69 -44 -118q-1 -12 11 -22t24 -19q29 -21 59 -25q16 78 22 137q5 45 11 147q-41 -26 -83 -100z" />
<glyph unicode="&#xa3;" horiz-adv-x="502" d="M317 460q-17 -1 -28 14.5t-12 34.5q-1 29 23 53q-7 29 -29.5 49.5t-48.5 20.5q-54 -2 -71 -19q-7 -7 -7 -26q0 -15 6 -55t7 -59q2 -44 8 -140q19 3 61 10q26 8 85 17q19 1 35.5 -9.5t16.5 -29.5q0 -33 -40 -39q-20 -3 -36 2q-21 -4 -69 -12q-17 -5 -55 -12q0 -3 -9 -39 q-6 -21 -6 -39q0 -13 -1 -45q-2 -25 -1 -45q46 -2 148 -10q34 -3 126 -19q50 -10 46 -47q-2 -18 -15 -29t-29 -8q-49 14 -160 37q-89 11 -124 7q-8 -43 -32 -46q-14 -2 -28 7t-16 24q-33 0 -33 29q0 33 46 48q4 27 10 87q3 27 7 88q-9 -1 -18 -1q-46 0 -52 32q-4 21 14.5 35 t44.5 14q7 0 15 -1q0 34 -4 101q-2 28 -11 82q-8 47 -8 75q0 44 49 78q45 31 89 30q61 -1 108 -52.5t49 -116.5q1 -29 -13 -52t-38 -24z" />
<glyph unicode="&#xa4;" horiz-adv-x="536" d="M485 512q2 -14 -10 -26q-20 -21 -21 -23q53 -48 59 -118q1 -21 -17 -66q-24 -57 -63 -98q29 -4 29 -34q0 -31 -40 -33q-11 -1 -23 7l-21 14q-62 -34 -120 -32q-66 3 -98 19q-24 16 -47 32q-13 -23 -42 -21q-18 1 -31 11.5t-12 26.5q2 10 13.5 16.5t22.5 12.5 q-33 55 -31 118q1 61 19.5 90.5t36.5 44.5q-14 10 -23 26q-13 25 -8 35q13 26 48 21q12 -2 20 -13q14 -19 16 -21q60 49 133 51q71 1 130 -40q10 22 32 27q29 6 40 -6q8 -10 8 -21zM271 491q-66 0 -127 -67q-57 -62 -57 -104q1 -68 49.5 -114.5t117.5 -47.5q102 -1 162 109 q26 50 26 85q0 9 -1 19q-5 41 -64 80.5t-106 39.5z" />
<glyph unicode="&#xa5;" horiz-adv-x="555" d="M224 288l1 47q-10 24 -31 53q-15 20 -77 121q-11 23 -41 69q-13 11 -26 23q-18 16 -18 34q0 28 2 35q6 17 29 17q25 0 37.5 -11t34.5 -43q15 -23 29 -54q19 -42 27 -56q25 -47 76 -123q18 32 72.5 122.5t98.5 152.5q19 27 50 27q15 0 21 -6q0 -1 5.5 -14.5t5.5 -23.5 q0 -14 -11 -26q-19 -21 -21 -23q-46 -64 -92 -129q-59 -83 -77 -136q-6 -17 -6 -43q11 0 32.5 3t32.5 3q62 0 62 -44t-57 -44h-21q-15 1 -21 1q-7 0 -18 -1h-16v-42q8 1 13 1t22.5 1t27.5 1q63 0 63 -41q0 -29 -56 -40q-10 0 -27 2.5t-28 2.5h-14v-39l3.5 -14t3.5 -24 q0 -11 -3.5 -19.5t-7.5 -18.5q-6 -6 -35 -12q-7 0 -23 4.5t-20 7.5q-6 7 -7 17q-1 7 0 19q2 14 2 19q0 13 1 26v23v1q-12 0 -34 -4t-33 -4q-59 0 -59 42q0 43 54 43q7 0 20.5 -1t18.5 -1q8 0 19 1t15 1l1 41h-20q-6 0 -24.5 -1.5t-29.5 -1.5q-65 0 -65 43q0 30 59 42 q12 2 28 -1q20 -5 29 -5h23z" />
<glyph unicode="&#xa6;" horiz-adv-x="224" d="M107 317q17 0 33 -24q13 -21 15 -36l6 -46q5 -34 3 -46l-9 -82v-44q-1 -24 -2 -47q-9 -37 -45 -37q-26 0 -26 87q0 9 3 26t3 26v74q0 29 -9 86q-3 18 3 38q8 25 25 25zM104 712q16 0 32 -25q14 -20 16 -35q3 -35 3 -51v-82v-47l-2 -48q-9 -37 -45 -37q-26 0 -26 88v54 l3 72q1 10 -3 24q-5 18 -6 23q-3 19 3 39q8 25 25 25z" />
<glyph unicode="&#xa7;" horiz-adv-x="423" d="M323 257l13 -12q50 -45 51 -128q2 -68 -45 -107.5t-130 -35.5q-81 3 -131 37q-59 41 -57 117q1 30 29 34q29 4 38 -54q10 -72 124 -70q55 1 76.5 16.5t25.5 53.5q3 28 -12 58q-18 36 -54 59q-4 3 -11 8q-19 -3 -96 9q-106 16 -103 86q2 44 47 77q39 30 97 42q21 5 48 3 q41 -4 48 -4q-18 25 -49 43q-12 7 -52 9q-48 2 -67 6q-82 18 -80 81q1 47 47 83t101 34q66 -2 118 -24q57 -25 59 -61q1 -35 -23 -35q-18 0 -24 3q-12 7 -31 36q-12 19 -67 21q-47 2 -78.5 -16t-31.5 -41q0 -24 91 -21q52 2 110 -44q74 -58 75 -133q1 -48 -11.5 -75 t-44.5 -55zM309 367q-4 23 -75 23q-16 0 -29 -2q-26 -4 -56 -22q-11 -7 -22.5 -14.5t-14.5 -18.5q-6 -19 39 -29q36 -7 83 -7q31 0 56 21t19 49z" />
<glyph unicode="&#xa8;" horiz-adv-x="527" d="M244 682q1 -21 -16 -35.5t-39 -14.5q-21 0 -38.5 13t-17.5 33q-2 48 62 48q17 0 33 -13.5t16 -30.5zM407 691q0 -22 -16 -36.5t-37 -14.5q-20 0 -37.5 14.5t-18.5 32.5q-1 21 14 35t36 14q22 0 40.5 -13t18.5 -32z" />
<glyph unicode="&#xa9;" horiz-adv-x="623" d="M362 681q34 9 45 9q13 0 45 -12q83 -31 110 -106q19 -52 19 -110q0 -103 -52 -183q-56 -86 -150 -107q-40 -9 -81 -9q-93 0 -159 43q-74 49 -90 140q-4 26 -4 53q0 109 60.5 202t139.5 103q27 3 45 3q30 0 44.5 -8.5t27.5 -17.5zM259 652q-66 -9 -115.5 -84.5 t-49.5 -166.5q0 -24 4 -46q12 -68 73 -107q57 -38 132 -38q30 0 58 7q78 17 124 90q42 68 42 154q0 50 -15 94q-14 36 -35 53q-13 10 -51 24q-29 10 -52 10q-19 0 -43 -6q-7 3 -12 11t-21 8q-13 0 -39 -3zM426 461q-27 -2 -34 33q-5 22 -26 29q-9 3 -41 5q-51 4 -79 -33 q-23 -32 -24 -82q-1 -39 23 -59.5t59 -18.5q49 2 63 39q9 21 10 22q7 10 26 10q28 0 25 -33q-3 -40 -40.5 -67t-85.5 -28q-57 -1 -95 31q-41 33 -44 92q-4 85 45.5 138.5t123.5 45.5q110 -12 122 -88q5 -34 -28 -36z" />
<glyph unicode="&#xaa;" horiz-adv-x="309" d="M212 455q-35 -25 -78 -23q-44 2 -75 32t-34 74q-3 60 28.5 103t84.5 43q17 0 36 -7q29 -12 35 -14q0 12 8.5 18.5t23.5 6.5q11 0 20 -7.5t9 -18.5q0 -5 -5 -18t-5 -21q0 -7 3 -19t3 -17q-2 -24 -2 -78q1 -5 4 -17t3 -20q-1 -12 -2.5 -23t-9 -13t-12.5 -2q-23 0 -35 21z M283 376q0 -13 -13 -24t-26 -11q-6 0 -19.5 5t-21.5 5q-15 -5 -50 -12q-28 -3 -82 -5q-43 -2 -43 33q0 30 51 32q7 0 17.5 -3t16.5 -3q12 -1 27 1q20 3 28.5 3t25.5 3.5t25 3.5q10 0 20 -3q15 -2 29.5 -5t14.5 -20zM145 622q-27 0 -43.5 -24t-12.5 -53q8 -52 47 -52 q70 0 70 60q0 25 -15 45q-19 24 -46 24z" />
<glyph unicode="&#xab;" horiz-adv-x="543" d="M477 427q0 -2 -12.5 -28t-34.5 -49q-38 -40 -39 -42q-20 -24 -83 -94q3 -2 76 -51q28 -16 93 -65q13 -11 26.5 -23.5t13.5 -25.5q0 -5 -2 -10q-9 -23 -42 -30q-20 -3 -39 12.5t-37 30.5q-18 11 -43.5 36.5t-42.5 36.5q-24 15 -59 34q-42 22 -38 48q1 9 7.5 16t14.5 15.5 t28 32.5q26 27 80 90q13 21 47 63q9 12 19.5 24t24.5 12t28 -9.5t14 -23.5zM291 411q0 -2 -13 -28t-35 -49q-38 -40 -39 -41q-20 -25 -82 -95q3 -2 76 -51q28 -16 93 -65l26 -22q13 -14 13 -27q0 -5 -2 -10q-8 -23 -42 -29q-20 -4 -39 11.5t-36 30.5q-18 11 -43.5 36.5 t-43.5 36.5q-23 15 -59 34q-41 22 -38 49q2 8 8.5 15t12.5 14q10 11 30 34q26 27 80 90q13 21 46 63q10 12 20.5 24t23.5 12q15 0 29 -9.5t14 -23.5z" />
<glyph unicode="&#xac;" horiz-adv-x="669" d="M551 52q7 21 15 69q2 16 3 33t-9 27q-16 17 -71 21q-17 1 -87 1q-14 0 -91 -3q-64 -3 -177 -16q-29 -3 -48 -3q-66 0 -63 38q2 23 32 28q3 1 49 2q14 0 23 2q58 9 118 10h113q32 2 65 4q35 2 65 -1t61.5 -7t52 -26t24.5 -53q2 -14 0 -63q-2 -80 -3 -85q-8 -44 -41 -42 q-35 3 -35 32z" />
<glyph unicode="&#xae;" horiz-adv-x="631" d="M425 666q35 0 46.5 -3.5t39.5 -22.5q72 -50 78 -131q1 -12 1 -24q0 -123 -78 -218q-84 -101 -203 -96q-109 4 -186 61q-87 65 -87 169q0 105 78 208q84 111 186 111q9 0 18 -1q59 -8 80 -24q13 -14 27 -29zM318 664q-8 1 -15 1q-73 0 -141.5 -75t-76.5 -170 q-7 -83 63 -142q65 -56 156 -60q104 -4 175 91q67 90 58 196q-3 39 -19 61q-11 14 -43 36q-41 29 -92 29q-5 9 -11 18t-54 15zM233 282q-20 6 -20 30q0 12 5 26q1 16 10 48q-10 6 -11 23q-2 22 18 29l24 121q-9 16 -8 20q4 33 35 39q13 2 29 -8q21 -12 23 -12q21 -8 37 -20 q24 -19 29 -47q7 -39 -13 -67q-10 -17 -25 -27q14 -11 24.5 -28.5t21.5 -76.5q3 -18 -5.5 -33.5t-24.5 -15.5q-13 0 -19 15t-11 30t-17 49q-4 8 -16 26l-38 -7l-4 -56q0 -14 1 -27q-1 -16 -10 -22q-16 -15 -35 -9zM298 475q15 -3 27.5 5.5t14.5 22.5q4 32 -26 38z" />
<glyph unicode="&#xaf;" d="M328 519q-16 2 -69 -11q-62 -14 -146 -14q-49 0 -49 34q0 19 18 31.5t42 12.5q21 0 35 -9t15 -9q30 0 93.5 16t80.5 16q52 0 52 -39q0 -38 -59 -31q-3 0 -7 1.5t-6 1.5z" />
<glyph unicode="&#xb0;" horiz-adv-x="343" d="M256 665q1 -32 -21 -55.5t-53 -23.5q-30 0 -59 22.5t-28 54.5q0 28 29 51q26 21 48 20q34 -2 58.5 -20.5t25.5 -48.5zM139 667q-2 -15 12 -25.5t31 -10.5q13 0 24.5 7t11.5 19q0 13 -17.5 24t-31.5 12q-22 4 -30 -26z" />
<glyph unicode="&#xb1;" horiz-adv-x="420" d="M29 49q0 19 18.5 23t37.5 7q12 2 28 -1q20 -4 29 -4q37 0 94 9.5t83 9.5q65 0 65 -32q0 -45 -56 -45q-8 0 -22 1t-21 1q-33 0 -68 -4.5t-69 -4.5q-6 0 -24.5 -1t-29.5 -1q-65 0 -65 42zM240 465q0 -9 2 -25t2 -24q0 -11 -3 -22q36 -5 48 -2q13 2 42 11q23 6 41 6 q12 0 21 -10t9 -22q0 -29 -33 -39q-14 -5 -72 -10q-19 -2 -59 -5q-2 -15 -5 -46q-6 -74 -6 -110q0 -41 -38 -41q-36 0 -36 47q0 18 7 44q8 30 9 45q4 35 4 61q-26 -2 -80 -17q-22 -8 -36 -8q-22 0 -26 23q-2 8 -2 15q0 21 17 27q6 2 33 4q30 7 95 15q0 23 -3 51q-5 37 -6 55 q-1 20 10.5 36.5t32.5 16.5q36 0 36 -34q0 -7 -2 -21t-2 -21z" />
<glyph unicode="&#xb2;" horiz-adv-x="252" d="M92 537q-40 0 -40 48q0 41 28.5 70.5t68.5 29.5q32 0 54 -23t22 -54q0 -53 -24 -96q-19 -33 -67 -81l-15 -15h28q6 0 18 1t18 1q28 0 30 -24t-27.5 -26.5t-58.5 -3.5q-6 -1 -33 -6q-21 -5 -33 -5q-23 0 -30 16q-4 7 -4 13q0 17 26 38q34 29 41 38q40 55 50 72 q22 39 22 76q0 17 -3 21t-16 4q-28 0 -35 -28q-2 -6 2.5 -16.5t3.5 -17.5q-5 -32 -26 -32z" />
<glyph unicode="&#xb3;" horiz-adv-x="243" d="M215 597q7 -59 -44 -100q40 -30 40 -75q0 -46 -30 -78.5t-75 -32.5q-35 0 -59 22.5t-24 54.5q0 20 13 35.5t32 15.5q25 0 31 -27q2 -10 -4 -20q-9 -16 -10 -19q13 -2 20 -1q41 5 41 51q0 12 -14 34q-5 6 -33 9q-22 2 -22 29q0 18 31 37q36 22 46 46q2 5 -1.5 14t-4.5 12 v9q-1 5 -1 9q-18 5 -34 0q-5 -1 -12 -35t-29 -34q-32 0 -32 46q0 35 27.5 60t64.5 25q72 0 83 -87z" />
<glyph unicode="&#xb4;" horiz-adv-x="514" d="M354 697q0 -13 -8 -25q-12 -16 -75 -34q-18 -5 -44.5 -20.5t-37.5 -17.5q-22 -4 -29 19q-4 7 -4 19q1 12 6 18q26 20 87 48q7 3 36 23q22 14 34 14q14 0 24.5 -15t10.5 -29z" />
<glyph unicode="&#xb6;" horiz-adv-x="558" d="M405 2q-5 14 -5 34q0 12 2 30.5t2 21.5q-10 184 -6 264q5 101 23 202l-46 4q-24 -109 -30 -206q-5 -87 7 -264q2 -20 6 -65q2 -50 -8 -65q-6 -9 -26 -11q-27 -1 -35 23q-2 7 -5 47q-1 22 0 51q2 38 2 52q0 28 -1 65q-2 45 -3 66l-46 10q-99 23 -148 61q-65 51 -63 141 q2 83 63 139.5t146 58.5q44 1 86 -15q7 28 38 27q15 -1 25 -14.5t6 -29.5l55 -4q7 21 31 21q10 0 21 -7q17 -10 10 -35q25 -13 18 -42q-6 -24 -31 -26q0 -3 -11 -44q-12 -44 -15 -63q-6 -39 -8 -130q-2 -92 8 -253q17 -39 13 -55q-9 -35 -40 -33q-14 1 -23 15zM303 575 q-20 6 -61 19q-53 6 -103 -32t-53 -95q-3 -56 53 -102q50 -41 99 -41h44q0 38 5 118q3 45 16 133z" />
<glyph unicode="&#xb7;" horiz-adv-x="186" d="M148 366q0 -26 -16 -45.5t-40 -19.5q-18 0 -29 19q-10 16 -10 38q-1 28 17.5 49t44.5 21q33 0 33 -62z" />
<glyph unicode="&#xb8;" d="M263 -196q-16 -3 -32 -3q-66 0 -103 50q-6 9 -6 19q0 11 9 19.5t21 8.5q14 0 24 -12q28 -34 65 -30q29 3 33 25q1 9 -27 23q-32 16 -38 29t-8 27q-1 10 0 24q1 18 1 19q0 32 32 31q30 -1 30 -31.5t3.5 -42.5t37.5 -28q31 -15 34 -45t-24 -55q-22 -21 -52 -28z" />
<glyph unicode="&#xb9;" horiz-adv-x="214" d="M78 383l3 221q-14 -7 -26 -7q-22 0 -26 25q-4 33 44 52q23 9 36 9q33 0 33 -52l2 -238q18 0 34.5 -8t15.5 -24q-2 -32 -53 -42q-29 -1 -58 -3q-55 -4 -55 33q0 34 50 34z" />
<glyph unicode="&#xba;" horiz-adv-x="309" d="M138 432q-44 2 -75 32t-34 74q-3 60 29 103t84 43q54 1 72 -21q4 3 9 3q17 0 41 -43q7 -13 10 -35q3 -35 -6 -79q-6 -33 -37.5 -56.5t-92.5 -20.5zM283 376q0 -13 -13 -24t-26 -11q-6 0 -19.5 5t-21.5 5q-15 -5 -50 -12q-28 -3 -82 -5q-43 -2 -43 33q0 30 51 32 q7 0 17.5 -3t16.5 -3q12 -1 27 1q20 3 28.5 3t25.5 3.5t25 3.5q10 0 20 -3q15 -2 29.5 -5t14.5 -20zM149 622q-27 -4 -43 -26.5t-12 -50.5q7 -50 46 -52q26 -2 46.5 12.5t21.5 45.5q2 33 -11 45l-2 2q-6 5 -22.5 7.5t-18.5 6.5q-5 6 -5 10z" />
<glyph unicode="&#xbb;" horiz-adv-x="549" d="M68 24q0 2 13 27.5t35 48.5q38 41 39 42q20 24 82 95q-3 1 -76 50q-28 17 -93 66q-13 11 -26 23.5t-13 25.5q0 5 2 10q8 23 42 29q20 4 40 -12q17 -15 35 -28.5t43.5 -38.5t43.5 -37q23 -15 59 -33q41 -22 38 -49q-2 -8 -8.5 -15.5t-12.5 -13.5q-10 -11 -30 -34 q-26 -27 -80 -91q-13 -21 -46 -63q-10 -11 -19 -23q-12 -12 -25 -12q-15 0 -29 9t-14 24zM248 45q0 2 13 27.5t35 48.5q38 41 39 42q20 24 82 95q-3 1 -76 50q-28 17 -93 66q-13 11 -26 23.5t-13 25.5q0 5 2 10q8 23 42 29q20 4 40 -12q17 -15 35 -28.5t43.5 -38.5t43.5 -37 q23 -15 59 -33q41 -22 38 -49q-2 -8 -8.5 -15.5t-12.5 -13.5q-10 -11 -30 -34q-26 -27 -80 -90q-13 -21 -46 -64q-10 -11 -19 -23q-12 -12 -25 -12q-15 0 -29 9t-14 24z" />
<glyph unicode="&#xbc;" horiz-adv-x="546" d="M477 219q27 0 30 -25q3 -15 -9 -25.5t-27 -11.5q-7 -71 -7 -129q0 -28 -3 -40q-7 -20 -29 -23q-32 -4 -32 47q0 17 4 35q6 28 9 87q-36 -22 -61 -16q-15 3 -23.5 15t-6.5 26q5 26 14 83q2 25 7 77q4 36 33 36q31 0 29 -30q-3 -55 -13 -94q-9 -33 0 -42q10 1 23 9 q10 44 23 109q9 49 42 49q26 0 26 -36q0 -18 -7 -37t-22 -64zM78 383l3 221q-14 -7 -26 -7q-22 0 -26 25q-4 33 44 52q23 9 36 9q33 0 33 -52l2 -238q18 0 34.5 -8t15.5 -24q-2 -32 -53 -42q-29 -1 -58 -3q-55 -4 -55 33q0 34 50 34zM389 646q-22 -54 -44 -147 q-21 -86 -41 -173q-6 -25 -41 -144q-23 -79 -38 -153q-7 -36 -9 -41q-9 -22 -34 -22q-35 0 -35 31q0 8 2 20q15 71 44 162q33 105 46 160q7 31 68 325q4 17 17.5 28.5t30.5 9.5q38 -3 38 -39q0 -8 -4 -17z" />
<glyph unicode="&#xbd;" horiz-adv-x="546" d="M78 383l3 221q-14 -7 -26 -7q-22 0 -26 25q-4 33 44 52q23 9 36 9q33 0 33 -52l2 -238q18 0 34.5 -8t15.5 -24q-2 -32 -53 -42q-29 -1 -58 -3q-55 -4 -55 33q0 34 50 34zM383 183q-40 0 -40 48q0 41 28.5 70.5t68.5 29.5q32 0 54 -23t22 -54q0 -53 -24 -96 q-19 -33 -67 -81l-15 -15h28q6 0 18 1t18 1q28 0 30 -24t-27.5 -26.5t-58.5 -3.5q-6 -1 -33 -6q-21 -5 -33 -5q-23 0 -30 16q-4 7 -4 13q0 17 26 38q34 29 41 38q40 55 50 72q22 39 22 76q0 17 -3 21t-16 4q-28 0 -35 -28q-2 -6 2.5 -16.5t3.5 -17.5q-5 -32 -26 -32z M394 646q-23 -54 -45 -147q-20 -86 -40 -173q-7 -25 -42 -144q-23 -79 -37 -153q-7 -36 -10 -41q-9 -22 -34 -22q-35 0 -35 31q0 8 3 20q14 71 43 162q33 105 46 160q8 31 69 325q3 17 16.5 28.5t30.5 9.5q38 -3 38 -39q0 -8 -3 -17z" />
<glyph unicode="&#xbe;" horiz-adv-x="540" d="M468 219q27 0 31 -25q2 -15 -9.5 -25.5t-27.5 -11.5q-6 -71 -6 -129q0 -28 -4 -40q-7 -20 -29 -23q-31 -4 -31 47q0 17 4 35q6 28 8 87q-36 -22 -61 -16q-14 3 -23 15t-6 26q5 26 13 83q2 25 8 77q4 36 32 36q31 0 30 -30q-3 -55 -14 -94q-9 -33 0 -42q11 1 23 9 q11 44 23 109q10 49 43 49q25 0 25 -36q0 -18 -7 -37t-22 -64zM215 597q7 -59 -44 -100q40 -30 40 -75q0 -46 -30 -78.5t-75 -32.5q-35 0 -59 22.5t-24 54.5q0 20 13 35.5t32 15.5q25 0 31 -27q2 -10 -4 -20q-9 -16 -10 -19q13 -2 20 -1q41 5 41 51q0 12 -14 34q-5 6 -33 9 q-22 2 -22 29q0 18 31 37q36 22 46 46q2 5 -1.5 14t-4.5 12v9q-1 5 -1 9q-18 5 -34 0q-5 -1 -12 -35t-29 -34q-32 0 -32 46q0 35 27.5 60t64.5 25q72 0 83 -87zM381 646q-23 -54 -45 -147q-20 -86 -40 -173q-7 -25 -42 -144q-23 -79 -37 -153q-7 -36 -9 -41q-10 -22 -34 -22 q-35 0 -35 31q0 8 2 20q14 71 43 162q33 105 47 160q7 31 68 325q3 17 17 28.5t30 9.5q39 -3 39 -39q0 -8 -4 -17z" />
<glyph unicode="&#xbf;" horiz-adv-x="344" d="M20 -122q-2 45 18 96q14 37 59 69q20 14 77 45q40 21 44 33q2 5 2 11q0 -6 -11 35q-4 19 -19.5 46t-21.5 46q-11 39 9 53q8 6 20 6q26 0 34 -20q15 -40 27 -87q3 -12 18 -48q12 -28 12 -46q0 -15 -7 -29q-15 -31 -54 -45q-26 -10 -52 -19q-98 -72 -98 -159q0 -38 12 -64 q15 -33 44 -33q37 0 76.5 17t39.5 36q0 14 -8.5 36t-8.5 37q0 22 4 30q7 14 32 14q55 0 55 -112q0 -59 -58 -94q-51 -30 -120 -30q-71 0 -101 56q-21 40 -24 120zM167 325q-18 0 -32.5 12t-15.5 29q-2 21 10 35.5t31 16.5q20 2 36.5 -10.5t17.5 -32.5q0 -20 -14 -35t-33 -15 z" />
<glyph unicode="&#xc0;" horiz-adv-x="527" d="M467 -30q-31 0 -39.5 35t-24.5 84q-21 58 -28 85q-11 33 -32 109q-4 14 -10 44q-152 0 -70 1q-41 0 -68 -9q-11 -31 -27 -93q-20 -78 -29 -109q-13 -45 -46 -139q-9 -21 -29 -21q-15 0 -26.5 9.5t-11.5 24.5q0 11 12 41q8 21 17 43q13 38 29 102t30 104l10 32 q-4 0 -13 -2t-13 -2q-20 0 -22 33q-2 25 28 40q20 10 42 2q29 78 48 142q11 39 31 126q-28 24 -24 47q5 32 35 36q29 3 46 -48q22 -67 57 -170q14 -38 44 -121h28q7 1 12 1q20 0 26 -26q6 -22 -13 -37q-15 -12 -33 -9q6 -33 24 -106q10 -27 43 -106q24 -58 28 -81 q5 -39 -8 -53q-8 -9 -23 -9zM263 521q-16 -44 -45 -134h44q-5 0 52 4q-18 43 -51 130zM257 857q61 -28 87 -48q6 -6 6 -18t-4 -19q-7 -23 -29 -19q-11 2 -36 17q-28 16 -45 21q-64 18 -76 34q-7 12 -7 25q0 14 10 29t24 15q12 0 34 -14q29 -20 36 -23z" />
<glyph unicode="&#xc1;" horiz-adv-x="533" d="M467 -30q-31 0 -39.5 35t-24.5 84q-21 58 -28 85q-11 33 -32 109q-4 14 -10 44q-152 0 -70 1q-41 0 -68 -9q-11 -31 -27 -93q-20 -78 -29 -109q-13 -45 -46 -139q-9 -21 -29 -21q-15 0 -26.5 9.5t-11.5 24.5q0 11 12 41q8 21 17 43q13 38 29 102t30 104l10 32 q-4 0 -13 -2t-13 -2q-20 0 -22 33q-2 25 28 40q20 10 42 2q29 78 48 142q11 39 31 126q-28 24 -24 47q5 32 35 36q29 3 46 -48q22 -67 57 -170q14 -38 44 -121h28q7 1 12 1q20 0 26 -26q6 -22 -13 -37q-15 -12 -33 -9q6 -33 24 -106q10 -27 43 -106q24 -58 28 -81 q5 -39 -8 -53q-8 -9 -23 -9zM263 521q-16 -44 -45 -134h44q-5 0 52 4q-18 43 -51 130zM358 848q0 -13 -8 -25q-12 -16 -75 -34q-18 -5 -44.5 -20.5t-37.5 -17.5q-22 -4 -29 19q-4 7 -4 19q1 12 6 18q26 20 87 48q7 3 36 23q22 14 34 14q14 0 24.5 -15t10.5 -29z" />
<glyph unicode="&#xc2;" horiz-adv-x="530" d="M467 -30q-31 0 -39.5 35t-24.5 84q-21 58 -28 85q-11 33 -32 109q-4 14 -10 44q-152 0 -70 1q-41 0 -68 -9q-11 -31 -27 -93q-20 -78 -29 -109q-13 -45 -46 -139q-9 -21 -29 -21q-15 0 -26.5 9.5t-11.5 24.5q0 11 12 41q8 21 17 43q13 38 29 102t30 104l10 32 q-4 0 -13 -2t-13 -2q-20 0 -22 33q-2 25 28 40q20 10 42 2q29 78 48 142q11 39 31 126q-28 24 -24 47q5 32 35 36q29 3 46 -48q22 -67 57 -170q14 -38 44 -121h28q7 1 12 1q20 0 26 -26q6 -22 -13 -37q-15 -12 -33 -9q6 -33 24 -106q10 -27 43 -106q24 -58 28 -81 q5 -39 -8 -53q-8 -9 -23 -9zM263 521q-16 -44 -45 -134h44q-5 0 52 4q-18 43 -51 130zM300 866q16 -16 33 -32q18 -21 18 -37q0 -17 -13 -28.5t-32 -11.5q-24 0 -29 15.5t-9 29.5q-10 19 -22 33q-13 -12 -27 -34q-9 -16 -19.5 -32t-30.5 -16q-38 0 -35 40q0 12 20 31 q18 16 35 33q3 3 38 44q18 21 25 21t19 -17q18 -27 29 -39z" />
<glyph unicode="&#xc3;" horiz-adv-x="527" d="M467 -30q-31 0 -39.5 35t-24.5 84q-21 58 -28 85q-11 33 -32 109q-4 14 -10 44q-152 0 -70 1q-41 0 -68 -9q-11 -31 -27 -93q-20 -78 -29 -109q-13 -45 -46 -139q-9 -21 -29 -21q-15 0 -26.5 9.5t-11.5 24.5q0 11 12 41q8 21 17 43q13 38 29 102t30 104l10 32 q-4 0 -13 -2t-13 -2q-20 0 -22 33q-2 25 28 40q20 10 42 2q29 78 48 142q11 39 31 126q-28 24 -24 47q5 32 35 36q29 3 46 -48q22 -67 57 -170q14 -38 44 -121h28q7 1 12 1q20 0 26 -26q6 -22 -13 -37q-15 -12 -33 -9q6 -33 24 -106q10 -27 43 -106q24 -58 28 -81 q5 -39 -8 -53q-8 -9 -23 -9zM263 521q-16 -44 -45 -134h44q-5 0 52 4q-18 43 -51 130zM277 844.5q8 -8.5 13 -14.5q13 9 23 25q3 10 13 28q14 16 30 16t28 -11t9 -25q-3 -15 -30 -50q-22 -28 -47 -45q-21 -14 -41 -5q-17 7 -27 21q-14 19 -27 39l-35 -25q-5 -18 -20.5 -29.5 t-32.5 -8.5q-30 5 -30 33q0 8 15 27q10 7 32 24q8 13 31 36q30 21 43 20q14 -2 22 -13.5t15.5 -22.5t15.5 -19.5z" />
<glyph unicode="&#xc4;" horiz-adv-x="521" d="M467 -30q-31 0 -39.5 35t-24.5 84q-21 58 -28 85q-11 33 -32 109q-4 14 -10 44q-152 0 -70 1q-41 0 -68 -9q-11 -31 -27 -93q-20 -78 -29 -109q-13 -45 -46 -139q-9 -21 -29 -21q-15 0 -26.5 9.5t-11.5 24.5q0 11 12 41q8 21 17 43q13 38 29 102t30 104l10 32 q-4 0 -13 -2t-13 -2q-20 0 -22 33q-2 25 28 40q20 10 42 2q29 78 48 142q11 39 31 126q-28 24 -24 47q5 32 35 36q29 3 46 -48q22 -67 57 -170q14 -38 44 -121h28q7 1 12 1q20 0 26 -26q6 -22 -13 -37q-15 -12 -33 -9q6 -33 24 -106q10 -27 43 -106q24 -58 28 -81 q5 -39 -8 -53q-8 -9 -23 -9zM263 521q-16 -44 -45 -134h44q-5 0 52 4q-18 43 -51 130zM218 810q1 -21 -16 -35.5t-39 -14.5q-21 0 -38.5 13t-17.5 33q-2 48 62 48q17 0 33 -13.5t16 -30.5zM381 819q0 -22 -16 -36.5t-37 -14.5q-20 0 -37.5 14.5t-18.5 32.5q-1 21 14 35 t36 14q22 0 40.5 -13t18.5 -32z" />
<glyph unicode="&#xc5;" horiz-adv-x="527" d="M467 -30q-31 0 -39.5 35t-24.5 84q-21 58 -28 85q-11 33 -32 109q-4 14 -10 44q-152 0 -70 1q-41 0 -68 -9q-11 -31 -27 -93q-20 -78 -29 -109q-13 -45 -46 -139q-9 -21 -29 -21q-15 0 -26.5 9.5t-11.5 24.5q0 11 12 41q8 21 17 43q13 38 29 102t30 104l10 32 q-4 0 -13 -2t-13 -2q-20 0 -22 33q-2 25 28 40q20 10 42 2q29 78 48 142q11 39 31 126q-28 24 -24 47q5 32 35 36q29 3 46 -48q22 -67 57 -170q14 -38 44 -121h28q7 1 12 1q20 0 26 -26q6 -22 -13 -37q-15 -12 -33 -9q6 -33 24 -106q10 -27 43 -106q24 -58 28 -81 q5 -39 -8 -53q-8 -9 -23 -9zM263 521q-16 -44 -45 -134h44q-5 0 52 4q-18 43 -51 130zM318 845q1 -32 -21 -55.5t-53 -23.5q-30 0 -59 22.5t-28 54.5q0 28 29 51q26 21 48 20q34 -2 58.5 -20.5t25.5 -48.5zM201 847q-2 -15 12 -25.5t31 -10.5q13 0 24.5 7t11.5 19 q0 13 -17.5 24t-31.5 12q-22 4 -30 -26z" />
<glyph unicode="&#xc6;" horiz-adv-x="811" d="M43 35q30 36 82 119q43 68 86 146q-17 -1 -29.5 10t-12.5 28q0 23 48 35q19 4 41 0l151 263q7 7 7 53q0 18 13 30t31 12q21 0 28 -18q3 -9 7 -55l104 21q33 10 104 21q44 1 51 -33q3 -18 -10.5 -31.5t-35 -16t-96.5 -8.5q-38 -7 -124 -23l6 -209q46 -4 152 -10h73 q37 3 37 -37q0 -49 -50 -41q-12 1 -74 13q-32 7 -65 7q-44 0 -72 -2q-2 -31 -6 -100q-2 -93 -1 -149h193q24 16 51 13q49 -6 50 -35q1 -30 -44 -44q-12 -4 -27 -1q-23 4 -27 4q-104 3 -208 -6q2 -13 -5.5 -24t-19.5 -11q-21 0 -23.5 11.5t-5.5 23.5q-20 1 -22 22 q-1 7 7 16.5t9 11.5q6 101 6 133q0 31 -1 69q-2 54 -2 70q-32 1 -63 0q-20 -2 -63 -7q-18 -30 -57 -98q-34 -60 -108 -199q-4 -16 -24 -47q-26 -26 -48 -24q-38 3 -38 40q0 26 25 57zM423 532l-92 -156l97 9z" />
<glyph unicode="&#xc7;" horiz-adv-x="568" d="M202 -8q-110 14 -149 117q-25 65 -27 207q-2 147 84 257q89 115 224 115q106 0 160 -88q13 -22 13 -38q0 -28 -42 -28q-10 0 -18 8.5t-15 17.5q-14 21 -28 41q-20 20 -75 20q-88 0 -161.5 -97.5t-73.5 -211.5q0 -124 29 -183q35 -69 114 -69q180 0 225 195q0 34 32 34 q35 0 35 -29q0 -97 -70 -175q-77 -86 -195 -94q0 -13 1.5 -18.5t1.5 -11.5q4 -13 38 -29q31 -15 34 -45t-24 -55q-22 -21 -52 -28q-16 -3 -32 -3q-66 0 -103 50q-6 9 -6 19q0 11 9 19.5t21 8.5q14 0 24 -12q25 -30 65 -30q11 0 22 7.5t11 17.5q0 9 -28 23q-31 16 -37.5 29.5 t-6.5 58.5z" />
<glyph unicode="&#xc8;" horiz-adv-x="448" d="M381 634h-53q-19 -4 -61 -11q-33 -6 -109 -20q-12 -110 -12 -203q32 0 91 -3q20 -1 60 -7q36 -6 57 -6q16 0 29.5 -10.5t12.5 -26.5q-1 -13 -12.5 -22.5t-25.5 -9.5q-28 0 -84 11q-50 9 -85 7q-14 0 -45 -7q-9 -27 -16 -114q3 -41 -1 -128q-2 -6 -7 -18q46 -4 109 -3 q24 1 61.5 8t57.5 7q47 0 49 -31q1 -16 -12 -28t-28 -12q-13 0 -39 1h-42q-84 0 -125 -2q-13 -3 -39 -10q-2 -31 -30 -31q-13 0 -23 9.5t-10 22.5q-18 4 -22 26q-2 13 9 27q9 11 18 14l23 267q-22 9 -22 33q0 21 28 34l2 195q-22 8 -22 29q0 26 29 40q-3 12 -3 16 q2 29 22 29q15 0 26 -13q17 -22 19 -23q31 4 100 17q34 10 68.5 19t60.5 7q33 -4 39 -31q4 -17 -10 -32t-33 -17zM238 835q61 -28 87 -48q6 -6 6 -18t-4 -19q-7 -23 -29 -19q-11 2 -36 17q-28 16 -45 21q-64 18 -76 34q-7 12 -7 25q0 14 10 29t24 15q12 0 34 -14 q29 -20 36 -23z" />
<glyph unicode="&#xc9;" horiz-adv-x="442" d="M381 634h-53q-19 -4 -61 -11q-33 -6 -109 -20q-12 -110 -12 -203q32 0 91 -3q20 -1 60 -7q36 -6 57 -6q16 0 29.5 -10.5t12.5 -26.5q-1 -13 -12.5 -22.5t-25.5 -9.5q-28 0 -84 11q-50 9 -85 7q-14 0 -45 -7q-9 -27 -16 -114q3 -41 -1 -128q-2 -6 -7 -18q46 -4 109 -3 q24 1 61.5 8t57.5 7q47 0 49 -31q1 -16 -12 -28t-28 -12q-13 0 -39 1h-42q-84 0 -125 -2q-13 -3 -39 -10q-2 -31 -30 -31q-13 0 -23 9.5t-10 22.5q-18 4 -22 26q-2 13 9 27q9 11 18 14l23 267q-22 9 -22 33q0 21 28 34l2 195q-22 8 -22 29q0 26 29 40q-3 12 -3 16 q2 29 22 29q15 0 26 -13q17 -22 19 -23q31 4 100 17q34 10 68.5 19t60.5 7q33 -4 39 -31q4 -17 -10 -32t-33 -17zM353 829q0 -13 -8 -25q-12 -16 -75 -34q-18 -5 -44.5 -20.5t-37.5 -17.5q-22 -4 -29 19q-4 7 -4 19q1 12 6 18q26 20 87 48q7 3 36 23q22 14 34 14 q14 0 24.5 -15t10.5 -29z" />
<glyph unicode="&#xca;" d="M381 634h-53q-19 -4 -61 -11q-33 -6 -109 -20q-12 -110 -12 -203q32 0 91 -3q20 -1 60 -7q36 -6 57 -6q16 0 29.5 -10.5t12.5 -26.5q-1 -13 -12.5 -22.5t-25.5 -9.5q-28 0 -84 11q-50 9 -85 7q-14 0 -45 -7q-9 -27 -16 -114q3 -41 -1 -128q-2 -6 -7 -18q46 -4 109 -3 q24 1 61.5 8t57.5 7q47 0 49 -31q1 -16 -12 -28t-28 -12q-13 0 -39 1h-42q-84 0 -125 -2q-13 -3 -39 -10q-2 -31 -30 -31q-13 0 -23 9.5t-10 22.5q-18 4 -22 26q-2 13 9 27q9 11 18 14l23 267q-22 9 -22 33q0 21 28 34l2 195q-22 8 -22 29q0 26 29 40q-3 12 -3 16 q2 29 22 29q15 0 26 -13q17 -22 19 -23q31 4 100 17q34 10 68.5 19t60.5 7q33 -4 39 -31q4 -17 -10 -32t-33 -17zM313 845q16 -16 33 -32q18 -21 18 -37q0 -17 -13 -28.5t-32 -11.5q-24 0 -29 15.5t-9 29.5q-10 19 -22 33q-13 -12 -27 -34q-9 -16 -19.5 -32t-30.5 -16 q-38 0 -35 40q0 12 20 31q18 16 35 33q3 3 38 44q18 21 25 21t19 -17q18 -27 29 -39z" />
<glyph unicode="&#xcb;" d="M381 634h-53q-19 -4 -61 -11q-33 -6 -109 -20q-12 -110 -12 -203q32 0 91 -3q20 -1 60 -7q36 -6 57 -6q16 0 29.5 -10.5t12.5 -26.5q-1 -13 -12.5 -22.5t-25.5 -9.5q-28 0 -84 11q-50 9 -85 7q-14 0 -45 -7q-9 -27 -16 -114q3 -41 -1 -128q-2 -6 -7 -18q46 -4 109 -3 q24 1 61.5 8t57.5 7q47 0 49 -31q1 -16 -12 -28t-28 -12q-13 0 -39 1h-42q-84 0 -125 -2q-13 -3 -39 -10q-2 -31 -30 -31q-13 0 -23 9.5t-10 22.5q-18 4 -22 26q-2 13 9 27q9 11 18 14l23 267q-22 9 -22 33q0 21 28 34l2 195q-22 8 -22 29q0 26 29 40q-3 12 -3 16 q2 29 22 29q15 0 26 -13q17 -22 19 -23q31 4 100 17q34 10 68.5 19t60.5 7q33 -4 39 -31q4 -17 -10 -32t-33 -17zM210 786q1 -21 -16 -35.5t-39 -14.5q-21 0 -38.5 13t-17.5 33q-2 48 62 48q17 0 33 -13.5t16 -30.5zM373 795q0 -22 -16 -36.5t-37 -14.5q-20 0 -37.5 14.5 t-18.5 32.5q-1 21 14 35t36 14q22 0 40.5 -13t18.5 -32z" />
<glyph unicode="&#xcc;" horiz-adv-x="363" d="M22 652q0 24 15 28q1 1 29 1q78 1 89 0q9 18 30 20q25 3 39 -14q28 -1 59 0q22 1 39.5 -9t15.5 -30t-44 -31q-19 -5 -66 6q-12 -103 -12 -109q0 -59 6 -152.5t6 -153.5v-140q5 1 26 8q14 4 25 2q50 -9 50 -37t-40 -37q-6 -1 -50 7q-3 -2 -22 -17q-12 -9 -24 -9 q-23 0 -39 15q-34 -17 -79 -17q-44 0 -47 32q-1 17 14.5 28t34.5 11q57 0 78 2q3 45 8 146q1 31 1 62q0 43 -3.5 123.5t-3.5 132.5v107q-38 -11 -76 -12q-31 -1 -40 2q-19 6 -19 35zM200 839q61 -28 87 -48q6 -6 6 -18t-4 -19q-7 -23 -29 -19q-11 2 -36 17q-28 16 -45 21 q-64 18 -76 34q-7 12 -7 25q0 14 10 29t24 15q12 0 34 -14q29 -20 36 -23z" />
<glyph unicode="&#xcd;" horiz-adv-x="363" d="M22 652q0 24 15 28q1 1 29 1q78 1 89 0q9 18 30 20q25 3 39 -14q28 -1 59 0q22 1 39.5 -9t15.5 -30t-44 -31q-19 -5 -66 6q-12 -103 -12 -109q0 -59 6 -152.5t6 -153.5v-140q5 1 26 8q14 4 25 2q50 -9 50 -37t-40 -37q-6 -1 -50 7q-3 -2 -22 -17q-12 -9 -24 -9 q-23 0 -39 15q-34 -17 -79 -17q-44 0 -47 32q-1 17 14.5 28t34.5 11q57 0 78 2q3 45 8 146q1 31 1 62q0 43 -3.5 123.5t-3.5 132.5v107q-38 -11 -76 -12q-31 -1 -40 2q-19 6 -19 35zM292 826q0 -13 -8 -25q-12 -16 -75 -34q-18 -5 -44.5 -20.5t-37.5 -17.5q-22 -4 -29 19 q-4 7 -4 19q1 12 6 18q26 20 87 48q7 3 36 23q22 14 34 14q14 0 24.5 -15t10.5 -29z" />
<glyph unicode="&#xce;" horiz-adv-x="363" d="M22 652q0 24 15 28q1 1 29 1q78 1 89 0q9 18 30 20q25 3 39 -14q28 -1 59 0q22 1 39.5 -9t15.5 -30t-44 -31q-19 -5 -66 6q-12 -103 -12 -109q0 -59 6 -152.5t6 -153.5v-140q5 1 26 8q14 4 25 2q50 -9 50 -37t-40 -37q-6 -1 -50 7q-3 -2 -22 -17q-12 -9 -24 -9 q-23 0 -39 15q-34 -17 -79 -17q-44 0 -47 32q-1 17 14.5 28t34.5 11q57 0 78 2q3 45 8 146q1 31 1 62q0 43 -3.5 123.5t-3.5 132.5v107q-38 -11 -76 -12q-31 -1 -40 2q-19 6 -19 35zM242 836q16 -16 33 -32q18 -21 18 -37q0 -17 -13 -28.5t-32 -11.5q-24 0 -29 15.5t-9 29.5 q-10 19 -22 33q-13 -12 -27 -34q-9 -16 -19.5 -32t-30.5 -16q-38 0 -35 40q0 12 20 31q18 16 35 33q3 3 38 44q18 21 25 21t19 -17q18 -27 29 -39z" />
<glyph unicode="&#xcf;" horiz-adv-x="363" d="M22 652q0 24 15 28q1 1 29 1q78 1 89 0q9 18 30 20q25 3 39 -14q28 -1 59 0q22 1 39.5 -9t15.5 -30t-44 -31q-19 -5 -66 6q-12 -103 -12 -109q0 -59 6 -152.5t6 -153.5v-140q5 1 26 8q14 4 25 2q50 -9 50 -37t-40 -37q-6 -1 -50 7q-3 -2 -22 -17q-12 -9 -24 -9 q-23 0 -39 15q-34 -17 -79 -17q-44 0 -47 32q-1 17 14.5 28t34.5 11q57 0 78 2q3 45 8 146q1 31 1 62q0 43 -3.5 123.5t-3.5 132.5v107q-38 -11 -76 -12q-31 -1 -40 2q-19 6 -19 35zM159 779q1 -21 -16 -35.5t-39 -14.5q-21 0 -38.5 13t-17.5 33q-2 48 62 48q17 0 33 -13.5 t16 -30.5zM322 788q0 -22 -16 -36.5t-37 -14.5q-20 0 -37.5 14.5t-18.5 32.5q-1 21 14 35t36 14q22 0 40.5 -13t18.5 -32z" />
<glyph unicode="&#xd0;" horiz-adv-x="565" d="M107 272q-28 -12 -45 -12q-37 0 -37 37q0 32 87 58q0 15 3 43.5t3 39.5q0 36 7 156v31q-4 0 -10 3t-9 3q-20 10 -20 27q0 11 12 17t23 10q14 19 30 19q23 0 34 -12q6 0 13 -1h14q9 0 80 -20q138 -40 197 -135q44 -69 44 -162q0 -106 -39 -193q-42 -94 -120 -143 q-60 -37 -190 -44l-20 -1q-10 -16 -32 -16q-31 0 -31 54q-21 0 -21 26q0 18 26 28q0 28 1 72v70v45zM175 303q0 -4 -1 -15v-16v-72q0 -16 -2.5 -46.5t-2.5 -42.5q0 -34 18 -44q11 -5 52 -5q50 0 101 36q120 83 120 258q0 71 -21 122q-38 92 -174 133q-38 11 -58 11 q-2 0 -6.5 1t-6.5 1q0 -39 -6 -117.5t-6 -118.5q34 16 48 16q17 0 23 -19q2 -7 2 -13q0 -34 -80 -69z" />
<glyph unicode="&#xd1;" horiz-adv-x="508" d="M440 709q17 0 29 -16t13 -36q1 -21 -7.5 -51t-9 -48.5t-6 -50.5t-4.5 -50q1 -62 -10 -153q-12 -97 -12 -152q0 -17 -6 -41.5t-6 -41.5q20 -25 21 -51q-2 -42 -21 -47q-7 -2 -14 -2q-35 0 -46 28q-13 32 -44 105q-13 29 -28.5 82t-29.5 83q-3 8 -78 187q-13 -71 -37 -202 q-9 -41 -27 -152q-1 -29 -2 -57q-2 -38 -14 -54q-16 -20 -35 -18q-14 0 -24.5 14.5t-8.5 30.5q-1 7 7.5 18.5t8.5 12.5q1 57 14 119q20 95 23 114q10 80 33 248q8 20 17 57q-13 25 -27 50q-10 21 -10 35q0 41 29 41q9 0 18 -7q6 -6 12 -11q7 6 26 13q26 2 30 -22 q10 -34 -12 -102q17 -42 56 -137q32 -88 105 -270q0 47 12.5 122.5t11.5 123.5q0 40 8 103.5t8 96.5q0 16 -1 32q-4 56 38 56zM316 825.5q8 -8.5 13 -14.5q13 9 23 25q3 10 13 28q14 16 30 16t28 -11t9 -25q-3 -15 -30 -50q-22 -28 -47 -45q-21 -14 -41 -5q-17 7 -27 21 q-14 19 -27 39l-35 -25q-5 -18 -20.5 -29.5t-32.5 -8.5q-30 5 -30 33q0 8 15 27q10 7 32 24q8 13 31 36q30 21 43 20q14 -2 22 -13.5t15.5 -22.5t15.5 -19.5z" />
<glyph unicode="&#xd2;" horiz-adv-x="625" d="M573 527q11 -34 18 -158q6 -120 -60 -235q-54 -93 -109 -125q-47 -26 -113 -28q-54 -1 -136 40q-25 12 -50 25.5t-38 38.5q-3 8 -10.5 22t-20.5 45q-26 64 -26 126q0 147 78 269q98 154 249 154q68 0 133 -56.5t85 -117.5zM96 312q-1 -19 -1 -44q0 -62 30.5 -113 t86.5 -73q12 -5 28 -5q7 0 19 1t17 1q19 0 27.5 -8t15.5 -30q36 2 52 11q70 38 116 153q40 101 40 199q0 65 -30 127q-23 44 -69 72q-45 25 -92 25q-91 0 -167 -113q-67 -101 -73 -203zM340 839q61 -28 87 -48q6 -6 6 -18t-4 -19q-7 -23 -29 -19q-11 2 -36 17q-28 16 -45 21 q-64 18 -76 34q-7 12 -7 25q0 14 10 29t24 15q12 0 34 -14q29 -20 36 -23z" />
<glyph unicode="&#xd3;" horiz-adv-x="628" d="M573 527q11 -34 18 -158q6 -120 -60 -235q-54 -93 -109 -125q-47 -26 -113 -28q-54 -1 -136 40q-25 12 -50 25.5t-38 38.5q-3 8 -10.5 22t-20.5 45q-26 64 -26 126q0 147 78 269q98 154 249 154q68 0 133 -56.5t85 -117.5zM96 312q-1 -19 -1 -44q0 -62 30.5 -113 t86.5 -73q12 -5 28 -5q7 0 19 1t17 1q19 0 27.5 -8t15.5 -30q36 2 52 11q70 38 116 153q40 101 40 199q0 65 -30 127q-23 44 -69 72q-45 25 -92 25q-91 0 -167 -113q-67 -101 -73 -203zM412 821q0 -13 -8 -25q-12 -16 -75 -34q-18 -5 -44.5 -20.5t-37.5 -17.5q-22 -4 -29 19 q-4 7 -4 19q1 12 6 18q26 20 87 48q7 3 36 23q22 14 34 14q14 0 24.5 -15t10.5 -29z" />
<glyph unicode="&#xd4;" horiz-adv-x="628" d="M573 527q11 -34 18 -158q6 -120 -60 -235q-54 -93 -109 -125q-47 -26 -113 -28q-54 -1 -136 40q-25 12 -50 25.5t-38 38.5q-3 8 -10.5 22t-20.5 45q-26 64 -26 126q0 147 78 269q98 154 249 154q68 0 133 -56.5t85 -117.5zM96 312q-1 -19 -1 -44q0 -62 30.5 -113 t86.5 -73q12 -5 28 -5q7 0 19 1t17 1q19 0 27.5 -8t15.5 -30q36 2 52 11q70 38 116 153q40 101 40 199q0 65 -30 127q-23 44 -69 72q-45 25 -92 25q-91 0 -167 -113q-67 -101 -73 -203zM389 843q16 -16 33 -32q18 -21 18 -37q0 -17 -13 -28.5t-32 -11.5q-24 0 -29 15.5 t-9 29.5q-10 19 -22 33q-13 -12 -27 -34q-9 -16 -19.5 -32t-30.5 -16q-38 0 -35 40q0 12 20 31q18 16 35 33q3 3 38 44q18 21 25 21t19 -17q18 -27 29 -39z" />
<glyph unicode="&#xd5;" horiz-adv-x="628" d="M573 527q11 -34 18 -158q6 -120 -60 -235q-54 -93 -109 -125q-47 -26 -113 -28q-54 -1 -136 40q-25 12 -50 25.5t-38 38.5q-3 8 -10.5 22t-20.5 45q-26 64 -26 126q0 147 78 269q98 154 249 154q68 0 133 -56.5t85 -117.5zM96 312q-1 -19 -1 -44q0 -62 30.5 -113 t86.5 -73q12 -5 28 -5q7 0 19 1t17 1q19 0 27.5 -8t15.5 -30q36 2 52 11q70 38 116 153q40 101 40 199q0 65 -30 127q-23 44 -69 72q-45 25 -92 25q-91 0 -167 -113q-67 -101 -73 -203zM368 818.5q8 -8.5 13 -14.5q13 9 23 25q3 10 13 28q14 16 30 16t28 -11t9 -25 q-3 -15 -30 -50q-22 -28 -47 -45q-21 -14 -41 -5q-17 7 -27 21q-14 19 -27 39l-35 -25q-5 -18 -20.5 -29.5t-32.5 -8.5q-30 5 -30 33q0 8 15 27q10 7 32 24q8 13 31 36q30 21 43 20q14 -2 22 -13.5t15.5 -22.5t15.5 -19.5z" />
<glyph unicode="&#xd6;" horiz-adv-x="625" d="M573 531q11 -34 18 -158q6 -120 -60 -235q-54 -93 -109 -125q-47 -26 -113 -28q-54 -1 -136 40q-25 12 -50 25.5t-38 38.5q-3 8 -10.5 22t-20.5 45q-26 64 -26 126q0 147 78 269q98 154 249 154q68 0 133 -56.5t85 -117.5zM96 316q-1 -19 -1 -44q0 -62 30.5 -113 t86.5 -73q12 -5 28 -5q7 0 19 1t17 1q19 0 27.5 -8t15.5 -30q36 2 52 11q70 38 116 153q40 101 40 199q0 65 -30 127q-23 44 -69 72q-45 25 -92 25q-91 0 -167 -113q-67 -101 -73 -203zM304 780q1 -21 -16 -35.5t-39 -14.5q-21 0 -38.5 13t-17.5 33q-2 48 62 48 q17 0 33 -13.5t16 -30.5zM467 789q0 -22 -16 -36.5t-37 -14.5q-20 0 -37.5 14.5t-18.5 32.5q-1 21 14 35t36 14q22 0 40.5 -13t18.5 -32z" />
<glyph unicode="&#xd7;" horiz-adv-x="420" d="M141 329q11 -14 37 -37q22 29 64 106q15 35 39 34q33 -2 33 -35q0 -14 -8.5 -28t-16.5 -28q-18 -38 -66 -99q26 -28 81 -90q2 -3 57 -51q32 -28 32 -54q0 -15 -14 -24t-32 -9q-19 0 -32 14q-24 27 -121 149l-81 -144q-21 -43 -46 -41q-34 1 -38 40q-1 12 58.5 103 t58.5 94q0 1 -58.5 70t-58.5 92q0 36 35 36q17 0 27 -16.5t19.5 -32.5t30.5 -49z" />
<glyph unicode="&#xd8;" horiz-adv-x="625" d="M487 729q4 -7 -3 -40q-3 -13 -16 -37q21 -13 38 -29q48 -44 67 -109q12 -41 13 -117q2 -75 -4 -116q-16 -113 -73 -192q-71 -100 -181 -100q-51 0 -96 12q-1 -12 -13 -30q-19 -32 -42 -32q-26 0 -39 27q-4 7 -4 15q0 10 8 25q13 26 14 27q-130 67 -130 244q0 130 66 240 q56 95 130 135q79 42 143 42q21 0 34 -5q5 22 19 37q11 13 14 15q8 7 17 7q28 2 38 -19zM383 617q-22 24 -50 19q-95 -18 -167.5 -123.5t-72.5 -217.5q0 -62 5 -87q8 -39 38 -71q6 -7 16 -8t17.5 -7.5t17.5 -26.5q15 53 39 114q45 112 46 114q20 52 64 166q15 39 47 128z M443 580q-71 -179 -117 -303l-72 -195q11 2 31 -3q15 -10 13 -31q42 -1 77 11q64 22 99 97q11 25 42 136q5 17 6 50q4 81 -13 132q-19 61 -66 106z" />
<glyph unicode="&#xd9;" horiz-adv-x="470" d="M383 695q15 0 27 -11t11 -25q-2 -58 3 -164q5 -123 5 -181q0 -208 -88 -289q-47 -43 -106 -41q-87 3 -137 43q-59 48 -64 160q-5 97 21 196q13 43 36 141q4 26 14 84q6 35 13 61q8 32 46 32q39 0 42 -26q1 -8 -4 -17q-7 -13 -8 -16q-28 -86 -37 -121q-17 -60 -28 -125 q-15 -97 -21 -188q-8 -147 126 -147q61 0 97 77q29 63 25 125q0 50 -2 162q-1 28 -6 102q-5 65 -5 102q0 32 4 43q9 23 36 23zM269 841q61 -28 87 -48q6 -6 6 -18t-4 -19q-7 -23 -29 -19q-11 2 -36 17q-28 16 -45 21q-64 18 -76 34q-7 12 -7 25q0 14 10 29t24 15 q12 0 34 -14q29 -20 36 -23z" />
<glyph unicode="&#xda;" horiz-adv-x="470" d="M383 695q15 0 27 -11t11 -25q-2 -58 3 -164q5 -123 5 -181q0 -208 -88 -289q-47 -43 -106 -41q-87 3 -137 43q-59 48 -64 160q-5 97 21 196q13 43 36 141q4 26 14 84q6 35 13 61q8 32 46 32q39 0 42 -26q1 -8 -4 -17q-7 -13 -8 -16q-28 -86 -37 -121q-17 -60 -28 -125 q-15 -97 -21 -188q-8 -147 126 -147q61 0 97 77q29 63 25 125q0 50 -2 162q-1 28 -6 102q-5 65 -5 102q0 32 4 43q9 23 36 23zM372 831q0 -13 -8 -25q-12 -16 -75 -34q-18 -5 -44.5 -20.5t-37.5 -17.5q-22 -4 -29 19q-4 7 -4 19q1 12 6 18q26 20 87 48q7 3 36 23 q22 14 34 14q14 0 24.5 -15t10.5 -29z" />
<glyph unicode="&#xdb;" horiz-adv-x="470" d="M383 695q15 0 27 -11t11 -25q-2 -58 3 -164q5 -123 5 -181q0 -208 -88 -289q-47 -43 -106 -41q-87 3 -137 43q-59 48 -64 160q-5 97 21 196q13 43 36 141q4 26 14 84q6 35 13 61q8 32 46 32q39 0 42 -26q1 -8 -4 -17q-7 -13 -8 -16q-28 -86 -37 -121q-17 -60 -28 -125 q-15 -97 -21 -188q-8 -147 126 -147q61 0 97 77q29 63 25 125q0 50 -2 162q-1 28 -6 102q-5 65 -5 102q0 32 4 43q9 23 36 23zM320 845q16 -16 33 -32q18 -21 18 -37q0 -17 -13 -28.5t-32 -11.5q-24 0 -29 15.5t-9 29.5q-10 19 -22 33q-13 -12 -27 -34q-9 -16 -19.5 -32 t-30.5 -16q-38 0 -35 40q0 12 20 31q18 16 35 33q3 3 38 44q18 21 25 21t19 -17q18 -27 29 -39z" />
<glyph unicode="&#xdc;" horiz-adv-x="470" d="M383 695q15 0 27 -11t11 -25q-2 -58 3 -164q5 -123 5 -181q0 -208 -88 -289q-47 -43 -106 -41q-87 3 -137 43q-59 48 -64 160q-5 97 21 196q13 43 36 141q4 26 14 84q6 35 13 61q8 32 46 32q39 0 42 -26q1 -8 -4 -17q-7 -13 -8 -16q-28 -86 -37 -121q-17 -60 -28 -125 q-15 -97 -21 -188q-8 -147 126 -147q61 0 97 77q29 63 25 125q0 50 -2 162q-1 28 -6 102q-5 65 -5 102q0 32 4 43q9 23 36 23zM242 777q1 -21 -16 -35.5t-39 -14.5q-21 0 -38.5 13t-17.5 33q-2 48 62 48q17 0 33 -13.5t16 -30.5zM405 786q0 -22 -16 -36.5t-37 -14.5 q-20 0 -37.5 14.5t-18.5 32.5q-1 21 14 35t36 14q22 0 40.5 -13t18.5 -32z" />
<glyph unicode="&#xdd;" horiz-adv-x="442" d="M414 415q3 -22 2 -52q-2 -28 -3 -56q-1 -43 -9 -139q-2 -14 -8 -48q10 -14 10 -29q0 -9 -5 -17q-9 -14 -9 -15l-5 -46q0 -14 -4 -42q-38 -234 -234 -232q-59 0 -99.5 32t-40.5 80q0 36 13 64q17 36 50 34q17 0 20 -13q0 -12 1 -24q1 -11 -7.5 -25t-7.5 -24q4 -55 65 -57 q71 -1 122 51t51 124v36q-55 -43 -124 -38q-104 7 -138 71q-21 40 -22 139q-2 174 65 238q28 27 44 25q29 -5 31 -36q0 -18 -12 -28q-18 -14 -21 -20q-21 -39 -30 -120q-14 -126 9 -171q9 -19 61 -26q14 -2 28 -2q67 0 100 48q19 27 24 69l10 108q3 32 1 83q0 6 -4 25 q-4 14 -1 24q11 47 38 47q33 0 39 -38zM346 586q0 -13 -8 -25q-12 -16 -75 -34q-18 -5 -44.5 -20.5t-37.5 -17.5q-22 -4 -29 19q-4 7 -4 19q1 12 6 18q26 20 87 48q7 3 36 23q22 14 34 14q14 0 24.5 -15t10.5 -29z" />
<glyph unicode="&#xde;" horiz-adv-x="498" d="M135 704q10 -73 24 -153l15 2q54 7 84 5q81 -7 148 -68q72 -66 65 -145q-10 -93 -79 -137q-51 -32 -156 -47l-69 -9q0 -19 -3 -65q0 -25 -5 -86q-9 -59 -48 -56q-34 3 -34 46q0 12 3 24q8 34 16 164q7 123 5 159q-3 56 -10 109q-17 -8 -33 -4q-28 7 -28 32q0 21 28 37 q2 1 22 6q-5 9 -13 84t-6 85q9 37 39 36q21 0 35 -19zM174 349q1 -24 1 -128h26q80 0 135 31q65 35 65 100q0 57 -47 96q-43 36 -106 40q-19 2 -61 -7l-25 -5q5 -39 12 -127z" />
<glyph unicode="&#xdf;" horiz-adv-x="413" d="M127 579q0 -9 -2 -20l-4 -20q-6 -52 -5 -111q3 -110 3 -112q0 -30 -5 -134q-3 -74 1 -134q0 -3 4 -25q3 -14 0 -25q-11 -40 -34 -42q-19 -2 -31.5 9t-10.5 39q8 135 10 275q1 120 -2 295q-18 12 -18 37q0 20 19 32q-2 17 4 29q9 19 38 21q33 1 47 -26l30 1 q87 4 146 -49.5t60 -134.5q1 -112 -73 -151l-13 -8l15 -17q70 -74 73 -183q1 -50 -37 -91q-31 -34 -70 -46q-12 -3 -32 -3q-79 0 -79 38q0 34 38 34q8 0 25.5 -2t26.5 -2q30 0 49.5 24.5t16.5 55.5q-10 103 -70 149q-27 21 -44 19q-25 -3 -33 6q-5 5 -7 24q-3 25 53 35 q19 3 37.5 6t31.5 15q29 27 28 91q-2 85 -59 111q-11 5 -28 6.5t-24 5t-20 7.5q-5 1 -13.5 -1.5t-11.5 -2.5q-6 -1 -32 -1q2 -17 2 -24z" />
<glyph unicode="&#xe0;" horiz-adv-x="540" d="M460 458q15 1 29.5 -6t13.5 -18q0 -11 -8.5 -40t-8.5 -48q0 -18 6.5 -44.5t7.5 -43.5q1 -28 -6.5 -68t-7.5 -65q0 -23 10 -100q2 -17 -5.5 -34t-23.5 -17q-30 -2 -39 29q-2 8 -2 34q-35 -17 -69 -34q-43 -17 -106 -17q-64 5 -109 24q-108 45 -108 154q0 118 56 198 q60 86 161 86q103 1 172 -75q0 8 -1 23t-1 22q1 10 5 20q8 18 34 20zM404 322q-30 16 -55 17t-34 5q-18 8 -22 43q-28 2 -52 -3q-126 -24 -136 -202q-4 -74 42 -104q32 -22 104 -26q61 -5 109.5 32.5t58.5 97.5q3 19 0 54q0 71 1 47q-1 24 -16 39zM280 589q61 -28 87 -48 q6 -6 6 -18t-4 -19q-7 -23 -29 -19q-11 2 -36 17q-28 16 -45 21q-64 18 -76 34q-7 12 -7 25q0 14 10 29t24 15q12 0 34 -14q29 -20 36 -23z" />
<glyph unicode="&#xe1;" horiz-adv-x="540" d="M460 458q15 1 29.5 -6t13.5 -18q0 -11 -8.5 -40t-8.5 -48q0 -18 6.5 -44.5t7.5 -43.5q1 -28 -6.5 -68t-7.5 -65q0 -23 10 -100q2 -17 -5.5 -34t-23.5 -17q-30 -2 -39 29q-2 8 -2 34q-35 -17 -69 -34q-43 -17 -106 -17q-64 5 -109 24q-108 45 -108 154q0 118 56 198 q60 86 161 86q103 1 172 -75q0 8 -1 23t-1 22q1 10 5 20q8 18 34 20zM404 322q-30 16 -55 17t-34 5q-18 8 -22 43q-28 2 -52 -3q-126 -24 -136 -202q-4 -74 42 -104q32 -22 104 -26q61 -5 109.5 32.5t58.5 97.5q3 19 0 54q0 71 1 47q-1 24 -16 39zM365 583q0 -13 -8 -25 q-12 -16 -75 -34q-18 -5 -44.5 -20.5t-37.5 -17.5q-22 -4 -29 19q-4 7 -4 19q1 12 6 18q26 20 87 48q7 3 36 23q22 14 34 14q14 0 24.5 -15t10.5 -29z" />
<glyph unicode="&#xe2;" horiz-adv-x="540" d="M460 458q15 1 29.5 -6t13.5 -18q0 -11 -8.5 -40t-8.5 -48q0 -18 6.5 -44.5t7.5 -43.5q1 -28 -6.5 -68t-7.5 -65q0 -23 10 -100q2 -17 -5.5 -34t-23.5 -17q-30 -2 -39 29q-2 8 -2 34q-35 -17 -69 -34q-43 -17 -106 -17q-64 5 -109 24q-108 45 -108 154q0 118 56 198 q60 86 161 86q103 1 172 -75q0 8 -1 23t-1 22q1 10 5 20q8 18 34 20zM404 322q-30 16 -55 17t-34 5q-18 8 -22 43q-28 2 -52 -3q-126 -24 -136 -202q-4 -74 42 -104q32 -22 104 -26q61 -5 109.5 32.5t58.5 97.5q3 19 0 54q0 71 1 47q-1 24 -16 39zM331 599q17 -16 34 -33 q18 -20 18 -37t-13.5 -28.5t-31.5 -11.5q-24 0 -29 15.5t-9 30.5q-11 18 -22 32q-13 -12 -28 -33l-18 -32q-12 -17 -31 -17q-38 0 -36 40q1 12 21 32q17 16 35 32q2 3 38 45q18 21 25 21q6 0 19 -18q18 -27 28 -38z" />
<glyph unicode="&#xe3;" horiz-adv-x="540" d="M460 458q15 1 29.5 -6t13.5 -18q0 -11 -8.5 -40t-8.5 -48q0 -18 6.5 -44.5t7.5 -43.5q1 -28 -6.5 -68t-7.5 -65q0 -23 10 -100q2 -17 -5.5 -34t-23.5 -17q-30 -2 -39 29q-2 8 -2 34q-35 -17 -69 -34q-43 -17 -106 -17q-64 5 -109 24q-108 45 -108 154q0 118 56 198 q60 86 161 86q103 1 172 -75q0 8 -1 23t-1 22q1 10 5 20q8 18 34 20zM404 322q-30 16 -55 17t-34 5q-18 8 -22 43q-28 2 -52 -3q-126 -24 -136 -202q-4 -74 42 -104q32 -22 104 -26q61 -5 109.5 32.5t58.5 97.5q3 19 0 54q0 71 1 47q-1 24 -16 39zM318 581.5 q8 -8.5 13 -14.5q13 9 23 24q3 10 13 29q14 16 30 16t28 -11t9 -25q-3 -15 -30 -50q-22 -28 -47 -45q-21 -14 -41 -5q-17 7 -27 20q-14 20 -27 40l-35 -26q-5 -18 -20.5 -29t-32.5 -8q-30 5 -30 33q0 8 15 27q10 7 32 24q8 12 31 36q30 21 43 20q13 -2 23 -14 q7 -12 14.5 -22.5t15.5 -19z" />
<glyph unicode="&#xe4;" horiz-adv-x="540" d="M460 458q15 1 29.5 -6t13.5 -18q0 -11 -8.5 -40t-8.5 -48q0 -18 6.5 -44.5t7.5 -43.5q1 -28 -6.5 -68t-7.5 -65q0 -23 10 -100q2 -17 -5.5 -34t-23.5 -17q-30 -2 -39 29q-2 8 -2 34q-35 -17 -69 -34q-43 -17 -106 -17q-64 5 -109 24q-108 45 -108 154q0 118 56 198 q60 86 161 86q103 1 172 -75q0 8 -1 23t-1 22q1 10 5 20q8 18 34 20zM404 322q-30 16 -55 17t-34 5q-18 8 -22 43q-28 2 -52 -3q-126 -24 -136 -202q-4 -74 42 -104q32 -22 104 -26q61 -5 109.5 32.5t58.5 97.5q3 19 0 54q0 71 1 47q-1 24 -16 39zM246 558q1 -21 -16 -35.5 t-39 -14.5q-21 0 -38.5 13t-17.5 33q-2 48 62 48q17 0 33 -13.5t16 -30.5zM409 567q0 -22 -16 -36.5t-37 -14.5q-20 0 -37.5 14.5t-18.5 32.5q-1 21 14 35t36 14q22 0 40.5 -13t18.5 -32z" />
<glyph unicode="&#xe5;" horiz-adv-x="540" d="M460 458q15 1 29.5 -6t13.5 -18q0 -11 -8.5 -40t-8.5 -48q0 -18 6.5 -44.5t7.5 -43.5q1 -28 -6.5 -68t-7.5 -65q0 -23 10 -100q2 -17 -5.5 -34t-23.5 -17q-30 -2 -39 29q-2 8 -2 34q-35 -17 -69 -34q-43 -17 -106 -17q-64 5 -109 24q-108 45 -108 154q0 118 56 198 q60 86 161 86q103 1 172 -75q0 8 -1 23t-1 22q1 10 5 20q8 18 34 20zM404 322q-30 16 -55 17t-34 5q-18 8 -22 43q-28 2 -52 -3q-126 -24 -136 -202q-4 -74 42 -104q32 -22 104 -26q61 -5 109.5 32.5t58.5 97.5q3 19 0 54q0 71 1 47q-1 24 -16 39zM197 560q0 21 23 47t50 26 q24 0 52 -18q33 -21 33 -49t-18 -51q-21 -28 -55 -28q-26 0 -54 21q-31 24 -31 52zM279 536q11 0 19 9t8 17q0 9 -12 19t-19 10q-10 0 -19 -7.5t-9 -18.5q0 -9 12 -19t20 -10z" />
<glyph unicode="&#xe6;" horiz-adv-x="887" d="M484 349q71 109 176 111q71 1 119 -61q43 -57 48 -136q1 -16 -7.5 -30t-22.5 -14q-19 3 -59 5q-42 -4 -135 -8q-27 -2 -90 -4l-1 -30q-2 -45 46.5 -93t102.5 -47q67 1 113 73q24 39 47 34q15 1 25 -12t10 -29q-8 -51 -71.5 -92t-130.5 -42q-89 -2 -158 75q0 -3 1.5 -10 t1.5 -11q2 -51 -27 -52q-31 -1 -39 29q-4 35 -4 34q-34 -18 -69 -36q-41 -17 -105 -18q-64 4 -109 22q-109 43 -111 152q-2 118 53 199q58 87 158 89q105 2 174 -72q0 -6 -2 34q-1 18 4 31q8 20 34 20q42 0 43 -23q0 -12 -7.5 -40.5t-7.5 -47.5zM402 323q-30 16 -66 17 q-13 0 -23 4q-21 9 -24 42q-10 0 -26 -1.5t-25 -1.5q-125 -27 -132 -205q-2 -74 44 -104q33 -20 104 -23q62 -3 109.5 34.5t56.5 98.5q3 19 -1 54v47q-1 23 -17 38zM533 277q30 -2 53 -2q22 0 54.5 3t106.5 11l-2 24q-3 32 -30.5 56t-55.5 24q-43 -1 -82.5 -36.5 t-43.5 -79.5z" />
<glyph unicode="&#xe7;" horiz-adv-x="495" d="M201 -14q-86 11 -131 68q-41 53 -41 133q0 109 57 179q62 78 171 78q70 0 130 -30q76 -38 76 -101q0 -50 -32 -50q-34 0 -45 25q-9 22 -19 45q-36 46 -108 46q-73 0 -116.5 -54t-43.5 -140q0 -58 34 -93q36 -38 104 -38q46 0 69.5 15.5t38 58.5t42.5 43q17 0 31 -14 t14 -31q0 -51 -60 -95q-53 -39 -108 -45q0 -9 1.5 -14t1.5 -11q4 -13 38 -29q31 -15 34 -45t-24 -55q-22 -21 -52 -28q-16 -3 -32 -3q-66 0 -103 50q-6 9 -6 19q0 11 9 19.5t21 8.5q14 0 24 -12q25 -30 65 -30q11 0 22 7.5t11 17.5q0 9 -28 23q-31 16 -38 31t-7 51z" />
<glyph unicode="&#xe8;" horiz-adv-x="476" d="M254 459q71 0 117 -63q43 -57 47 -136q1 -16 -8 -30t-24 -14q-11 0 -29.5 3t-29.5 3q-29 1 -67 -2q-49 -4 -67 -4q-87 -2 -91 -2l-2 -30q-3 -45 45.5 -94t101.5 -49q66 0 114 72q25 37 48 33q16 -2 26.5 -14.5t7.5 -27.5q-8 -51 -72.5 -90.5t-131.5 -39.5 q-81 0 -147 66.5t-66 154.5q0 96 65 177q68 87 163 87zM117 281q47 -4 107 -2q33 4 108 10l-3 24q-2 32 -29 56.5t-55 24.5q-42 0 -82.5 -34.5t-45.5 -78.5zM253 596q61 -28 87 -48q6 -6 6 -18t-4 -19q-7 -23 -29 -19q-11 2 -36 17q-28 16 -45 21q-64 18 -76 34q-7 12 -7 25 q0 14 10 29t24 15q12 0 34 -14q29 -20 36 -23z" />
<glyph unicode="&#xe9;" horiz-adv-x="476" d="M254 459q71 0 117 -63q43 -57 47 -136q1 -16 -8 -30t-24 -14q-11 0 -29.5 3t-29.5 3q-29 1 -67 -2q-49 -4 -67 -4q-87 -2 -91 -2l-2 -30q-3 -45 45.5 -94t101.5 -49q66 0 114 72q25 37 48 33q16 -2 26.5 -14.5t7.5 -27.5q-8 -51 -72.5 -90.5t-131.5 -39.5 q-81 0 -147 66.5t-66 154.5q0 96 65 177q68 87 163 87zM117 281q47 -4 107 -2q33 4 108 10l-3 24q-2 32 -29 56.5t-55 24.5q-42 0 -82.5 -34.5t-45.5 -78.5zM341 586q0 -13 -8 -25q-12 -16 -75 -34q-18 -5 -44.5 -20.5t-37.5 -17.5q-22 -4 -29 19q-4 7 -4 19q1 12 6 18 q26 20 87 48q7 3 36 23q22 14 34 14q14 0 24.5 -15t10.5 -29z" />
<glyph unicode="&#xea;" horiz-adv-x="476" d="M254 459q71 0 117 -63q43 -57 47 -136q1 -16 -8 -30t-24 -14q-11 0 -29.5 3t-29.5 3q-29 1 -67 -2q-49 -4 -67 -4q-87 -2 -91 -2l-2 -30q-3 -45 45.5 -94t101.5 -49q66 0 114 72q25 37 48 33q16 -2 26.5 -14.5t7.5 -27.5q-8 -51 -72.5 -90.5t-131.5 -39.5 q-81 0 -147 66.5t-66 154.5q0 96 65 177q68 87 163 87zM117 281q47 -4 107 -2q33 4 108 10l-3 24q-2 32 -29 56.5t-55 24.5q-42 0 -82.5 -34.5t-45.5 -78.5zM310 603q17 -16 34 -33q18 -20 18 -37t-13.5 -28.5t-31.5 -11.5q-24 0 -29 15.5t-9 30.5q-11 18 -22 32 q-13 -12 -28 -33l-18 -32q-12 -17 -31 -17q-38 0 -36 40q1 12 21 32q17 16 35 32q2 3 38 45q18 21 25 21q6 0 19 -18q18 -27 28 -38z" />
<glyph unicode="&#xeb;" horiz-adv-x="473" d="M254 459q71 0 117 -63q43 -57 47 -136q1 -16 -8 -30t-24 -14q-11 0 -29.5 3t-29.5 3q-29 1 -67 -2q-49 -4 -67 -4q-87 -2 -91 -2l-2 -30q-3 -45 45.5 -94t101.5 -49q66 0 114 72q25 37 48 33q16 -2 26.5 -14.5t7.5 -27.5q-8 -51 -72.5 -90.5t-131.5 -39.5 q-81 0 -147 66.5t-66 154.5q0 96 65 177q68 87 163 87zM117 281q47 -4 107 -2q33 4 108 10l-3 24q-2 32 -29 56.5t-55 24.5q-42 0 -82.5 -34.5t-45.5 -78.5zM221 548q1 -21 -16 -35.5t-39 -14.5q-21 0 -38.5 13t-17.5 33q-2 48 62 48q17 0 33 -13.5t16 -30.5zM384 557 q0 -22 -16 -36.5t-37 -14.5q-20 0 -37.5 14.5t-18.5 32.5q-1 21 14 35t36 14q22 0 40.5 -13t18.5 -32z" />
<glyph unicode="&#xec;" horiz-adv-x="195" d="M138 415q1 -23 1 -51q0 -29 -4 -127q-3 -79 -1 -123q1 -10 7.5 -26.5t6.5 -27.5q-1 -75 -49 -78q-16 -1 -28 14t-11 30q2 20 5 65q1 29 0 66q-1 52 -1 68v178q4 63 45 60q21 -1 26 -17q1 -4 3 -31zM105 602q61 -28 87 -48q6 -6 6 -18t-4 -19q-7 -23 -29 -19q-11 2 -36 17 q-28 16 -45 21q-64 18 -76 34q-7 12 -7 25q0 14 10 29t24 15q12 0 34 -14q29 -20 36 -23z" />
<glyph unicode="&#xed;" horiz-adv-x="195" d="M133 415q1 -23 1 -51q0 -29 -4 -127q-3 -79 -1 -123q1 -10 7.5 -26.5t6.5 -27.5q-1 -75 -49 -78q-16 -1 -28 14t-11 30q2 20 5 65q1 29 0 66q-1 52 -1 68v178q4 63 45 60q21 -1 26 -17q1 -4 3 -31zM196 610q0 -13 -8 -25q-12 -16 -75 -34q-18 -5 -44.5 -20.5t-37.5 -17.5 q-22 -4 -29 19q-4 7 -4 19q1 12 6 18q26 20 87 48q7 3 36 23q22 14 34 14q14 0 24.5 -15t10.5 -29z" />
<glyph unicode="&#xee;" horiz-adv-x="195" d="M141 415q1 -23 1 -51q0 -29 -4 -127q-3 -79 -1 -123q1 -10 7.5 -26.5t6.5 -27.5q-1 -75 -49 -78q-16 -1 -28 14t-11 30q2 20 5 65q1 29 0 66q-1 52 -1 68v178q4 63 45 60q21 -1 26 -17q1 -4 3 -31zM174 614q17 -16 34 -33q18 -20 18 -37t-13.5 -28.5t-31.5 -11.5 q-24 0 -29 15.5t-9 30.5q-11 18 -22 32q-13 -12 -28 -33l-18 -32q-12 -17 -31 -17q-38 0 -36 40q1 12 21 32q17 16 35 32q2 3 38 45q18 21 25 21q6 0 19 -18q18 -27 28 -38z" />
<glyph unicode="&#xef;" horiz-adv-x="197" d="M142 415q1 -23 1 -51q0 -29 -4 -127q-3 -79 -1 -123q1 -10 7.5 -26.5t6.5 -27.5q-1 -75 -49 -78q-16 -1 -28 14t-11 30q2 20 5 65q1 29 0 66q-1 52 -1 68v178q4 63 45 60q21 -1 26 -17q1 -4 3 -31zM88 554q1 -21 -16 -35.5t-39 -14.5q-21 0 -38.5 13t-17.5 33 q-2 48 62 48q17 0 33 -13.5t16 -30.5zM251 563q0 -22 -16 -36.5t-37 -14.5q-20 0 -37.5 14.5t-18.5 32.5q-1 21 14 35t36 14q22 0 40.5 -13t18.5 -32z" />
<glyph unicode="&#xf0;" horiz-adv-x="440" d="M279 564q-23 38 -31 48q-20 22 -47 22q-39 0 -62 -28t-21 -74q1 -20 -11.5 -36.5t-31.5 -16.5q-35 0 -35 69q7 67 52 108t109 41q83 0 138 -104q33 19 52 19q12 0 22.5 -9.5t10.5 -21.5q0 -25 -56 -55q22 -52 22 -108q0 -21 -3 -53l-3 -38q25 0 25 -38q0 -16 -31 -25 l-3 -31q-7 -70 -29 -120q-22 -53 -36 -74q-22 -35 -58 -56q-44 0 -71 6q-84 20 -118 67q-27 38 -32 113q-7 102 45 177q55 79 144 76q24 -1 104 -31l-6 41q0 20 -10 63q-33 -16 -51 -16q-31 0 -31 30q0 26 53 55zM219 355q-57 0 -96 -64q-34 -54 -34 -110q0 -54 38.5 -94 t91.5 -40q35 0 76 109q16 42 20 118l2 40q-53 41 -98 41z" />
<glyph unicode="&#xf1;" horiz-adv-x="438" d="M107 404q52 53 135 53q69 0 114 -39q11 -10 29 -41q15 -25 19 -53q3 -16 0 -37q-4 -31 -4 -39q-4 -124 0 -176q0 -4 4 -22q2 -11 0 -21q-8 -35 -38 -40q-22 -3 -33 23q-5 13 -11 51q-2 16 4 39.5t7 36.5l2 143q0 -5 -2 38q0 10 -5 29q-5 12 -19 30q-23 18 -57 18 q-20 0 -69 -22q-24 -11 -48 -38q-10 -6 -26 -23q-6 -15 -7 -34q1 -18 1 -36l-4 -215q1 -15 -2 -44q-8 -21 -32 -21q-29 0 -34 23q-3 9 0 23q3 19 3 26l2 303q0 22 2 69q3 36 31 36q15 0 27.5 -12.5t10.5 -27.5zM258 576.5q8 -8.5 13 -14.5q13 9 23 24q3 10 13 29 q14 16 30 16t28 -11t9 -25q-3 -15 -30 -50q-22 -28 -47 -45q-21 -14 -41 -5q-17 7 -27 20q-14 20 -27 40l-35 -26q-5 -18 -20.5 -29t-32.5 -8q-30 5 -30 33q0 8 15 27q10 7 32 24q8 12 31 36q30 21 43 20q13 -2 23 -14q7 -12 14.5 -22.5t15.5 -19z" />
<glyph unicode="&#xf2;" horiz-adv-x="568" d="M368 440q4 -1 56 -16q34 -9 54 -26q37 -32 53 -84q7 -26 7 -51q0 -27 -14 -82q-24 -97 -90 -149q-72 -57 -165 -57q-113 0 -174 59q-37 35 -52 79q-11 36 -14 98q-3 104 38 164q37 52 106 80q57 23 110 19q31 -3 46 -9q11 -5 39 -25zM356 379q-20 -5 -44 -2q-33 4 -55 29 q-20 -5 -59 -23q-37 -21 -64 -74q-28 -56 -28 -115q0 -64 47 -107.5t112 -44.5q90 -1 156 103q33 52 35 143q1 70 -100 91zM282 607q61 -28 87 -48q6 -6 6 -18t-4 -19q-7 -23 -29 -19q-11 2 -36 17q-28 16 -45 21q-64 18 -76 34q-7 12 -7 25q0 14 10 29t24 15q12 0 34 -14 q29 -20 36 -23z" />
<glyph unicode="&#xf3;" horiz-adv-x="568" d="M368 440q4 -1 56 -16q34 -9 54 -26q37 -32 53 -84q7 -26 7 -51q0 -27 -14 -82q-24 -97 -90 -149q-72 -57 -165 -57q-113 0 -174 59q-37 35 -52 79q-11 36 -14 98q-3 104 38 164q37 52 106 80q57 23 110 19q31 -3 46 -9q11 -5 39 -25zM356 379q-20 -5 -44 -2q-33 4 -55 29 q-20 -5 -59 -23q-37 -21 -64 -74q-28 -56 -28 -115q0 -64 47 -107.5t112 -44.5q90 -1 156 103q33 52 35 143q1 70 -100 91zM389 597q0 -13 -8 -25q-12 -16 -75 -34q-18 -5 -44.5 -20.5t-37.5 -17.5q-22 -4 -29 19q-4 7 -4 19q1 12 6 18q26 20 87 48q7 3 36 23q22 14 34 14 q14 0 24.5 -15t10.5 -29z" />
<glyph unicode="&#xf4;" horiz-adv-x="568" d="M368 440q4 -1 56 -16q34 -9 54 -26q37 -32 53 -84q7 -26 7 -51q0 -27 -14 -82q-24 -97 -90 -149q-72 -57 -165 -57q-113 0 -174 59q-37 35 -52 79q-11 36 -14 98q-3 104 38 164q37 52 106 80q57 23 110 19q31 -3 46 -9q11 -5 39 -25zM356 379q-20 -5 -44 -2q-33 4 -55 29 q-20 -5 -59 -23q-37 -21 -64 -74q-28 -56 -28 -115q0 -64 47 -107.5t112 -44.5q90 -1 156 103q33 52 35 143q1 70 -100 91zM354 614q17 -16 34 -33q18 -20 18 -37t-13.5 -28.5t-31.5 -11.5q-24 0 -29 15.5t-9 30.5q-11 18 -22 32q-13 -12 -28 -33l-18 -32q-12 -17 -31 -17 q-38 0 -36 40q1 12 21 32q17 16 35 32q2 3 38 45q18 21 25 21q6 0 19 -18q18 -27 28 -38z" />
<glyph unicode="&#xf5;" horiz-adv-x="568" d="M368 440q4 -1 56 -16q34 -9 54 -26q37 -32 53 -84q7 -26 7 -51q0 -27 -14 -82q-24 -97 -90 -149q-72 -57 -165 -57q-113 0 -174 59q-37 35 -52 79q-11 36 -14 98q-3 104 38 164q37 52 106 80q57 23 110 19q31 -3 46 -9q11 -5 39 -25zM356 379q-20 -5 -44 -2q-33 4 -55 29 q-20 -5 -59 -23q-37 -21 -64 -74q-28 -56 -28 -115q0 -64 47 -107.5t112 -44.5q90 -1 156 103q33 52 35 143q1 70 -100 91zM325 591.5q8 -8.5 13 -14.5q13 9 23 24q3 10 13 29q14 16 30 16t28 -11t9 -25q-3 -15 -30 -50q-22 -28 -47 -45q-21 -14 -41 -5q-17 7 -27 20 q-14 20 -27 40l-35 -26q-5 -18 -20.5 -29t-32.5 -8q-30 5 -30 33q0 8 15 27q10 7 32 24q8 12 31 36q30 21 43 20q13 -2 23 -14q7 -12 14.5 -22.5t15.5 -19z" />
<glyph unicode="&#xf6;" horiz-adv-x="568" d="M368 440q4 -1 56 -16q34 -9 54 -26q37 -32 53 -84q7 -26 7 -51q0 -27 -14 -82q-24 -97 -90 -149q-72 -57 -165 -57q-113 0 -174 59q-37 35 -52 79q-11 36 -14 98q-3 104 38 164q37 52 106 80q57 23 110 19q31 -3 46 -9q11 -5 39 -25zM356 379q-20 -5 -44 -2q-33 4 -55 29 q-20 -5 -59 -23q-37 -21 -64 -74q-28 -56 -28 -115q0 -64 47 -107.5t112 -44.5q90 -1 156 103q33 52 35 143q1 70 -100 91zM255 551q1 -21 -16 -35.5t-39 -14.5q-21 0 -38.5 13t-17.5 33q-2 48 62 48q17 0 33 -13.5t16 -30.5zM418 560q0 -22 -16 -36.5t-37 -14.5 q-20 0 -37.5 14.5t-18.5 32.5q-1 21 14 35t36 14q22 0 40.5 -13t18.5 -32z" />
<glyph unicode="&#xf7;" horiz-adv-x="454" d="M47 201q0 31 59 42q12 2 28 -1q20 -4 29 -4q37 0 93 7.5t82 7.5q73 0 73 -40q0 -41 -48 -41q-10 0 -29 2t-27 2q-33 0 -70 -7.5t-71 -7.5q-6 0 -24.5 -1.5t-29.5 -1.5q-65 0 -65 43zM278 67q0 -27 -17 -47q-18 -23 -41 -18q-36 7 -38 57q-2 58 38 58q7 0 14 -2 q44 -13 44 -48zM278 347q0 -49 -44 -49q-51 0 -52 41q-1 27 10 47.5t31 20.5q22 0 38.5 -18.5t16.5 -41.5z" />
<glyph unicode="&#xf8;" horiz-adv-x="577" d="M98 34q-65 63 -65 177q0 59 5 86q7 42 33 78q36 52 105 80q47 19 110 19q37 0 63 -19q8 14 24 44q12 22 32 22q32 0 32 -35q0 -18 -20 -60q43 -10 64 -28q37 -32 53 -84q7 -26 7 -51q0 -27 -14 -82q-24 -97 -90 -149q-71 -57 -164 -57q-33 0 -93 9q-24 -38 -45 -38 q-32 0 -38 27q0 14 20 44q-11 9 -19 17zM311 381q-29 0 -51 25q-19 -5 -59 -23q-37 -21 -66.5 -77t-29.5 -114q0 -59 52 -107q49 90 97 180q62 116 57 116zM214 47q0 -5 10 -6q7 -1 23 0q18 1 21 1q90 -1 156 103q33 52 35 143q1 56 -68 81q-11 4 -177 -322z" />
<glyph unicode="&#xf9;" horiz-adv-x="454" d="M398 461q0 -6 8 -208q20 -25 19 -35q-7 -29 -16 -95q0 -13 4 -33t4 -29q0 -12 -4 -23q-3 -16 -7.5 -31t-30.5 -16q-33 -2 -38 31q-53 -47 -144 -47q-97 0 -136 53q-30 41 -30 124q0 63 15 113q10 35 42 101q8 18 16.5 36t21.5 31q6 7 11.5 14t20.5 8q17 1 31.5 -12.5 t10.5 -28.5q-7 -29 -30 -61q-25 -35 -32 -55q-19 -51 -24 -72q-8 -34 -9 -82q-1 -52 8 -68q16 -30 80 -30q117 0 138 107q5 24 7 71q1 61 -10 177q0 4 -6 27q-3 15 0 27q13 47 44 44q33 -3 36 -38zM229 610q61 -28 87 -48q6 -6 6 -18t-4 -19q-7 -23 -29 -19q-11 2 -36 17 q-28 16 -45 21q-64 18 -76 34q-7 12 -7 25q0 14 10 29t24 15q12 0 34 -14q29 -20 36 -23z" />
<glyph unicode="&#xfa;" horiz-adv-x="454" d="M398 461q0 -6 8 -208q20 -25 19 -35q-7 -29 -16 -95q0 -13 4 -33t4 -29q0 -12 -4 -23q-3 -16 -7.5 -31t-30.5 -16q-33 -2 -38 31q-53 -47 -144 -47q-97 0 -136 53q-30 41 -30 124q0 63 15 113q10 35 42 101q8 18 16.5 36t21.5 31q6 7 11.5 14t20.5 8q17 1 31.5 -12.5 t10.5 -28.5q-7 -29 -30 -61q-25 -35 -32 -55q-19 -51 -24 -72q-8 -34 -9 -82q-1 -52 8 -68q16 -30 80 -30q117 0 138 107q5 24 7 71q1 61 -10 177q0 4 -6 27q-3 15 0 27q13 47 44 44q33 -3 36 -38zM330 602q0 -13 -8 -25q-12 -16 -75 -34q-18 -5 -44.5 -20.5t-37.5 -17.5 q-22 -4 -29 19q-4 7 -4 19q1 12 6 18q26 20 87 48q7 3 36 23q22 14 34 14q14 0 24.5 -15t10.5 -29z" />
<glyph unicode="&#xfb;" horiz-adv-x="454" d="M398 461q0 -6 8 -208q20 -25 19 -35q-7 -29 -16 -95q0 -13 4 -33t4 -29q0 -12 -4 -23q-3 -16 -7.5 -31t-30.5 -16q-33 -2 -38 31q-53 -47 -144 -47q-97 0 -136 53q-30 41 -30 124q0 63 15 113q10 35 42 101q8 18 16.5 36t21.5 31q6 7 11.5 14t20.5 8q17 1 31.5 -12.5 t10.5 -28.5q-7 -29 -30 -61q-25 -35 -32 -55q-19 -51 -24 -72q-8 -34 -9 -82q-1 -52 8 -68q16 -30 80 -30q117 0 138 107q5 24 7 71q1 61 -10 177q0 4 -6 27q-3 15 0 27q13 47 44 44q33 -3 36 -38zM294 614q17 -16 34 -33q18 -20 18 -37t-13.5 -28.5t-31.5 -11.5 q-24 0 -29 15.5t-9 30.5q-11 18 -22 32q-13 -12 -28 -33l-18 -32q-12 -17 -31 -17q-38 0 -36 40q1 12 21 32q17 16 35 32q2 3 38 45q18 21 25 21q6 0 19 -18q18 -27 28 -38z" />
<glyph unicode="&#xfc;" horiz-adv-x="454" d="M398 461q0 -6 8 -208q20 -25 19 -35q-7 -29 -16 -95q0 -13 4 -33t4 -29q0 -12 -4 -23q-3 -16 -7.5 -31t-30.5 -16q-33 -2 -38 31q-53 -47 -144 -47q-97 0 -136 53q-30 41 -30 124q0 63 15 113q10 35 42 101q8 18 16.5 36t21.5 31q6 7 11.5 14t20.5 8q17 1 31.5 -12.5 t10.5 -28.5q-7 -29 -30 -61q-25 -35 -32 -55q-19 -51 -24 -72q-8 -34 -9 -82q-1 -52 8 -68q16 -30 80 -30q117 0 138 107q5 24 7 71q1 61 -10 177q0 4 -6 27q-3 15 0 27q13 47 44 44q33 -3 36 -38zM207 557q1 -21 -16 -35.5t-39 -14.5q-21 0 -38.5 13t-17.5 33q-2 48 62 48 q17 0 33 -13.5t16 -30.5zM370 566q0 -22 -16 -36.5t-37 -14.5q-20 0 -37.5 14.5t-18.5 32.5q-1 21 14 35t36 14q22 0 40.5 -13t18.5 -32z" />
<glyph unicode="&#xfd;" horiz-adv-x="542" d="M224 -14q-10 11 -5 56q3 23 4 296q-10 24 -31 55q-9 12 -77 124q-11 22 -41 69q-13 12 -26 23q-19 17 -19 35q0 28 3 35q6 17 29 19t36.5 -10t35.5 -46q15 -23 29 -55q19 -43 26 -56q28 -53 77 -126q21 37 72 123q57 97 99 157q20 29 50 28q15 -1 21 -7q1 -2 6 -15t5 -23 q0 -14 -12 -27q-18 -20 -20 -22q-43 -63 -87 -126q-55 -80 -79 -136q-5 -13 -7 -33q-2 -28 -6 -43q1 -87 -1 -218q0 -1 3.5 -15t3.5 -25q0 -10 -3.5 -18.5t-7.5 -18.5q-6 -6 -35 -12q-6 -3 -22.5 2.5t-20.5 9.5zM380 821q0 -13 -8 -25q-12 -16 -75 -34q-18 -5 -44.5 -20.5 t-37.5 -17.5q-22 -4 -29 19q-4 7 -4 19q1 12 6 18q26 20 87 48q7 3 36 23q22 14 34 14q14 0 24.5 -15t10.5 -29z" />
<glyph unicode="&#xfe;" horiz-adv-x="521" d="M268 0q-72 0 -99 12l-42 26q9 -97 5 -133q-1 -8 0 -24q3 -18 3 -24q0 -36 -52 -36q-33 0 -33 32q0 12 8 47q7 32 6 47q-6 132 -4 230q-4 22 -8 69q6 44 12 125q0 2 4 47q3 37 1 63q-2 52 -16 111q-3 20 9 38t31 16q28 -1 33 -50q6 -31 12 -100q1 -38 -2 -104 q72 56 168 56q83 0 138 -71q52 -68 50 -158q-3 -96 -59 -155q-60 -64 -165 -64zM420 232q0 63 -42 111q-33 38 -70 49q-5 1 -13 1q-41 0 -102.5 -36.5t-60.5 -59.5q-2 -15 0 -46q1 -10 10.5 -27t10.5 -28q-4 -18 -5 -57q9 -78 125 -78q147 0 147 171z" />
<glyph unicode="&#xff;" horiz-adv-x="454" d="M414 415q3 -22 2 -52q-2 -28 -3 -56q-1 -43 -9 -139q-2 -14 -8 -48q10 -14 10 -29q0 -9 -5 -17q-9 -14 -9 -15l-5 -46q0 -14 -4 -42q-38 -234 -234 -232q-59 0 -99.5 32t-40.5 80q0 36 13 64q17 36 50 34q17 0 20 -13q0 -12 1 -24q1 -11 -7.5 -25t-7.5 -24q4 -55 65 -57 q71 -1 122 51t51 124v36q-55 -43 -124 -38q-104 7 -138 71q-21 40 -22 139q-2 174 65 238q28 27 44 25q29 -5 31 -36q0 -18 -12 -28q-18 -14 -21 -20q-21 -39 -30 -120q-14 -126 9 -171q9 -19 61 -26q14 -2 28 -2q67 0 100 48q19 27 24 69l10 108q3 32 1 83q0 6 -4 25 q-4 14 -1 24q11 47 38 47q33 0 39 -38zM217 547q1 -21 -16 -35.5t-39 -14.5q-21 0 -38.5 13t-17.5 33q-2 48 62 48q17 0 33 -13.5t16 -30.5zM380 556q0 -22 -16 -36.5t-37 -14.5q-20 0 -37.5 14.5t-18.5 32.5q-1 21 14 35t36 14q22 0 40.5 -13t18.5 -32z" />
<glyph unicode="&#x131;" horiz-adv-x="189" d="M133 415q1 -23 1 -51q0 -29 -4 -127q-3 -79 -1 -123q1 -10 7.5 -26.5t6.5 -27.5q-1 -75 -49 -78q-16 -1 -28 14t-11 30q2 20 5 65q1 29 0 66q-1 52 -1 68v178q4 63 45 60q21 -1 26 -17q1 -4 3 -31z" />
<glyph unicode="&#x141;" horiz-adv-x="524" d="M86 481q-9 62 -23 171q0 20 13 36.5t31 16.5q25 0 36 -43q2 -9 1 -22q-3 -17 -3 -23q0 -21 5.5 -57.5t5.5 -53.5q43 20 64 20q22 0 25 -21q6 -40 -84 -70q0 -12 1.5 -39t1.5 -43q0 -56 -8 -123q-11 -98 -13 -124q46 -8 152 -24q45 -3 151 -17q63 -11 53 -45 q-7 -24 -25 -29h-34q-35 5 -128 27q-77 18 -133 22q-10 1 -25 -1.5t-24 -2.5q0 -45 -44 -45q-21 0 -21 29q-15 0 -26.5 10t-11.5 25q0 14 17 23q15 6 29 11q24 136 24 288q0 7 -1 20v19q-19 -5 -29 -5q-22 0 -30 18q-3 6 -3 12q0 22 56 40z" />
<glyph unicode="&#x142;" horiz-adv-x="252" d="M81 493q2 20 6 86q4 61 7 81q8 39 29 37q43 -4 43 -59q0 -16 -4 -46q-4 -36 -5 -48l-1 -18l15 5q17 4 28 4q29 0 29 -27q0 -37 -64 -49l-15 -5v-17v-62q-1 -38 -1 -63q0 -86 8 -217q2 -25 3 -50q1 -37 -10 -45q-15 -11 -27 -11q-32 0 -37 72q-3 57 -1.5 172t-2.5 172 l-1 16q-1 0 -11.5 -2t-17.5 -2q-22 0 -29 20q-2 6 -2 11q0 26 47 40z" />
<glyph unicode="&#x152;" horiz-adv-x="922" d="M317 -13q-57 0 -140 40q-26 12 -52 25.5t-39 35.5q-3 8 -10 24q-8 12 -24 43q-26 56 -26 120q0 145 81 263q102 148 255 148q73 0 141 -55q33 -28 56 -59v27q-22 8 -22 29q0 26 28 40q0 3 -1 8t-1 8q0 30 21 30q16 0 26 -14q18 -22 19 -23q32 5 100 18q34 9 69 18.5 t61 6.5q32 0 39 -31q4 -17 -10.5 -33t-32.5 -16h-53q-11 0 -30 -5.5t-31 -5.5q-21 -3 -54.5 -9.5t-54.5 -10.5q-12 -110 -12 -203q18 0 45.5 -1.5t45.5 -1.5q22 0 60 -6t55.5 -6t30 -10.5t12.5 -26.5q0 -14 -11.5 -23.5t-25.5 -9.5q-29 0 -84 11q-51 9 -85 7q-15 0 -45 -6 q-16 -45 -16 -115q0 5 2 -61q1 -33 -3 -61q0 -3 -3.5 -9t-3.5 -9q31 -3 109 -3q24 0 61.5 7t57.5 7q49 0 49 -30q0 -16 -12.5 -28t-27.5 -12h-39q-26 1 -43 1q-24 0 -62.5 -1t-62.5 -1q-7 0 -19 -5.5t-20 -5.5q0 -30 -29 -30q-13 0 -23 9.5t-10 21.5q-22 0 -22 27 q0 13 9.5 27t16.5 14l4 39q-48 -71 -98.5 -99.5t-115.5 -28.5zM528 371q0 15 13 24v3q0 67 -30 123q-24 44 -71 69.5t-97 25.5q-87 0 -164 -101q-69 -92 -80 -187q-3 -27 -3 -61q0 -61 30 -109q32 -51 90 -73q12 -4 29 -4q7 0 19 1h19q20 0 29 -8q14 -14 14 -27q33 0 54 11 q62 31 107 119q40 79 50 168q-9 12 -9 26z" />
<glyph unicode="&#x153;" horiz-adv-x="903" d="M480 95q-16 -27 -51 -56q-70 -59 -163 -60q-59 -1 -95 9q-44 12 -80 47q-65 61 -68 176q-1 57 3 85q7 43 32 80q36 54 103 82q52 22 111 20q33 -1 51 -9q1 -1 35 -23q2 0 56 -15q33 -9 53 -25q27 -21 37 -42q66 99 170 101q71 2 119 -60q44 -57 49 -136q1 -16 -8 -30 t-23 -15q-19 3 -59 5q-42 -3 -135 -8q-16 0 -44 -1.5t-47 -1.5l-1 -30q-1 -45 47 -92q49 -50 103 -49q65 1 112 74q25 38 49 35q15 0 24 -13t9 -29q-7 -52 -70.5 -92.5t-131.5 -41.5q-52 -1 -103.5 32t-83.5 83zM346 385q-19 -6 -44 -3q-33 5 -56 29q-19 -7 -58 -25 q-36 -22 -62 -75q-27 -56 -26 -115q1 -64 48 -107t113 -43q90 0 155 107q31 51 31 143q0 71 -101 89zM540 285q45 -2 107 0q33 4 108 12l-2 23q-3 32 -31 56.5t-56 23.5q-42 -1 -81.5 -36t-44.5 -79z" />
<glyph unicode="&#x160;" horiz-adv-x="461" d="M346 487q-6 10 -8 37t-10 41q-32 58 -71 58q-34 0 -78 -50q-47 -54 -42 -106q5 -60 109 -142q58 -45 78 -67q33 -37 34 -75q1 -85 -48 -141.5t-127 -56.5q-74 0 -118 41q-42 38 -42 97q0 9 1 18q11 96 47 96q17 0 33.5 -16.5t14.5 -34.5q-2 -17 -13 -34t-9 -31 q3 -28 27 -44.5t56 -18.5q44 -2 73.5 32t24.5 82q-4 29 -27 55q-9 10 -50 44q-65 53 -95 88q-46 54 -46 101q0 85 70 163q67 74 126 73q103 -2 152 -131q2 -5 16 -26q10 -15 9 -28q-2 -19 -14.5 -33.5t-31.5 -14.5q-27 0 -41 24zM196 784l-33 33q-19 20 -19 37t13.5 28.5 t31.5 11.5q24 0 29 -15.5t9 -29.5q11 -19 22 -33q14 12 28 34q9 16 19.5 32t29.5 16q38 0 36 -40q-1 -12 -19.5 -30t-36.5 -34q-2 -3 -38 -45q-17 -20 -25 -20q-6 0 -18 17q-19 27 -29 38z" />
<glyph unicode="&#x161;" horiz-adv-x="423" d="M237 -23q-81 0 -138 36q-65 41 -65 112q0 17 10 30.5t25 13.5q30 0 39 -45q17 -79 126 -79q55 0 79 15t24 51q0 33 -28 73q-26 37 -52 47q-19 6 -52 9q-53 3 -60 4q-100 13 -105 96q-3 48 52 83q51 33 111 33q63 0 109 -22q53 -24 53 -67q0 -35 -38 -35q-17 0 -29 15 q-17 22 -26 28q-23 16 -69 16q-34 0 -61 -15q-30 -17 -30 -43q0 -21 77 -26q95 -6 115 -15q46 -22 74 -72.5t28 -110.5q0 -132 -169 -132zM157 551l-33 33q-19 20 -19 37t13.5 28.5t31.5 11.5q24 0 29 -15.5t9 -29.5q11 -19 22 -33q14 12 28 34q9 16 19.5 32t29.5 16 q38 0 36 -40q-1 -12 -19.5 -30t-36.5 -34q-2 -3 -38 -45q-17 -20 -25 -20q-6 0 -18 17q-19 27 -29 38z" />
<glyph unicode="&#x178;" horiz-adv-x="549" d="M224 -9q-10 11 -5 56q3 23 4 296q-10 24 -31 55q-9 12 -77 124q-11 22 -41 69q-13 12 -26 23q-19 17 -19 35q0 28 3 35q6 17 29 19t36.5 -10t35.5 -46q15 -23 29 -55q19 -43 26 -56q28 -53 77 -126q21 37 72 123q57 97 99 157q20 29 50 28q15 -1 21 -7q1 -2 6 -15t5 -23 q0 -14 -12 -27q-18 -20 -20 -22q-43 -63 -87 -126q-55 -80 -79 -136q-5 -13 -7 -33q-2 -28 -6 -43q1 -87 -1 -218q0 -1 3.5 -15t3.5 -25q0 -10 -3.5 -18.5t-7.5 -18.5q-6 -6 -35 -12q-6 -3 -22.5 2.5t-20.5 9.5zM248 782q1 -21 -16 -35.5t-39 -14.5q-21 0 -38.5 13t-17.5 33 q-2 48 62 48q17 0 33 -13.5t16 -30.5zM411 791q0 -22 -16 -36.5t-37 -14.5q-20 0 -37.5 14.5t-18.5 32.5q-1 21 14 35t36 14q22 0 40.5 -13t18.5 -32z" />
<glyph unicode="&#x17d;" horiz-adv-x="500" d="M446 559q-46 -77 -148 -252q-36 -58 -114 -196q53 -20 67 -23q30 -9 75 -12q24 0 47 -1q28 0 44 -10q29 -16 29 -17q15 -11 13 -27q-5 -36 -32 -36q-9 0 -19 4q-32 14 -76 17q-54 4 -78 10q-4 1 -32 3q-19 2 -29 10q-3 3 -36 23q-5 -31 -40 -31q-12 0 -20 6 q-22 17 -13 45q-12 0 -35 7q-27 16 -23 42q3 19 26 25q9 3 67 -12q49 89 120 213q45 75 146 242l-22 10q-47 20 -136 28q-31 3 -66 1q-34 -3 -67 -5q-20 -1 -30.5 8.5t-9.5 29.5q0 29 26 33q7 1 54 1q43 0 150 -10q38 -2 129 -18q59 -14 63 -49q1 -15 -9.5 -30t-20.5 -29z M215 784l-33 33q-19 20 -19 37t13.5 28.5t31.5 11.5q24 0 29 -15.5t9 -29.5q11 -19 22 -33q14 12 28 34q9 16 19.5 32t29.5 16q38 0 36 -40q-1 -12 -19.5 -30t-36.5 -34q-2 -3 -38 -45q-17 -20 -25 -20q-6 0 -18 17q-19 27 -29 38z" />
<glyph unicode="&#x17e;" horiz-adv-x="401" d="M179 419q32 -2 73 5q30 5 60 11q20 3 37.5 -11t17.5 -34q0 -9 -5 -24q-6 -20 -7 -27q-2 -11 -24 -55q-24 -37 -74 -124q-16 -30 -51 -98q32 -3 57 0q8 1 30 8q17 5 30 4q25 -4 34 -7q16 -7 20 -23q7 -32 -53 -44q-28 -6 -55 -6q-16 0 -49.5 3.5t-55.5 3.5 q-1 -12 -11.5 -28t-14.5 -20q-8 -8 -21 -9q-42 -4 -42 43q-5 -1 -9 -1q-27 0 -33 28q-8 30 30 44q29 11 51 -6q8 11 25 36q10 17 30 48q15 21 44 69q24 48 44 103q6 16 17 48q-16 2 -50 4q-18 -2 -57 -2q-35 -1 -68 3q-48 7 -53 35q-3 21 8 34.5t32 13.5q15 0 45 -12t48 -13 zM166 534l-33 33q-19 20 -19 37t13.5 28.5t31.5 11.5q24 0 29 -15.5t9 -29.5q11 -19 22 -33q14 12 28 34q9 16 19.5 32t29.5 16q38 0 36 -40q-1 -12 -19.5 -30t-36.5 -34q-2 -3 -38 -45q-17 -20 -25 -20q-6 0 -18 17q-19 27 -29 38z" />
<glyph unicode="&#x192;" horiz-adv-x="426" d="M419 521q-33 0 -28 32q2 18 -2 51q-5 39 -17 43q-4 2 -9 2q-19 0 -49.5 -23t-53 -52t-31.5 -66q-4 -18 -9 -75v-95v-29q32 6 49 15q25 13 32 15q14 2 39 5q4 1 13 5.5t15 4.5q30 -3 30 -31q0 -12 -15 -22.5t-29 -19t-31 -10.5q-23 -2 -43 -9q-13 -5 -66 -16v-41 q0 -107 -27 -218q-16 -69 -51 -107q-81 -88 -144 -85q-51 2 -69 31q-11 18 -15 60q-2 28 6 48q9 24 30 22q30 -3 35 -32q3 -14 -2 -29q-4 -18 -4 -20q0 -19 24 -19q18 0 45 21q21 16 33 37l24 42q21 37 29 70q2 5 15 80q4 24 4 102v26l-35 -12q-5 -1 -9 -1q-27 0 -31 25 q-3 15 11 24q5 4 30 14l44 19l3 38q1 10 6 133q2 47 17 80q12 27 43 65q39 46 62 63q37 26 80 22q39 -3 59 -21q25 -21 27 -67q2 -42 -1 -58q-7 -37 -34 -37z" />
<glyph unicode="&#x2c6;" d="M288 599q17 -16 34 -33q18 -20 18 -37t-13.5 -28.5t-31.5 -11.5q-24 0 -29 15.5t-9 30.5q-11 18 -22 32q-13 -12 -28 -33l-18 -32q-12 -17 -31 -17q-38 0 -36 40q1 12 21 32q17 16 35 32q2 3 38 45q18 21 25 21q6 0 19 -18q18 -27 28 -38z" />
<glyph unicode="&#x2c7;" d="M175 546l-33 33q-19 20 -19 37t13.5 28.5t31.5 11.5q24 0 29 -15.5t9 -29.5q11 -19 22 -33q14 12 28 34q9 16 19.5 32t29.5 16q38 0 36 -40q-1 -12 -19.5 -30t-36.5 -34q-2 -3 -38 -45q-17 -20 -25 -20q-6 0 -18 17q-19 27 -29 38z" />
<glyph unicode="&#x2d8;" d="M160 635q35 0 35 -24q0 -65 37 -65q30 0 35 22q2 20 5 39q7 19 25 19q38 0 38 -31q0 -35 -25 -65q-31 -36 -86 -36q-25 0 -55 23q-38 30 -38 75q0 14 8 28.5t21 14.5z" />
<glyph unicode="&#x2d9;" d="M127 581q0 27 28.5 59.5t62.5 32.5q30 0 65 -23q40 -26 40 -61t-23 -63q-26 -32 -67 -32q-35 0 -66 20q-40 25 -40 67z" />
<glyph unicode="&#x2da;" d="M143 561q0 21 23 47t50 26q24 0 52 -18q33 -21 33 -49t-18 -51q-21 -28 -55 -28q-26 0 -54 21q-31 24 -31 52zM225 537q11 0 19 9t8 17q0 9 -12 19t-19 10q-10 0 -19 -7.5t-9 -18.5q0 -9 12 -19t20 -10z" />
<glyph unicode="&#x2db;" d="M236 -31q-16 -4 -19 -15t4 -21t18 -10q8 0 23.5 13t25.5 13q23 0 27 -21q4 -27 -23 -45.5t-58 -18.5q-37 0 -57.5 24t-20.5 56q0 54 29 69q23 11 41 11q23 0 30 -20q2 -5 2 -10q0 -18 -22 -25z" />
<glyph unicode="&#x2dc;" d="M258 576.5q8 -8.5 13 -14.5q13 9 23 24q3 10 13 29q14 16 30 16t28 -11t9 -25q-3 -15 -30 -50q-22 -28 -47 -45q-21 -14 -41 -5q-17 7 -27 20q-14 20 -27 40l-35 -26q-5 -18 -20.5 -29t-32.5 -8q-30 5 -30 33q0 8 15 27q10 7 32 24q8 12 31 36q30 21 43 20q13 -2 23 -14 q7 -12 14.5 -22.5t15.5 -19z" />
<glyph unicode="&#x2dd;" d="M392 665q-12 -17 -38 -54q-16 -28 -56 -84l-14 -18t-17 -11q-14 -3 -25 1q-17 7 -17 30q0 9 6 15q19 22 81 114q6 13 13 27t19 18q19 7 39 0q7 -2 9 -17q3 -15 0 -21zM235 657q-12 -17 -38 -55q-15 -27 -56 -83l-14 -18t-16 -12q-16 -3 -32 4q-7 3 -10 24q-2 20 3 25 q24 28 83 107q6 14 13 27.5t19 18.5q20 7 39 0q7 -3 10 -18q2 -14 -1 -20z" />
<glyph unicode="&#x394;" d="M267 656q10 -23 16 -54q8 -49 10 -56q13 -43 40 -144q26 -107 40 -177q4 -24 27 -97q17 -57 17 -84q0 -19 -6 -31q-4 -6 -30 -8q-17 0 -63 1q-54 2 -79 1q-38 0 -98 -6q-49 -4 -55 -3q-16 3 -33 7t-26 18q-5 9 -5 19q0 11 8 30q8 23 10 33q28 99 72 256q12 54 42 172 q6 28 13 58t17 53.5t20 47.5t29 22q15 -2 21.5 -21t12.5 -37zM225 551q-13 -47 -41 -151.5t-64 -247.5q-7 -26 -23 -81q85 9 134 9q42 0 114 -9q-17 57 -50 188q-9 44 -30 141q-17 73 -40 151z" />
<glyph unicode="&#x3a9;" horiz-adv-x="637" d="M128 54q-24 26 -50 73q-47 87 -47 187q0 51 12 99q32 121 114 198q52 48 89 68q48 25 107 25q83 0 160 -79q68 -70 86 -147q7 -32 7 -61q0 -24 -13 -109q-8 -46 -31 -100q-33 -78 -39 -97q-2 -6 -9.5 -18.5t-7.5 -19.5q0 -13 11 -13q1 0 23 4q16 2 24 -2q26 -13 26 -33 q0 -24 -32 -32q-46 -12 -76 5q-35 19 -41 63q-2 13 10 62q22 52 45 104q37 87 37 178q0 116 -85 178q-59 44 -111 42q-32 0 -61 -17q-5 -3 -53 -38q-41 -31 -81 -108q-46 -91 -45 -177q0 -39 15 -74q5 -12 35 -69q16 -15 38 -54q11 -33 11 -46q0 -19 -12 -36 q-13 -20 -30 -21q-62 -2 -86.5 3.5t-24.5 42.5q0 25 36 25q15 0 49 -6z" />
<glyph unicode="&#x3bc;" horiz-adv-x="483" d="M426 464q3 -25 2 -104q-1 -65 7 -104q1 -6 8 -25q5 -15 4 -23q-4 -25 -9 -82q-1 -13 3 -33t4 -29q0 -12 -4 -23q-3 -15 -6 -31q-6 -15 -32 -16q-32 -2 -38 31q-52 -47 -144 -47q-63 0 -100 21q-3 2 -3 -11q0 -8 2 -43t2 -57q0 -26 -2 -44q-4 -27 -18 -42q-10 -11 -21 -11 q-4 0 -5 2l-26 16q-22 17 -19 40q16 193 16 255v34q-1 21 -1 26q0 58 6.5 95.5t12.5 75.5q1 25 2 52.5t17 45.5q6 7 11.5 14t20.5 8q18 1 32 -12.5t10 -28.5q-9 -36 -24 -116q-7 -41 -14 -151q-1 -48 12 -68q21 -30 86 -30q116 0 138 107q5 24 6 71q2 62 -9 177q-1 4 -6 27 q-4 15 -1 27q13 47 45 44t35 -38z" />
<glyph unicode="&#x3c0;" horiz-adv-x="543" d="M467 471q51 0 51 -36q0 -30 -44 -34q0 -23 -6 -82t-5 -87q6 -110 28 -176q2 -8 2 -15q0 -35 -36 -35q-46 0 -55 48q-17 87 -18 187q0 25 9.5 78.5t8.5 79.5q-29 2 -100 10q-24 6 -69 13q-19 1 -86 -6q12 -66 11 -183q-1 -126 -11 -188q-8 -52 -48 -52q-38 0 -38 67 q0 25 9 81q10 60 11 93q1 16 -5 178q-16 -2 -29 9t-13 26q-2 39 29 39q7 0 17 -3q0 15 17 21q23 8 31 -12q81 0 157 -7q51 -6 134 -14q0 24 25 24q23 0 23 -24z" />
<glyph unicode="&#x2013;" horiz-adv-x="480" d="M413 202q-8 -2 -20 2t-18 4q-13 1 -29 -2l-28 -4q-117 -9 -231 -13q-21 0 -37 11t-16 31q-2 34 66 41q12 1 27 -4q20 -5 27 -6q17 -2 33 -2q23 0 60 5q43 5 65 7q12 0 35 4q20 4 33 4q11 0 23 -2q44 -9 44 -38q0 -30 -34 -38z" />
<glyph unicode="&#x2014;" horiz-adv-x="564" d="M489 202q-9 -2 -22 2q-17 4 -24 4q-15 1 -34 -2q-26 -3 -34 -4q-58 -4 -152 -7q-38 -2 -127 -6q-27 0 -45.5 11t-18.5 31q0 34 80 41q14 1 32 -4q23 -5 32 -6q20 -2 40 -2q29 0 73 5q53 5 78 7q15 0 43 4q24 4 39 4q14 0 29 -2q54 -9 54 -38q0 -30 -43 -38z" />
<glyph unicode="&#x2018;" horiz-adv-x="189" d="M39 600q-3 37 18.5 68.5t56.5 31.5t35 -24q0 -16 -25 -18q-18 -2 -17 -18q40 -5 40 -53q0 -21 -17.5 -35t-41.5 -14q-45 0 -49 62z" />
<glyph unicode="&#x2019;" horiz-adv-x="192" d="M156 628q2 -37 -18 -67q-22 -33 -57 -33q-36 0 -36 25q0 15 26 18q18 1 16 17q-40 5 -40 53q0 21 18 35.5t41 14.5q45 0 50 -63z" />
<glyph unicode="&#x201a;" horiz-adv-x="217" d="M172 32q2 -37 -18 -68q-23 -32 -57 -32q-36 0 -36 24q0 15 25 18q19 1 17 18q-40 4 -40 52q0 22 18 36t41 14q45 0 50 -62z" />
<glyph unicode="&#x201c;" horiz-adv-x="334" d="M181 613q-3 37 18.5 68.5t56.5 31.5q36 0 36 -25q0 -15 -26 -17q-18 -2 -17 -18q40 -5 40 -53q0 -21 -17.5 -35t-40.5 -14q-46 0 -50 62zM39 600q-3 37 18.5 68.5t56.5 31.5t35 -24q0 -16 -25 -18q-18 -2 -17 -18q40 -5 40 -53q0 -21 -17.5 -35t-41.5 -14q-45 0 -49 62z " />
<glyph unicode="&#x201d;" horiz-adv-x="337" d="M156 628q2 -37 -18 -67q-22 -33 -57 -33q-36 0 -36 25q0 15 26 18q18 1 16 17q-40 5 -40 53q0 21 18 35.5t41 14.5q45 0 50 -63zM298 641q2 -37 -18 -67q-22 -33 -57 -33q-36 0 -36 24q0 16 26 18q18 2 16 18q-40 5 -40 53q0 21 18 35t41 14q46 0 50 -62z" />
<glyph unicode="&#x201e;" horiz-adv-x="360" d="M172 32q2 -37 -18 -68q-23 -32 -57 -32q-36 0 -36 24q0 15 25 18q19 1 17 18q-40 4 -40 52q0 22 18 36t41 14q45 0 50 -62zM314 44q2 -37 -18 -67q-22 -33 -57 -33q-36 0 -36 24q0 16 25 18q19 2 17 18q-40 5 -40 53q0 21 18 35t41 14q45 0 50 -62z" />
<glyph unicode="&#x2020;" horiz-adv-x="344" d="M207 651q1 -21 -3 -37q-5 -19 -6 -36v-44l21 -7q18 4 57 7q26 -1 34 -13q4 -7 4 -28q-1 -37 -47 -37q-9 0 -23.5 4t-24.5 4l-24 3q0 -35 -3 -91q1 -56 2 -153q-1 -19 6 -139q3 -46 -38 -48q-30 -2 -40 19q-5 13 -4 42q2 87 4 282v82l-28 -2q-22 -2 -39.5 9t-17.5 31 q0 36 64 34l24 -6q1 12 3 57q1 15 -3 33q-3 13 0 34q7 36 44 40q37 3 38 -40z" />
<glyph unicode="&#x2021;" horiz-adv-x="344" d="M198 306v-164l21 -6q11 0 28.5 3t28.5 3q26 0 33 -12q5 -7 5 -29q0 -13 -9.5 -24t-22.5 -11q-17 -3 -33 1q-28 5 -30 6l-21 2q-4 -22 -4 -60q0 -27 3 -70.5t3 -68.5q0 -49 -38 -49q-49 0 -44 64q4 44 4 90q1 33 -0.5 67t-1.5 29l-26 -10q-7 -2 -13 -2q-17 0 -30.5 12.5 t-13.5 29.5q0 34 64 34l18 -4q5 50 5 151q0 16 2 86.5t2 86.5l-34 -2q-22 -1 -39.5 9.5t-17.5 30.5q0 34 64 34l31 -6q3 26 3 57q0 14 -4 33q-3 13 1 34q7 40 44 40q38 0 38 -40q0 -20 -5 -37t-5 -36v-44l21 -7q11 0 29 3.5t28 3.5q26 0 34 -13q4 -7 4 -28q0 -14 -9.5 -24.5 t-22.5 -10.5q-17 -3 -33 0l-30 6l-24 3z" />
<glyph unicode="&#x2022;" horiz-adv-x="388" d="M207 496q15 -2 29 -11t29 -17t31.5 -16.5t26.5 -20.5q31 -37 31 -91q0 -66 -52.5 -115t-119.5 -45q-59 4 -99.5 40t-45.5 93q-8 79 69 142q58 46 101 41z" />
<glyph unicode="&#x2026;" horiz-adv-x="685" d="M176 60q0 -26 -16 -45.5t-40 -19.5q-18 0 -28.5 17t-10.5 40q-1 27 17.5 48.5t44.5 21.5q33 0 33 -62zM378 54q0 -26 -16 -45.5t-40 -19.5q-18 0 -28.5 17t-10.5 40q-1 27 17.5 48.5t44.5 21.5q33 0 33 -62zM606 66q0 -26 -16 -45.5t-40 -19.5q-18 0 -28.5 17t-10.5 40 q-1 27 17.5 48.5t44.5 21.5q33 0 33 -62z" />
<glyph unicode="&#x2030;" horiz-adv-x="748" d="M482 108q0 -11 -2 -22q-14 -79 -84 -79q-11 0 -23 2q-94 17 -94 120q0 15 3 31q6 36 31 56.5t59 20.5q48 0 79 -39.5t31 -89.5zM122 647q44 0 79 -40t35 -90q0 -95 -93 -95q-56 0 -88 41q-28 37 -28 92q0 41 27.5 66.5t67.5 25.5zM375 663q-8 -55 -43 -168 q-44 -142 -58 -202q-26 -104 -66 -287q-5 -28 -40 -28q-36 0 -33 25q2 22 13 52q15 39 18 52q14 59 45 190q11 48 37 129q24 75 37 132q7 45 14 91q12 50 43 50q13 0 23.5 -11.5t9.5 -24.5zM720 99q0 -11 -2 -22q-14 -79 -84 -79q-12 0 -23 2q-94 17 -94 119q0 16 3 32 q6 35 31 55.5t59 20.5q48 0 79 -39.5t31 -88.5zM353 124q0 -50 36 -57q20 -3 29 28q0 7 1 22q-6 -1 -10.5 7.5t-8.5 15.5q-2 2 -9 21q-5 12 -14 13q-24 1 -24 -50zM102 544q0 -24 14 -43t33 -19q21 0 24 32q-1 -2 -4 22q-5 -1 -11 7q-10 13 -11.5 14t-11.5 18q-7 11 -16 10 q-17 -1 -17 -41zM590 114q0 -50 37 -56q20 -4 29 27q0 7 1 22q-7 0 -11 8l-8 16q-2 2 -9 20q-5 13 -14 13q-25 2 -25 -50z" />
<glyph unicode="&#x2039;" horiz-adv-x="350" d="M289 379q2 -22 -24 -44q-22 -20 -56 -59q-38 -46 -93 -123q48 -31 79 -48q27 -12 88 -44q37 -20 36 -40q-1 -34 -42 -40q-28 5 -50.5 18t-44.5 26q-13 8 -49 34q-27 20 -58 34q-45 19 -48 48q-1 17 17 32q26 23 29 27q12 17 38 57q8 14 27 44q14 20 35 42q27 28 41 44 q22 28 41 28q32 0 34 -36z" />
<glyph unicode="&#x203a;" horiz-adv-x="356" d="M64 13q-1 21 24 44q23 19 56 59q39 45 94 123q-48 31 -79 47q-27 13 -88 45q-37 19 -36 40q1 34 42 40q28 -5 52 -18q21 -13 43 -27q13 -7 49 -34q26 -20 58 -33q45 -19 47 -48q2 -17 -16 -32q-26 -23 -29 -27l-38 -57q-8 -15 -27 -44q-14 -21 -35 -42q-27 -28 -41 -45 q-23 -28 -41 -28q-33 0 -35 37z" />
<glyph unicode="&#x2044;" horiz-adv-x="303" d="M277 646q-23 -54 -45 -147q-20 -86 -40 -173q-7 -25 -42 -144q-23 -79 -37 -153q-7 -36 -10 -41q-9 -22 -34 -22q-35 0 -35 31q0 8 3 20q14 71 43 162q33 105 46 160q8 31 69 325q3 17 16.5 28.5t30.5 9.5q38 -3 38 -39q0 -8 -3 -17z" />
<glyph unicode="&#x2122;" horiz-adv-x="557" d="M194 677q6 0 16.5 3.5t16.5 3.5q11 0 20 -11t9 -24q0 -27 -45 -30q-17 -1 -44 -1l4 -154q0 -9 1 -26t1 -29q0 -16 -10 -29.5t-25 -13.5t-24 13t-8 29q6 95 6 91q0 70 -4 99l-2 19q-12 -2 -42 -2q-39 0 -39 31q0 20 10 25q3 1 23 4q14 -2 45 -2q11 4 36 10q11 1 27.5 -3 t27.5 -3zM319 673q31 0 53 -86q9 -23 27 -76q4 12 45 109q-5 13 -2 25q6 25 33 27q18 0 25 -10q4 -6 8 -24q2 -9 -1 -20q-5 -16 -6 -20l22 -185q2 -37 -27 -40q-16 -2 -25.5 10.5t-10.5 31.5q0 9 -6 93q-27 -50 -27 -82q0 -3 2.5 -11t1.5 -13q-5 -20 -31 -21q-24 0 -27 12 l-6 24q-8 13 -20 56q-4 15 -13 49q-6 -21 -6 -25.5t-6 -33.5t-6 -38.5t-2 -30.5q-12 -30 -36 -29q-26 2 -32 36q-1 8 6 27q10 33 11 36t24 135q12 74 32 74z" />
<glyph unicode="&#x2202;" d="M365 536q25 -58 25 -117q0 -22 -3 -54l-3 -38q13 -1 20.5 -12.5t4.5 -25.5q-3 -17 -31 -25l-3 -31q-7 -70 -29 -120q-22 -53 -36 -74q-22 -35 -58 -56q-33 -2 -71 6q-84 20 -118 67q-27 38 -32 113q-7 102 45 177q55 80 144 76q25 -1 104 -31l-6 41q-10 62 -11 66 q-7 32 -24 60q-28 46 -33 51q-21 25 -49 25q-39 0 -62.5 -28.5t-20.5 -73.5q1 -20 -11.5 -36.5t-31.5 -16.5q-20 0 -30 24q-8 20 -5 45q7 67 52 108t109 41q60 0 103 -50q28 -34 61 -111zM219 355q-57 0 -96 -64q-34 -54 -34 -110q0 -54 38.5 -94t91.5 -40q35 0 76 109 q16 42 20 118l2 40q-53 41 -98 41z" />
<glyph unicode="&#x220f;" horiz-adv-x="596" d="M512 681q50 0 50 -36q0 -29 -44 -33l8 -295q3 -64 5 -128q2 -69 0 -127q-3 -62 -40 -62q-21 0 -33 21t-12 45q4 74 9 240q2 165 0 303q-90 13 -175 13q-52 0 -133 -8l2 -320q0 -31 -2 -120q-2 -66 0 -129q1 -23 -9 -41q-11 -22 -31 -22q-40 0 -40 74q0 51 6 121 q6 77 7 119q3 149 -4 313q-16 -1 -29 9.5t-13 26.5q-2 38 29 38q7 0 17 -2q0 15 17 21q23 8 31 -13h141q52 0 194 -8q0 24 25 24q24 0 24 -24z" />
<glyph unicode="&#x2211;" horiz-adv-x="536" d="M120 167q9 5 36 29q23 21 75 66q16 14 127 96q-38 25 -101 73q-93 70 -139 116q-14 1 -41 4q-31 5 -28 50q-3 24 98 24q50 14 161 40q37 8 74 16.5t76 10.5q38 2 38 -37q0 -21 -18 -42q-8 -10 -81 -10q-28 0 -52 -9q-5 -2 -14.5 -10.5t-15.5 -8.5q-3 0 -9.5 4t-9.5 4 q-8 3 -42 -9l-42 -16q65 -66 145 -116q63 -40 84 -42q27 -7 30 -33q1 -17 -16.5 -39.5t-27.5 -24.5q-26 -9 -64 -30q-25 -14 -53 -39q-44 -38 -51 -43q-24 -19 -68 -55l95 -34q13 -4 68 -29q37 -16 68 -21q13 0 41 -1q29 -5 29 -48q0 -17 -20.5 -29t-28.5 -9q-49 20 -160 63 q-40 19 -81 37t-81 18q-5 0 -21.5 -13t-24.5 -13q-23 0 -31 29q-2 40 27 61q8 5 49 20z" />
<glyph unicode="&#x2212;" horiz-adv-x="416" d="M29 229q0 31 59 43q12 2 28 -2q21 -4 29 -4q37 0 94 9.5t83 9.5q62 0 62 -44q0 -45 -56 -45q-8 0 -22 1t-21 1q-33 0 -68 -4.5t-69 -4.5q-6 0 -24.5 -1t-29.5 -1q-65 0 -65 42z" />
<glyph unicode="&#x221a;" horiz-adv-x="461" d="M516 596q-8 0 -42 16.5t-51 12.5q-10 -2 -21 -46l-20 -80q-18 -71 -28 -145.5t-19 -148.5q-7 -82 -32 -287q-8 -51 -12 -63q-11 -32 -38 -41q-8 -3 -15 -3q-28 0 -43 52q-12 47 -24 93q-14 38 -19 86q-8 76 -10 87q-4 32 -8 64.5t-14 49.5q-13 -6 -25 -11q-18 -8 -30 -8 q-13 0 -27.5 9.5t-15.5 22.5q-2 20 29 38t72 19q13 1 25 3q13 1 23 -7t16 -68q10 -96 12 -108q9 -56 36 -180q4 35 14 113q23 182 60 421q17 66 21 82q15 54 29 76q26 43 64 50q15 2 32.5 -3t33.5 -10q68 -14 68 -45q0 -14 -13.5 -27.5t-27.5 -13.5z" />
<glyph unicode="&#x221e;" horiz-adv-x="726" d="M33 322q5 55 43.5 90.5t95.5 42.5q42 5 100 -29q31 -22 62 -43l30 -20l29 22q45 36 67 47q36 19 78 19q68 0 108.5 -42.5t40.5 -106.5q1 -59 -32.5 -104t-85.5 -45q-109 0 -198 81l-23 20l-28 -27q-42 -38 -64 -51q-34 -20 -75 -18q-65 3 -110 51.5t-38 112.5zM184 221 q45 0 92 60l22 28l-25 23q-40 34 -44 37q-24 16 -51 16q-69 0 -76 -72q-3 -36 22 -64t60 -28zM431 332l-26 -26l22 -25q47 -54 108 -54q79 0 85 70q3 35 -21.5 60.5t-59.5 25.5q-57 0 -108 -51z" />
<glyph unicode="&#x222b;" horiz-adv-x="271" d="M257 672q-30 2 -47 -9q-10 -7 -28 -30q-23 -30 -23 -86q0 4 7 -83q12 -72 26 -237q3 -143 -16 -243q-11 -53 -55 -91t-97 -38q-82 0 -85 60q-1 24 22 26q11 1 26.5 -13t45.5 -14q34 0 58 43q19 36 25 87q8 74 11 199q2 49 -19 196q-14 107 -14 119q0 56 31 99 q30 40 54 56q32 22 76 20q66 -3 63 -35q-3 -31 -61 -26z" />
<glyph unicode="&#x2248;" horiz-adv-x="397" d="M365 300q-14 -24 -46 -44q-36 -23 -72 -23q-17 0 -45 22t-51 22q-6 0 -37 -20q-3 -2 -21 -19q-11 -9 -27 -12q-34 -5 -38 26q-1 14 13.5 28t29.5 26q20 18 50 30q27 11 40 10q14 -1 50 -23t46 -22q22 0 41 20.5t42 20.5q12 0 19 -6q18 -16 6 -36zM365 163 q-14 -24 -46 -44q-36 -23 -72 -23q-17 0 -45 22t-51 22q-6 0 -37 -20q-3 -2 -21 -18q-11 -10 -27 -13q-34 -5 -38 26q-1 15 13.5 28.5t29.5 25.5q20 18 50 30q27 11 40 10q14 -1 50 -23t46 -22q22 0 41 20.5t42 20.5q12 0 19 -6q18 -16 6 -36z" />
<glyph unicode="&#x2260;" horiz-adv-x="475" d="M245 287q9 26 19 48q20 41 50 41q8 0 17 -3q22 -11 22 -35q0 -16 -10 -40q9 0 23 1t19 1q62 0 62 -44q0 -43 -73 -43q-11 0 -30 1t-25 1h-16q-11 -25 -22 -61q7 0 20.5 1t20 1t24 1t28.5 1q62 0 62 -41q0 -29 -56 -40q-10 0 -37.5 3.5t-38.5 3.5q-8 0 -25.5 -2t-26.5 -2 q-22 -54 -24 -57q-19 -35 -43 -35q-9 0 -19 5q-19 9 -19 33q0 13 7 38v3q-11 0 -29.5 -1.5t-25.5 -1.5q-59 0 -59 42q0 43 54 43q7 0 20.5 -1t19.5 -1q10 0 31 1t32 1q7 18 22 58q-9 0 -30.5 -1.5t-35.5 -1.5q-6 0 -25 -1t-30 -1q-64 0 -64 42q0 31 59 42q11 3 29.5 -1 t26.5 -4q13 0 46 3t50 3z" />
<glyph unicode="&#x2264;" horiz-adv-x="420" d="M29 49q0 19 18.5 23t37.5 7q12 2 28 -1q20 -4 29 -4q37 0 94 9.5t83 9.5q65 0 65 -32q0 -45 -56 -45q-8 0 -22 1t-21 1q-33 0 -68 -4.5t-69 -4.5q-6 0 -24.5 -1t-29.5 -1q-65 0 -65 42zM272 454q-12 -10 -63 -67q-40 -45 -70 -83q10 -8 32 -26q5 -5 125 -80 q32 -21 30 -41q-1 -16 -14 -26.5t-28 -7.5q-32 7 -73 38q-37 32 -75 63q-29 18 -59 36.5t-28 44.5q2 16 18 27q25 18 29 23q17 23 57 72q24 24 75 80q44 50 78 47q11 -1 19 -11t7 -21q-4 -35 -25 -49q-18 -10 -35 -19z" />
<glyph unicode="&#x2265;" horiz-adv-x="420" d="M208.5 14.5q-35.5 1.5 -68.5 -1.5q-5 -1 -28 -4q-18 -3 -28 -3q-43 0 -46 40q-3 32 62 37q25 2 68 -1q52 -4 72 -4t38 2q9 1 28 7q16 5 28 4l38 -4t21 -21q3 -36 -43 -45q-37 -3 -71.5 -5.5t-70 -1zM128 228q5 4 68 61q28 26 78 76q-9 10 -30 30q-24 24 -55.5 46.5 t-62 44.5t-26.5 42q3 16 16.5 25t27.5 6q32 -10 70 -45q35 -34 70 -69q27 -20 55 -41t24 -47q-4 -15 -21 -26q-25 -14 -29 -19q-20 -22 -64 -68q-26 -22 -83 -72q-48 -46 -81 -40q-11 1 -18 11.5t-4 21.5q5 35 28 48q19 8 37 15z" />
<glyph unicode="&#x25ca;" horiz-adv-x="404" d="M245 640q24 -41 42 -88q15 -46 31 -92q5 -22 22 -65q11 -13 27 -46q2 -6 2 -11q0 -13 -9 -32q-12 -24 -15 -32q-24 -71 -78 -229q-18 -54 -56 -57q-35 -2 -49 19q-8 11 -15 45q-7 41 -34 103q-25 57 -51 114q-2 6 -21 38q-13 20 -13 38q0 15 9 32q14 27 16 30 q27 60 82 197q3 19 19 57q21 31 44 32q30 1 36 -17t11 -36zM198 559q-16 -29 -47 -96q-14 -35 -38 -115q15 -40 50 -129q16 -36 51 -118q13 39 41 126q11 34 34 112q-10 34 -37 108q-17 41 -54 112z" />
<glyph unicode="&#x25fc;" horiz-adv-x="460" d="M0 460h460v-460h-460v460z" />
<glyph unicode="&#xf000;" horiz-adv-x="728" d="M411 726q1 -4 4 -42q26 -6 113 -46q6 16 26 27.5t32 9.5q28 -5 28 -47q0 -13 -13 -24q-20 -18 -22 -22q30 -36 42 -76q6 -19 6 -42v-44q19 -2 38 -18q26 -21 26 -40q-1 -17 -18.5 -24.5t-37.5 -4.5q-8 1 -17 7q-13 9 -16 11q-6 -13 -21 -35q-2 -3 -25 -37q16 -11 23 -31 q10 -28 2 -43t-28 -15q-22 0 -41 15q-7 6 -18 26q-22 -20 -40 -29q-1 0 -55 -16q1 -15 -5 -30q-12 -28 -37 -28q-23 0 -37 37q-2 5 -4 26q-20 6 -56 23q-17 11 -56 34q-7 -31 -39 -36q-36 -7 -49 13q-5 8 -5 18q0 16 14 36q2 3 31 21q-34 47 -44 127q-21 -1 -39 10 q-24 13 -24 37q0 28 44 37q9 1 21 0q16 -3 21 -3q7 23 42 70q-22 12 -29 35q-6 23 3 39q8 12 24 12t37 -10q7 -8 25 -23q31 16 95 46q-6 25 4 46q14 29 37 29t38 -26zM277 586q-53 -33 -75 -70q-29 -49 -29 -93q0 -17 4 -37q14 -69 84 -111q52 -32 104 -32q47 0 97 29 q60 33 93 104q21 45 21 79q0 65 -73 123q-69 56 -135 50q-25 -2 -47.5 -15t-43.5 -27zM359 506q0 -18 -11 -31t-28 -13t-29.5 13.5t-12.5 30.5q0 42 35 47q19 2 32.5 -12.5t13.5 -34.5zM531 429q-12 -57 -57 -97q-52 -47 -108 -46q-62 2 -111 49q-36 34 -36 59q0 6 1 12 q5 28 5 30q5 15 18 17q19 3 33 -12.5t17 -36.5q2 -26 29.5 -42.5t57.5 -14.5q76 7 80 76q1 16 12 28.5t26 10.5q14 -2 24.5 -11.5t8.5 -21.5zM475 521q0 -18 -11 -31t-28 -13t-29.5 13t-12.5 31q0 42 34 46q19 3 33 -11.5t14 -34.5z" />
<glyph unicode="&#xf001;" horiz-adv-x="464" d="M381 457q20 0 26 -17q1 -4 2 -32q3 -48 -1 -150q-3 -105 -2 -151q1 -9 7.5 -25.5t6.5 -27.5q0 -31 -12 -53q-13 -25 -37 -25q-16 0 -27.5 14t-11.5 30q0 14 2.5 33.5t2.5 30.5q0 48 -2 128q-1 65 0 130q-56 -15 -161 -41l1 -55q2 -39 6 -126q1 -26 10.5 -82.5t9.5 -83.5 q0 -37 -36 -37q-51 0 -47 61q2 44 -3 106q-7 73 -7 109v50q0 6 -9 37q-8 0 -21 -4t-20 -4q-13 0 -24 8t-11 20q0 11 22 28q28 23 57 23l-13 91q-5 32 -11 64.5t-4 61.5q3 71 54 130q53 63 119 63q54 0 105 -40q58 -45 60 -109q0 -32 -16 -60q-18 -32 -44 -32 q-16 0 -34.5 15.5t-18.5 30.5q0 10 17.5 31t17.5 30q0 20 -29.5 42.5t-60.5 22.5q-39 0 -67 -36q-25 -31 -30 -72q-10 -92 12 -158q0 -6 6 -16.5t6 -17t1.5 -15t1.5 -14.5q20 7 64 22q19 8 38 15t57 12q3 16 16.5 30.5t31.5 14.5z" />
<glyph unicode="&#xf002;" horiz-adv-x="498" d="M373 343q-74 -15 -202 -42l1 -55q2 -39 6 -126q1 -26 10.5 -82.5t9.5 -83.5q0 -37 -36 -37q-51 0 -47 61q2 44 -3 106q-7 73 -7 109v50q0 6 -9 37q-8 0 -21 -4t-20 -4q-13 0 -24 8t-11 20q0 11 22 28q28 23 57 23l-13 91q-5 32 -11 64.5t-4 61.5q3 71 54 130 q53 63 119 63q45 0 76.5 -45.5t31.5 -99.5q0 -33 -13 -57q-15 -28 -41 -28q-15 0 -26.5 11t-11.5 26q0 11 14 23t14 22q0 21 -11 43q-14 27 -36 36q-8 3 -16 3q-30 0 -55 -39q-22 -34 -26 -72q-10 -92 12 -158q0 -6 5.5 -16.5t5.5 -17t2 -15t2 -14.5q42 9 143 37q18 6 63 20 q0 16 1.5 46.5t1.5 50.5q0 71 6 98q11 47 41 47q35 0 35 -63q0 -33 -8 -103t-8 -105l3 -174q1 -17 2 -52q2 -30 2 -52q0 -20 -1 -51v-57q0 -36 -29 -36q-42 0 -42 49q0 22 -4 174z" />
</font>
</defs>
</svg>
